<svg width="281" height="175" viewBox="0 0 281 175" fill="none" xmlns="http://www.w3.org/2000/svg">
<g filter="url(#filter0_i_1_5128)">
<rect y="0.200195" width="281" height="174" rx="20" fill="#FFF2D0"/>
</g>
<rect x="0.5" y="0.700195" width="280" height="173" rx="19.5" stroke="black"/>
<mask id="mask0_1_5128" style="mask-type:alpha" maskUnits="userSpaceOnUse" x="2" y="2" width="277" height="172">
<path d="M2 20.2C2 10.2588 10.0589 2.19995 20 2.19995H261C270.941 2.19995 279 10.2588 279 20.2V155.2C279 165.141 270.941 173.2 261 173.2H20C10.0589 173.2 2 165.141 2 155.2V20.2Z" fill="#FFF2D0"/>
</mask>
<g mask="url(#mask0_1_5128)">
<path d="M151.386 111.161L150.345 109.972C150.209 109.818 150.051 109.734 149.884 109.714L139.203 108.426C139.368 108.446 139.529 108.531 139.665 108.685L140.706 109.874C140.842 110.027 141 110.112 141.168 110.132L151.848 111.419C151.683 111.399 151.522 111.315 151.386 111.161Z" fill="#FF4085" stroke="black" stroke-linecap="round" stroke-linejoin="round"/>
<path d="M158.227 105.982L157.186 104.79C157.053 104.637 156.892 104.552 156.73 104.532L146.05 103.245C146.215 103.265 146.373 103.349 146.506 103.503L147.547 104.695C147.68 104.848 147.841 104.933 148.005 104.953L158.686 106.24C158.521 106.223 158.363 106.136 158.227 105.982Z" fill="#FF4085" stroke="black" stroke-linecap="round" stroke-linejoin="round"/>
<path d="M154.615 160.588L143.935 159.301C143.612 159.262 143.266 159.473 143.035 159.896L142.126 161.573C141.896 161.998 141.55 162.207 141.227 162.168L151.907 163.455C152.23 163.494 152.576 163.283 152.807 162.86L153.716 161.183C153.946 160.758 154.292 160.549 154.615 160.588Z" fill="black"/>
<path d="M161.769 162.27L151.089 160.982C150.765 160.943 150.42 161.155 150.189 161.577L149.28 163.254C149.049 163.68 148.704 163.889 148.381 163.85L159.061 165.137C159.384 165.176 159.73 164.964 159.96 164.542L160.869 162.865C161.1 162.439 161.446 162.231 161.769 162.27Z" fill="black"/>
<path d="M165.386 107.668L161.849 103.627C161.716 103.474 161.555 103.389 161.391 103.369L150.71 102.082C150.875 102.102 151.033 102.186 151.169 102.34L154.706 106.38C154.839 106.534 154.997 106.618 155.162 106.638L165.842 107.925C165.677 107.906 165.519 107.821 165.386 107.668Z" fill="#FF4085" stroke="black" stroke-linecap="round" stroke-linejoin="round"/>
<path d="M168.612 157.093L157.932 155.805C157.608 155.766 157.263 155.978 157.032 156.401L153.949 162.091C153.718 162.519 153.37 162.731 153.046 162.692L163.727 163.979C164.05 164.018 164.396 163.806 164.63 163.378L167.712 157.688C167.943 157.262 168.289 157.054 168.612 157.093Z" fill="black"/>
<path d="M168.126 141.202C168.526 141.656 168.565 142.555 168.22 143.195L160.79 156.912C160.441 157.558 159.831 157.71 159.431 157.255L158.39 156.063C157.99 155.609 157.38 155.761 157.035 156.401L153.952 162.091C153.604 162.737 152.99 162.888 152.593 162.434L151.552 161.242C151.153 160.785 150.539 160.936 150.194 161.579L149.285 163.256C148.937 163.899 148.327 164.051 147.93 163.594L144.396 159.556C143.996 159.102 143.386 159.254 143.038 159.893L142.129 161.57C141.781 162.21 141.17 162.365 140.771 161.907L132.25 152.174C131.85 151.719 131.811 150.82 132.156 150.18L133.065 148.503C133.413 147.864 133.371 146.964 132.972 146.51L129.434 142.469C129.035 142.015 128.996 141.116 129.341 140.476L130.25 138.799C130.597 138.159 130.555 137.26 130.156 136.805L129.115 135.613C128.715 135.159 128.676 134.26 129.024 133.614L132.107 127.924C132.455 127.284 132.413 126.385 132.013 125.928L130.972 124.739C130.573 124.281 130.531 123.382 130.879 122.739L138.309 109.022C138.657 108.383 139.268 108.228 139.667 108.685L140.709 109.874C141.108 110.331 141.721 110.18 142.067 109.537L145.149 103.847C145.498 103.201 146.108 103.049 146.508 103.504L147.549 104.696C147.949 105.15 148.559 104.998 148.907 104.358L149.816 102.682C150.164 102.042 150.775 101.887 151.171 102.344L154.708 106.385C155.108 106.839 155.718 106.687 156.067 106.042L156.973 104.367C157.321 103.722 157.931 103.57 158.331 104.024L166.852 113.758C167.251 114.215 167.293 115.115 166.945 115.758L166.039 117.432C165.691 118.077 165.733 118.974 166.129 119.431L169.664 123.468C170.064 123.922 170.103 124.822 169.758 125.462L168.849 127.139C168.501 127.778 168.543 128.678 168.945 129.135L169.987 130.327C170.386 130.781 170.425 131.681 170.077 132.326L166.994 138.017C166.646 138.656 166.688 139.556 167.088 140.01L168.129 141.202L168.126 141.202Z" fill="#FF4085" stroke="black" stroke-linecap="round" stroke-linejoin="round"/>
<path d="M152.849 117.252C153.249 117.707 153.288 118.606 152.943 119.246L151.403 122.09L149.23 126.1L147.69 128.944C147.342 129.59 146.731 129.741 146.331 129.287L145.29 128.095C144.89 127.641 144.851 126.742 145.2 126.096L146.74 123.252L148.913 119.242L150.453 116.398C150.801 115.758 151.411 115.604 151.811 116.061L152.852 117.253L152.849 117.252Z" fill="black"/>
<path d="M160.328 125.798C160.728 126.255 160.77 127.154 160.425 127.794L158.885 130.638L156.712 134.649L155.172 137.492C154.823 138.138 154.213 138.29 153.811 137.832L152.769 136.643C152.37 136.186 152.328 135.286 152.676 134.644L154.216 131.8L156.389 127.79L157.929 124.946C158.277 124.306 158.887 124.151 159.287 124.609L160.328 125.798Z" fill="black"/>
<path d="M141.664 130.456C142.064 130.91 142.103 131.809 141.754 132.455L140.215 135.299L138.449 133.28C138.049 132.826 138.01 131.926 138.359 131.281L139.264 129.607C139.613 128.961 140.223 128.809 140.623 129.264L141.664 130.456Z" fill="black"/>
<path d="M150.187 146.692L148.647 149.536C148.299 150.175 147.689 150.33 147.289 149.873L145.523 147.854L143.03 145.006L140.537 142.158L138.772 140.139C138.372 139.685 138.333 138.786 138.678 138.146L140.218 135.302L142.711 138.15L145.204 140.999L147.697 143.847L150.19 146.695L150.187 146.692Z" fill="black"/>
<path d="M154.129 144.697C154.529 145.151 154.568 146.05 154.22 146.696L153.314 148.37C152.965 149.016 152.355 149.168 151.955 148.713L150.19 146.695L151.729 143.851C152.078 143.205 152.688 143.054 153.088 143.508L154.129 144.7L154.129 144.697Z" fill="black"/>
<path d="M178.901 144.482C179.249 143.842 179.207 142.943 178.807 142.489L177.766 141.297C177.366 140.842 177.327 139.943 177.672 139.303L180.755 133.613C181.103 132.967 181.061 132.071 180.665 131.614L179.623 130.422C179.224 129.965 179.182 129.065 179.527 128.425L180.436 126.748C180.784 126.109 180.742 125.209 180.342 124.755L176.808 120.717C176.408 120.263 176.369 119.364 176.717 118.718L177.626 117.044C177.974 116.399 177.932 115.502 177.533 115.045L169.012 105.311C168.879 105.158 168.718 105.073 168.557 105.053L157.876 103.766C158.041 103.786 158.199 103.87 158.332 104.024L166.853 113.758C167.252 114.215 167.294 115.115 166.946 115.757L166.037 117.431C165.689 118.077 165.731 118.973 166.127 119.43L169.662 123.467C170.062 123.922 170.101 124.821 169.756 125.461L168.847 127.138C168.499 127.777 168.541 128.677 168.943 129.134L169.984 130.326C170.384 130.781 170.423 131.68 170.075 132.326L166.992 138.016C166.644 138.655 166.686 139.555 167.086 140.009L168.127 141.201C168.527 141.656 168.566 142.555 168.221 143.195L160.79 156.912C160.559 157.34 160.211 157.552 159.887 157.513L170.568 158.8C170.891 158.839 171.237 158.627 171.47 158.202L178.901 144.485L178.901 144.482Z" fill="#FF4085" stroke="black" stroke-linecap="round" stroke-linejoin="round"/>
<path d="M159.888 157.513C160.211 157.552 160.557 157.34 160.791 156.912L168.221 143.195L178.901 144.482L171.471 158.199C171.24 158.628 170.894 158.837 170.568 158.797L159.888 157.51L159.888 157.513Z" fill="black"/>
<path d="M176.808 120.717C176.408 120.263 176.369 119.364 176.718 118.718L177.626 117.044L166.946 115.757L166.037 117.431C165.689 118.076 165.731 118.973 166.128 119.43L176.808 120.717Z" fill="black"/>
<path d="M179.62 130.424C179.22 129.967 179.179 129.067 179.524 128.427L180.432 126.75L169.752 125.463L168.843 127.14C168.495 127.78 168.537 128.679 168.94 129.137L179.62 130.424Z" fill="black"/>
<path d="M177.766 141.297C177.366 140.842 177.327 139.943 177.672 139.303L180.755 133.613L170.074 132.325L166.992 138.016C166.644 138.655 166.686 139.555 167.085 140.009L177.766 141.297Z" fill="black"/>
<path d="M130.997 46.0352L131.156 40.6957C131.099 42.5941 131.922 44.5236 133.658 46.0776L133.5 51.4171C131.766 49.8655 130.94 47.9377 130.997 46.0352Z" fill="#A56CFE" stroke="black" stroke-miterlimit="10"/>
<path d="M205.149 109.987L204.99 115.327L133.5 51.4175L133.658 46.078L205.149 109.987Z" fill="#A56CFE" stroke="black" stroke-miterlimit="10"/>
<path d="M286.994 64.1661L286.835 69.5056L218.98 116.129L219.138 110.79L286.994 64.1661Z" fill="black" stroke="black" stroke-miterlimit="10"/>
<path d="M216.319 -10.7188C212.681 -13.9705 206.419 -14.3275 202.331 -11.5191L134.476 35.1044C130.388 37.9128 130.024 42.8268 133.66 46.076L189.854 96.3124L272.513 39.5176L216.319 -10.7188Z" fill="#D0F500" stroke="black" stroke-miterlimit="10"/>
<path d="M216.319 -10.7188C212.681 -13.9705 206.419 -14.3275 202.331 -11.5191L134.476 35.1044C130.388 37.9128 130.024 42.8268 133.66 46.076L189.854 96.3124L272.513 39.5176L216.319 -10.7188Z" fill="black" stroke="black" stroke-miterlimit="10"/>
<path d="M234.528 62.0458L225.468 68.2709L224.912 67.8273C224.46 67.4667 224.481 66.9026 224.959 66.5741L232.288 61.5388C232.763 61.212 233.525 61.2383 233.975 61.6005L234.531 62.0441L234.528 62.0458Z" fill="#302247"/>
<path d="M154.303 21.4808L146.883 57.8994L154.681 64.8698L165.019 14.118L154.303 21.4808Z" fill="#A66CFF"/>
<path d="M157.028 66.5845L168.016 12.644" stroke="#A66CFF" stroke-linecap="round" stroke-linejoin="round"/>
<path d="M210.723 -6.31328C210.088 -6.88218 208.988 -6.95212 208.285 -6.46953L140.083 40.392C139.379 40.8762 139.323 41.7363 139.963 42.306L188.934 86.0851C189.569 86.654 190.669 86.7239 191.371 86.2413L259.571 39.3815C260.276 38.8972 260.331 38.0371 259.692 37.4675L210.72 -6.3116L210.723 -6.31328Z" fill="#D0F500" stroke="black" stroke-miterlimit="10"/>
<path d="M205.149 109.986C208.787 113.238 215.051 113.597 219.138 110.789L286.994 64.1655C291.081 61.3571 291.446 56.4432 287.808 53.1915L272.511 39.5189L189.855 96.312L205.151 109.985L205.149 109.986Z" fill="white" stroke="black" stroke-miterlimit="10"/>
<path d="M219.138 110.79L218.98 116.129C214.893 118.938 208.629 118.578 204.991 115.326L205.149 109.987C208.787 113.239 215.051 113.598 219.138 110.79Z" fill="black" stroke="black" stroke-miterlimit="10"/>
<path d="M267.442 51.5427C270.359 49.5386 274.829 49.7952 277.423 52.1127C280.019 54.4327 279.756 57.9377 276.839 59.9418L266.258 67.2125C263.341 69.2165 258.871 68.9599 256.277 66.6424C253.681 64.3224 253.944 60.8174 256.861 58.8134L267.442 51.5427Z" stroke="black" stroke-miterlimit="10"/>
<path d="M182.76 74.2467L185.991 77.1356L182.357 79.6323L179.127 76.7434L182.76 74.2467Z" fill="black"/>
<path d="M186.394 71.7501L188.694 73.8066C189.207 74.2656 189.162 74.9573 188.596 75.3461L185.991 77.1357L182.761 74.2468L186.394 71.7501Z" fill="black"/>
<path d="M179.126 76.7436L182.357 79.6325L178.723 82.1292L176.423 80.0726C175.911 79.6136 175.956 78.9219 176.522 78.5332L179.124 76.7453L179.126 76.7436Z" fill="black"/>
<path d="M190.429 63.8651L192.729 65.9216C193.242 66.3806 193.196 67.0723 192.63 67.4611L190.026 69.2507L186.795 66.3618L190.429 63.8651Z" fill="black"/>
<path d="M186.793 66.3637L190.024 69.2526L186.39 71.7493L184.09 69.6928C183.577 69.2338 183.623 68.5421 184.188 68.1533L186.791 66.3654L186.793 66.3637Z" fill="black"/>
<path d="M190.828 58.4784L193.13 60.5374C193.643 60.9964 193.597 61.6881 193.031 62.0769L190.429 63.8648L188.128 61.8058C187.615 61.3468 187.66 60.6551 188.226 60.2663L190.828 58.4784Z" fill="black"/>
<path d="M190.199 53.8025C190.765 53.4137 191.651 53.4694 192.162 53.926L194.461 55.9826L190.828 58.4793L188.528 56.4227C188.015 55.9637 188.06 55.272 188.626 54.8833L190.199 53.8025Z" fill="black"/>
<path d="M201.328 56.377L204.559 59.2659L201.956 61.0539C201.391 61.4426 200.505 61.3869 199.994 60.9303L197.694 58.8738L201.328 56.377Z" fill="black"/>
<path d="M197.064 54.194C197.63 53.8053 198.515 53.861 199.027 54.3175L201.328 56.3765L197.694 58.8733L194.462 55.9819L197.064 54.194Z" fill="black"/>
<path d="M204.964 53.8783L207.264 55.9348C207.777 56.3938 207.731 57.0855 207.166 57.4743L204.561 59.2639L201.33 56.375L204.964 53.8783Z" fill="black"/>
<path d="M198.898 42.7133L202.13 45.6046L198.496 48.1014L196.195 46.0424C195.682 45.5834 195.727 44.8917 196.293 44.5029L198.895 42.715L198.898 42.7133Z" fill="black"/>
<path d="M202.133 45.6031L205.363 48.492L201.729 50.9887L198.499 48.0999L202.133 45.6031Z" fill="black"/>
<path d="M205.363 48.492L207.665 50.551C208.178 51.01 208.132 51.7017 207.566 52.0905L204.964 53.8784L201.732 50.9871L205.366 48.4903L205.363 48.492Z" fill="black"/>
<path d="M193.232 26.1611L195.534 28.2201C196.047 28.6791 196.002 29.3708 195.436 29.7595L192.831 31.5491L190.53 29.4901C190.017 29.0311 190.062 28.3394 190.628 27.9507L193.232 26.1611Z" fill="black"/>
<path d="M192.602 21.481C193.168 21.0922 194.053 21.1479 194.564 21.6045L196.864 23.661L193.23 26.1578L190.931 24.1012C190.418 23.6422 190.463 22.9505 191.029 22.5618L192.602 21.481Z" fill="black"/>
<path d="M217.467 24.8421L219.767 26.8987C220.28 27.3577 220.235 28.0494 219.669 28.4381L217.064 30.2277L213.834 27.3389L217.467 24.8421Z" fill="black"/>
<path d="M213.831 27.3407L217.062 30.2296L214.46 32.0175C213.894 32.4062 213.008 32.3505 212.497 31.894L210.198 29.8374L213.831 27.3407Z" fill="black"/>
<path d="M217.867 19.4553L221.099 22.3466L217.465 24.8433L215.164 22.7843C214.651 22.3253 214.696 21.6336 215.262 21.2449L217.864 19.4569L217.867 19.4553Z" fill="black"/>
<path d="M221.5 16.9591L223.802 19.0181C224.315 19.4771 224.269 20.1688 223.703 20.5575L221.099 22.3471L217.866 19.4558L221.5 16.9591Z" fill="black"/>
<path d="M221.9 11.5749L224.2 13.6314C224.713 14.0904 224.668 14.7821 224.102 15.1709L221.5 16.9588L219.2 14.9022C218.687 14.4432 218.732 13.7515 219.298 13.3628L221.9 11.5749Z" fill="black"/>
<path d="M221.271 6.89572C221.837 6.50696 222.722 6.56268 223.233 7.01923L224.602 8.24347C225.115 8.70247 225.07 9.39417 224.504 9.78292L221.902 11.5708L219.6 9.51185C219.088 9.05285 219.133 8.36115 219.699 7.9724L221.272 6.8916L221.271 6.89572Z" fill="black"/>
<path d="M199.296 37.327L201.596 39.3835C202.109 39.8425 202.063 40.5342 201.498 40.923L198.896 42.7109L195.665 39.822L199.299 37.3253L199.296 37.327Z" fill="black"/>
<path d="M199.47 21.8744C200.036 21.4857 200.922 21.5414 201.433 21.9979L203.734 24.0569L200.101 26.5537L196.868 23.6624L199.473 21.8727L199.47 21.8744Z" fill="black"/>
<path d="M203.734 24.057L206.965 26.9459L203.331 29.4426L200.101 26.5537L203.734 24.057Z" fill="black"/>
<path d="M206.965 26.9462L210.197 29.8375L207.593 31.6271C207.027 32.0158 206.141 31.9601 205.63 31.5036L203.329 29.4446L206.962 26.9478L206.965 26.9462Z" fill="black"/>
<path d="M192.833 31.5466L196.063 34.4354L192.43 36.9322L190.13 34.8756C189.617 34.4166 189.662 33.7249 190.228 33.3362L192.83 31.5482L192.833 31.5466Z" fill="black"/>
<path d="M196.064 34.4356L199.297 37.327L195.665 39.822L192.43 36.9324L196.064 34.4356Z" fill="black"/>
<path d="M151.208 52.3606L152.184 51.6898" stroke="black" stroke-miterlimit="10"/>
<path d="M154.152 50.3376L220.01 5.08647" stroke="black" stroke-miterlimit="10" stroke-dasharray="6 8"/>
<path d="M220.993 4.41113L221.97 3.74038" stroke="black" stroke-miterlimit="10"/>
<path d="M180.755 12.2703L181.637 13.0579" stroke="black" stroke-miterlimit="10"/>
<path d="M183.35 14.5879L230.418 56.6627" stroke="black" stroke-miterlimit="10" stroke-dasharray="6 8"/>
<path d="M231.273 57.428L232.157 58.218" stroke="black" stroke-miterlimit="10"/>
<path d="M266.683 61.9967C266.75 59.7328 264.466 57.8278 261.582 57.7418C258.697 57.6558 256.304 59.4214 256.236 61.6854C256.169 63.9494 258.453 65.8544 261.337 65.9403C264.222 66.0263 266.615 64.2607 266.683 61.9967Z" fill="white" stroke="black" stroke-miterlimit="10"/>
<path d="M266.692 62.0072L266.651 63.3275C266.618 64.4237 266.027 65.5014 264.9 66.2756C262.744 67.7568 259.443 67.5659 257.526 65.8528C256.612 65.0342 256.175 64.0169 256.205 63.0159L256.246 61.6956C256.216 62.6965 256.65 63.7156 257.567 64.5325C259.485 66.248 262.787 66.4348 264.94 64.9552C266.067 64.1811 266.659 63.1034 266.692 62.0072Z" fill="black" stroke="black" stroke-miterlimit="10"/>
<path d="M277.262 54.7294C277.33 52.4654 275.046 50.5604 272.161 50.4745C269.276 50.3885 266.883 52.1541 266.816 54.4181C266.748 56.682 269.032 58.587 271.917 58.673C274.801 58.759 277.195 56.9934 277.262 54.7294Z" fill="#A66CFF" stroke="black" stroke-miterlimit="10"/>
<path d="M277.27 54.7389L277.23 56.0592C277.197 57.1554 276.605 58.2331 275.479 59.0073C273.323 60.4885 270.021 60.2976 268.105 58.5845C267.191 57.7659 266.754 56.7485 266.784 55.7476L266.824 54.4273C266.794 55.4282 267.229 56.4472 268.145 57.2642C270.064 58.9797 273.366 59.1665 275.519 57.6869C276.646 56.9128 277.237 55.8351 277.27 54.7389Z" fill="black" stroke="black" stroke-miterlimit="10"/>
<path d="M204.107 92.371C203.88 92.1673 203.77 91.9128 203.778 91.6632L203.728 93.2988C203.72 93.5484 203.828 93.8046 204.056 94.0066L207.627 97.1968L207.677 95.5612L204.107 92.371Z" fill="black" stroke="black" stroke-linecap="round" stroke-linejoin="round"/>
<path d="M221.113 93.3442L217.099 96.1024L217.049 97.738L221.063 94.9799C221.343 94.7872 221.489 94.5184 221.497 94.2474L221.547 92.6118C221.538 92.8869 221.391 93.1532 221.113 93.3442Z" fill="black" stroke="black" stroke-linecap="round" stroke-linejoin="round"/>
<path d="M208.103 102.283C207.569 102.65 206.741 102.605 206.26 102.178L203.559 99.7618C203.333 99.5582 203.223 99.3037 203.231 99.054L203.18 100.69C203.172 100.939 203.28 101.195 203.509 101.397L206.21 103.814C206.686 104.24 207.516 104.288 208.053 103.919L212.064 101.163L212.114 99.527L208.103 102.283Z" fill="black" stroke="black" stroke-linecap="round" stroke-linejoin="round"/>
<path d="M207.25 88.8389C207.787 88.4702 208.612 88.5169 209.093 88.9444L212.663 92.1346L216.677 89.3765C217.211 89.0095 218.037 89.0562 218.517 89.4836L221.219 91.8998C221.695 92.3265 221.649 92.9755 221.115 93.3425L217.101 96.1006L220.671 99.2909C221.148 99.7176 221.102 100.367 220.565 100.735L217.527 102.823C216.992 103.19 216.165 103.145 215.684 102.718L212.114 99.5273L208.102 102.284C207.568 102.651 206.74 102.606 206.259 102.178L203.558 99.7621C203.082 99.3355 203.13 98.6848 203.664 98.3178L207.676 95.5613L204.105 92.3711C203.629 91.9444 203.677 91.2937 204.212 90.9267L207.25 88.8389Z" fill="black" stroke="black" stroke-linecap="round" stroke-linejoin="round"/>
<path d="M220.562 100.735L217.523 102.823C216.989 103.189 216.161 103.144 215.681 102.717L212.11 99.5268L212.06 101.162L215.631 104.353C216.107 104.779 216.937 104.827 217.473 104.458L220.512 102.37C220.792 102.178 220.94 101.907 220.946 101.634L220.996 99.9981C220.988 100.273 220.842 100.542 220.562 100.735Z" fill="black" stroke="black" stroke-linecap="round" stroke-linejoin="round"/>
<path d="M220.561 100.735L217.523 102.823C216.989 103.19 216.161 103.145 215.68 102.717L212.11 99.5269L208.098 102.283C207.564 102.65 206.736 102.605 206.255 102.178L203.554 99.7617" stroke="#EBE9E9" stroke-linecap="round" stroke-linejoin="round"/>
<path d="M221.113 93.3439L217.099 96.1021" stroke="#EBE9E9" stroke-linecap="round" stroke-linejoin="round"/>
<path d="M207.677 95.5616L204.106 92.3713" stroke="#EBE9E9" stroke-linecap="round" stroke-linejoin="round"/>
<path d="M238.551 86.6747C238.763 86.5293 238.817 86.2399 238.671 86.0282C238.526 85.8166 238.236 85.763 238.025 85.9084C237.813 86.0538 237.759 86.3432 237.905 86.5548C238.05 86.7664 238.34 86.8201 238.551 86.6747Z" fill="black"/>
<path d="M243.782 83.08C243.993 82.9346 244.047 82.6451 243.902 82.4335C243.756 82.2219 243.467 82.1682 243.255 82.3136C243.044 82.459 242.99 82.7484 243.135 82.9601C243.281 83.1717 243.57 83.2254 243.782 83.08Z" fill="black"/>
<path d="M249.013 79.486C249.225 79.3406 249.279 79.0511 249.133 78.8395C248.988 78.6279 248.698 78.5742 248.487 78.7196C248.275 78.865 248.221 79.1545 248.367 79.3661C248.512 79.5777 248.802 79.6314 249.013 79.486Z" fill="black"/>
<path d="M254.242 75.8934C254.454 75.748 254.508 75.4586 254.362 75.247C254.217 75.0354 253.927 74.9817 253.716 75.1271C253.504 75.2725 253.45 75.5619 253.596 75.7735C253.741 75.9852 254.031 76.0388 254.242 75.8934Z" fill="black"/>
<path d="M233.977 82.5829C234.189 82.4375 234.243 82.1481 234.097 81.9365C233.952 81.7248 233.662 81.6712 233.451 81.8166C233.239 81.962 233.185 82.2514 233.331 82.463C233.476 82.6746 233.766 82.7283 233.977 82.5829Z" fill="black"/>
<path d="M239.206 78.9899C239.417 78.8445 239.471 78.5551 239.326 78.3434C239.18 78.1318 238.891 78.0781 238.679 78.2235C238.468 78.3689 238.414 78.6584 238.559 78.87C238.705 79.0816 238.994 79.1353 239.206 78.9899Z" fill="black"/>
<path d="M244.437 75.3956C244.648 75.2502 244.702 74.9608 244.557 74.7492C244.411 74.5376 244.122 74.4839 243.91 74.6293C243.699 74.7747 243.645 75.0641 243.79 75.2757C243.936 75.4874 244.225 75.541 244.437 75.3956Z" fill="black"/>
<path d="M249.668 71.8021C249.88 71.6567 249.934 71.3673 249.788 71.1557C249.643 70.9441 249.353 70.8904 249.142 71.0358C248.93 71.1812 248.876 71.4706 249.022 71.6822C249.167 71.8939 249.457 71.9475 249.668 71.8021Z" fill="black"/>
<path d="M229.401 78.4938C229.612 78.3484 229.666 78.059 229.521 77.8473C229.375 77.6357 229.086 77.582 228.874 77.7274C228.663 77.8729 228.609 78.1623 228.754 78.3739C228.9 78.5855 229.189 78.6392 229.401 78.4938Z" fill="black"/>
<path d="M234.632 74.8988C234.843 74.7534 234.897 74.464 234.752 74.2524C234.606 74.0408 234.317 73.9871 234.105 74.1325C233.894 74.2779 233.84 74.5673 233.985 74.7789C234.131 74.9905 234.42 75.0442 234.632 74.8988Z" fill="black"/>
<path d="M239.86 71.3063C240.072 71.1609 240.125 70.8715 239.98 70.6598C239.835 70.4482 239.545 70.3946 239.334 70.54C239.122 70.6854 239.068 70.9748 239.214 71.1864C239.359 71.398 239.649 71.4517 239.86 71.3063Z" fill="black"/>
<path d="M245.092 67.7123C245.303 67.5669 245.357 67.2775 245.211 67.0658C245.066 66.8542 244.777 66.8006 244.565 66.946C244.353 67.0914 244.3 67.3808 244.445 67.5924C244.591 67.804 244.88 67.8577 245.092 67.7123Z" fill="black"/>
<path d="M257.817 86.6039C257.63 86.435 257.331 86.4499 256.99 86.6845L251.961 90.1397C251.368 90.5469 250.866 91.4666 250.846 92.1842C250.836 92.4888 250.914 92.7077 251.053 92.8313L256.315 97.5269L263.084 91.3003L257.822 86.6047L257.817 86.6039Z" fill="#EBE9E9" stroke="black" stroke-miterlimit="10"/>
<path d="M262.247 91.379C262.84 90.9718 263.306 91.2263 263.285 91.9439C263.265 92.6615 262.763 93.5813 262.17 93.9884L257.141 97.4437C256.549 97.8508 256.083 97.5964 256.103 96.8787C256.124 96.1611 256.626 95.2414 257.219 94.8342L262.247 91.379Z" fill="#EBE9E9" stroke="black" stroke-miterlimit="10"/>
<path d="M332.354 183.065C328.442 185.752 323.693 187.436 318.473 187.932C309.971 188.736 300.831 186.364 292.039 181.071C282.209 175.156 276.862 168.461 275.216 160.01C273.663 152.038 275.545 142.807 277.367 133.88C279.923 121.361 280.8 114.439 270.99 106.119L259.475 96.3502C258.802 95.7785 258.72 94.7718 259.29 94.0965C259.862 93.4237 260.869 93.3423 261.544 93.9123L273.06 103.681C278.42 108.227 281.177 112.637 282.007 117.983C282.754 122.811 281.854 127.881 280.5 134.516C278.66 143.532 276.923 152.049 278.356 159.397C279.84 167.001 284.568 172.842 293.689 178.332C301.892 183.269 310.356 185.488 318.173 184.748C325.154 184.087 331.164 181.071 335.092 176.261C338.711 171.825 340.269 166.296 339.594 160.272C338.838 153.518 335.235 146.466 329.176 139.88L307.366 116.168C302.788 111.193 300.746 104.558 301.613 97.4816C302.442 90.73 305.899 84.5999 310.618 81.4789L317.093 77.2853C317.83 76.8006 318.617 77.1425 319.102 77.8793C319.582 78.6088 319.595 79.4433 318.878 79.9359C318.871 79.941 318.861 79.9477 318.854 79.9527L312.379 84.1463C308.412 86.7642 305.505 92.0216 304.787 97.868C304.037 103.998 305.788 109.728 309.719 114.002L331.529 137.714C338.052 144.803 341.939 152.482 342.774 159.915C343.536 166.715 341.688 173.237 337.571 178.28C336.076 180.112 334.326 181.713 332.363 183.062L332.354 183.065Z" fill="black"/>
<path d="M258.795 95.8117C258.473 95.52 258.693 94.7544 259.288 94.0985C259.879 93.4443 260.621 93.1499 260.944 93.4417L261.539 93.9159L259.472 96.3521L258.795 95.8117Z" fill="black"/>
</g>
<path d="M27.368 120.2V106.045H31.985C33.4797 106.045 34.778 106.349 35.88 106.957C36.9947 107.553 37.856 108.382 38.464 109.446C39.072 110.498 39.376 111.72 39.376 113.113C39.376 114.494 39.072 115.723 38.464 116.799C37.856 117.863 36.9947 118.699 35.88 119.307C34.778 119.903 33.4797 120.2 31.985 120.2H27.368ZM29.952 117.92H32.042C33.0047 117.92 33.8343 117.724 34.531 117.331C35.2403 116.926 35.7913 116.369 36.184 115.659C36.5767 114.937 36.773 114.089 36.773 113.113C36.773 112.125 36.5767 111.277 36.184 110.567C35.7913 109.858 35.2403 109.307 34.531 108.914C33.8343 108.522 33.0047 108.325 32.042 108.325H29.952V117.92ZM41.2235 120.2V109.864H43.7125V120.2H41.2235ZM41.2235 108.705V106.045H43.7125V108.705H41.2235ZM49.9436 120.428C48.8416 120.428 47.8789 120.169 47.0556 119.649C46.2449 119.117 45.6876 118.402 45.3836 117.502L47.2456 116.609C47.5116 117.192 47.8789 117.648 48.3476 117.977C48.8289 118.307 49.3609 118.471 49.9436 118.471C50.3996 118.471 50.7606 118.37 51.0266 118.167C51.2926 117.965 51.4256 117.699 51.4256 117.369C51.4256 117.167 51.3686 117.002 51.2546 116.875C51.1532 116.736 51.0076 116.622 50.8176 116.533C50.6402 116.432 50.4439 116.35 50.2286 116.286L48.5376 115.811C47.6636 115.558 46.9986 115.172 46.5426 114.652C46.0992 114.133 45.8776 113.519 45.8776 112.809C45.8776 112.176 46.0359 111.625 46.3526 111.156C46.6819 110.675 47.1316 110.301 47.7016 110.035C48.2842 109.769 48.9492 109.636 49.6966 109.636C50.6719 109.636 51.5332 109.871 52.2806 110.339C53.0279 110.808 53.5599 111.467 53.8766 112.315L51.9766 113.208C51.7992 112.74 51.5016 112.366 51.0836 112.087C50.6656 111.809 50.1969 111.669 49.6776 111.669C49.2596 111.669 48.9302 111.764 48.6896 111.954C48.4489 112.144 48.3286 112.391 48.3286 112.695C48.3286 112.885 48.3792 113.05 48.4806 113.189C48.5819 113.329 48.7212 113.443 48.8986 113.531C49.0886 113.62 49.3039 113.702 49.5446 113.778L51.1976 114.272C52.0462 114.526 52.6986 114.906 53.1546 115.412C53.6232 115.919 53.8576 116.54 53.8576 117.274C53.8576 117.895 53.6929 118.446 53.3636 118.927C53.0342 119.396 52.5782 119.763 51.9956 120.029C51.4129 120.295 50.7289 120.428 49.9436 120.428ZM60.7483 120.428C59.7223 120.428 58.7977 120.194 57.9743 119.725C57.1637 119.244 56.524 118.598 56.0553 117.787C55.5867 116.964 55.3523 116.039 55.3523 115.013C55.3523 113.987 55.5867 113.069 56.0553 112.258C56.524 111.448 57.1637 110.808 57.9743 110.339C58.7977 109.871 59.7223 109.636 60.7483 109.636C61.483 109.636 62.167 109.769 62.8003 110.035C63.4337 110.289 63.9783 110.643 64.4343 111.099C64.903 111.543 65.2387 112.075 65.4413 112.695L63.2563 113.645C63.0663 113.126 62.7433 112.708 62.2873 112.391C61.844 112.075 61.331 111.916 60.7483 111.916C60.2037 111.916 59.716 112.049 59.2853 112.315C58.8673 112.581 58.538 112.949 58.2973 113.417C58.0567 113.886 57.9363 114.424 57.9363 115.032C57.9363 115.64 58.0567 116.179 58.2973 116.647C58.538 117.116 58.8673 117.483 59.2853 117.749C59.716 118.015 60.2037 118.148 60.7483 118.148C61.3437 118.148 61.863 117.99 62.3063 117.673C62.7497 117.357 63.0663 116.932 63.2563 116.4L65.4413 117.388C65.2387 117.971 64.9093 118.497 64.4533 118.965C63.9973 119.421 63.4527 119.782 62.8193 120.048C62.186 120.302 61.4957 120.428 60.7483 120.428ZM72.3839 120.428C71.3706 120.428 70.4459 120.194 69.6099 119.725C68.7866 119.257 68.1279 118.617 67.6339 117.806C67.1526 116.996 66.9119 116.071 66.9119 115.032C66.9119 113.994 67.1526 113.069 67.6339 112.258C68.1279 111.448 68.7866 110.808 69.6099 110.339C70.4332 109.871 71.3579 109.636 72.3839 109.636C73.3972 109.636 74.3156 109.871 75.1389 110.339C75.9622 110.808 76.6146 111.448 77.0959 112.258C77.5899 113.056 77.8369 113.981 77.8369 115.032C77.8369 116.071 77.5899 116.996 77.0959 117.806C76.6019 118.617 75.9432 119.257 75.1199 119.725C74.2966 120.194 73.3846 120.428 72.3839 120.428ZM72.3839 118.148C72.9412 118.148 73.4289 118.015 73.8469 117.749C74.2776 117.483 74.6132 117.116 74.8539 116.647C75.1072 116.166 75.2339 115.628 75.2339 115.032C75.2339 114.424 75.1072 113.892 74.8539 113.436C74.6132 112.968 74.2776 112.6 73.8469 112.334C73.4289 112.056 72.9412 111.916 72.3839 111.916C71.8139 111.916 71.3136 112.056 70.8829 112.334C70.4522 112.6 70.1102 112.968 69.8569 113.436C69.6162 113.892 69.4959 114.424 69.4959 115.032C69.4959 115.628 69.6162 116.166 69.8569 116.647C70.1102 117.116 70.4522 117.483 70.8829 117.749C71.3136 118.015 71.8139 118.148 72.3839 118.148ZM82.6549 120.2L78.5889 109.864H81.3059L84.2509 117.996H83.2439L86.2079 109.864H88.9249L84.8589 120.2H82.6549ZM95.0171 120.428C93.9531 120.428 93.0221 120.188 92.2241 119.706C91.4261 119.225 90.8054 118.573 90.3621 117.749C89.9187 116.926 89.6971 116.014 89.6971 115.013C89.6971 113.975 89.9187 113.056 90.3621 112.258C90.8181 111.448 91.4324 110.808 92.2051 110.339C92.9904 109.871 93.8644 109.636 94.8271 109.636C95.6377 109.636 96.3471 109.769 96.9551 110.035C97.5757 110.301 98.1014 110.669 98.5321 111.137C98.9627 111.606 99.2921 112.144 99.5201 112.752C99.7481 113.348 99.8621 113.994 99.8621 114.69C99.8621 114.868 99.8494 115.051 99.8241 115.241C99.8114 115.431 99.7797 115.596 99.7291 115.735H91.7491V113.835H98.3231L97.1451 114.728C97.2591 114.146 97.2274 113.626 97.0501 113.17C96.8854 112.714 96.6067 112.353 96.2141 112.087C95.8341 111.821 95.3717 111.688 94.8271 111.688C94.3077 111.688 93.8454 111.821 93.4401 112.087C93.0347 112.341 92.7244 112.721 92.5091 113.227C92.3064 113.721 92.2304 114.323 92.2811 115.032C92.2304 115.666 92.3127 116.229 92.5281 116.723C92.7561 117.205 93.0854 117.578 93.5161 117.844C93.9594 118.11 94.4661 118.243 95.0361 118.243C95.6061 118.243 96.0874 118.123 96.4801 117.882C96.8854 117.642 97.2021 117.319 97.4301 116.913L99.4441 117.901C99.2414 118.395 98.9247 118.832 98.4941 119.212C98.0634 119.592 97.5504 119.89 96.9551 120.105C96.3724 120.321 95.7264 120.428 95.0171 120.428ZM101.749 120.2V109.864H104.086V112.163L103.896 111.821C104.137 111.049 104.51 110.51 105.017 110.206C105.536 109.902 106.157 109.75 106.879 109.75H107.487V111.954H106.594C105.885 111.954 105.315 112.176 104.884 112.619C104.453 113.05 104.238 113.658 104.238 114.443V120.2H101.749ZM27.368 144.2V130.045H31.985C33.4797 130.045 34.778 130.349 35.88 130.957C36.9947 131.553 37.856 132.382 38.464 133.446C39.072 134.498 39.376 135.72 39.376 137.113C39.376 138.494 39.072 139.723 38.464 140.799C37.856 141.863 36.9947 142.699 35.88 143.307C34.778 143.903 33.4797 144.2 31.985 144.2H27.368ZM29.952 141.92H32.042C33.0047 141.92 33.8343 141.724 34.531 141.331C35.2403 140.926 35.7913 140.369 36.184 139.659C36.5767 138.937 36.773 138.089 36.773 137.113C36.773 136.125 36.5767 135.277 36.184 134.567C35.7913 133.858 35.2403 133.307 34.531 132.914C33.8343 132.522 33.0047 132.325 32.042 132.325H29.952V141.92ZM44.3213 144.428C43.5993 144.428 42.9723 144.308 42.4403 144.067C41.9083 143.827 41.4967 143.485 41.2053 143.041C40.914 142.585 40.7683 142.06 40.7683 141.464C40.7683 140.894 40.895 140.388 41.1483 139.944C41.4017 139.488 41.7943 139.108 42.3263 138.804C42.8583 138.5 43.5297 138.285 44.3403 138.158L47.7223 137.607V139.507L44.8153 140.001C44.3213 140.09 43.954 140.248 43.7133 140.476C43.4727 140.704 43.3523 141.002 43.3523 141.369C43.3523 141.724 43.4853 142.009 43.7513 142.224C44.03 142.427 44.372 142.528 44.7773 142.528C45.2967 142.528 45.7527 142.421 46.1453 142.205C46.5507 141.977 46.861 141.667 47.0763 141.274C47.3043 140.882 47.4183 140.451 47.4183 139.982V137.322C47.4183 136.879 47.241 136.512 46.8863 136.22C46.5443 135.916 46.0883 135.764 45.5183 135.764C44.9863 135.764 44.5113 135.91 44.0933 136.201C43.688 136.48 43.3903 136.854 43.2003 137.322L41.1673 136.334C41.37 135.79 41.6867 135.321 42.1173 134.928C42.5607 134.523 43.08 134.206 43.6753 133.978C44.2707 133.75 44.9167 133.636 45.6133 133.636C46.462 133.636 47.2093 133.795 47.8553 134.111C48.5013 134.415 49.0017 134.846 49.3563 135.403C49.7237 135.948 49.9073 136.588 49.9073 137.322V144.2H47.5513V142.433L48.0833 142.395C47.8173 142.839 47.5007 143.212 47.1333 143.516C46.766 143.808 46.348 144.036 45.8793 144.2C45.4107 144.352 44.8913 144.428 44.3213 144.428ZM52.2078 148V133.864H54.5448V135.916L54.3168 135.403C54.6715 134.846 55.1528 134.415 55.7608 134.111C56.3688 133.795 57.0718 133.636 57.8698 133.636C58.8452 133.636 59.7255 133.877 60.5108 134.358C61.2962 134.84 61.9168 135.486 62.3728 136.296C62.8415 137.107 63.0758 138.019 63.0758 139.032C63.0758 140.033 62.8478 140.945 62.3918 141.768C61.9358 142.592 61.3152 143.244 60.5298 143.725C59.7445 144.194 58.8515 144.428 57.8508 144.428C57.1035 144.428 56.4132 144.283 55.7798 143.991C55.1592 143.687 54.6652 143.257 54.2978 142.699L54.6968 142.205V148H52.2078ZM57.5658 142.148C58.1358 142.148 58.6425 142.015 59.0858 141.749C59.5292 141.483 59.8712 141.116 60.1118 140.647C60.3652 140.179 60.4918 139.64 60.4918 139.032C60.4918 138.424 60.3652 137.892 60.1118 137.436C59.8712 136.968 59.5292 136.6 59.0858 136.334C58.6425 136.056 58.1358 135.916 57.5658 135.916C57.0212 135.916 56.5272 136.049 56.0838 136.315C55.6532 136.581 55.3112 136.955 55.0578 137.436C54.8172 137.905 54.6968 138.437 54.6968 139.032C54.6968 139.64 54.8172 140.179 55.0578 140.647C55.3112 141.116 55.6532 141.483 56.0838 141.749C56.5272 142.015 57.0212 142.148 57.5658 142.148ZM64.9735 148V133.864H67.3105V135.916L67.0825 135.403C67.4371 134.846 67.9185 134.415 68.5265 134.111C69.1345 133.795 69.8375 133.636 70.6355 133.636C71.6108 133.636 72.4911 133.877 73.2765 134.358C74.0618 134.84 74.6825 135.486 75.1385 136.296C75.6071 137.107 75.8415 138.019 75.8415 139.032C75.8415 140.033 75.6135 140.945 75.1575 141.768C74.7015 142.592 74.0808 143.244 73.2955 143.725C72.5101 144.194 71.6171 144.428 70.6165 144.428C69.8691 144.428 69.1788 144.283 68.5455 143.991C67.9248 143.687 67.4308 143.257 67.0635 142.699L67.4625 142.205V148H64.9735ZM70.3315 142.148C70.9015 142.148 71.4081 142.015 71.8515 141.749C72.2948 141.483 72.6368 141.116 72.8775 140.647C73.1308 140.179 73.2575 139.64 73.2575 139.032C73.2575 138.424 73.1308 137.892 72.8775 137.436C72.6368 136.968 72.2948 136.6 71.8515 136.334C71.4081 136.056 70.9015 135.916 70.3315 135.916C69.7868 135.916 69.2928 136.049 68.8495 136.315C68.4188 136.581 68.0768 136.955 67.8235 137.436C67.5828 137.905 67.4625 138.437 67.4625 139.032C67.4625 139.64 67.5828 140.179 67.8235 140.647C68.0768 141.116 68.4188 141.483 68.8495 141.749C69.2928 142.015 69.7868 142.148 70.3315 142.148ZM81.6721 144.428C80.5701 144.428 79.6074 144.169 78.7841 143.649C77.9734 143.117 77.4161 142.402 77.1121 141.502L78.9741 140.609C79.2401 141.192 79.6074 141.648 80.0761 141.977C80.5574 142.307 81.0894 142.471 81.6721 142.471C82.1281 142.471 82.4891 142.37 82.7551 142.167C83.0211 141.965 83.1541 141.699 83.1541 141.369C83.1541 141.167 83.0971 141.002 82.9831 140.875C82.8817 140.736 82.7361 140.622 82.5461 140.533C82.3687 140.432 82.1724 140.35 81.9571 140.286L80.2661 139.811C79.3921 139.558 78.7271 139.172 78.2711 138.652C77.8277 138.133 77.6061 137.519 77.6061 136.809C77.6061 136.176 77.7644 135.625 78.0811 135.156C78.4104 134.675 78.8601 134.301 79.4301 134.035C80.0127 133.769 80.6777 133.636 81.4251 133.636C82.4004 133.636 83.2617 133.871 84.0091 134.339C84.7564 134.808 85.2884 135.467 85.6051 136.315L83.7051 137.208C83.5277 136.74 83.2301 136.366 82.8121 136.087C82.3941 135.809 81.9254 135.669 81.4061 135.669C80.9881 135.669 80.6587 135.764 80.4181 135.954C80.1774 136.144 80.0571 136.391 80.0571 136.695C80.0571 136.885 80.1077 137.05 80.2091 137.189C80.3104 137.329 80.4497 137.443 80.6271 137.531C80.8171 137.62 81.0324 137.702 81.2731 137.778L82.9261 138.272C83.7747 138.526 84.4271 138.906 84.8831 139.412C85.3517 139.919 85.5861 140.54 85.5861 141.274C85.5861 141.895 85.4214 142.446 85.0921 142.927C84.7627 143.396 84.3067 143.763 83.7241 144.029C83.1414 144.295 82.4574 144.428 81.6721 144.428Z" fill="black"/>
<defs>
<filter id="filter0_i_1_5128" x="0" y="0.200195" width="281" height="174" filterUnits="userSpaceOnUse" color-interpolation-filters="sRGB">
<feFlood flood-opacity="0" result="BackgroundImageFix"/>
<feBlend mode="normal" in="SourceGraphic" in2="BackgroundImageFix" result="shape"/>
<feColorMatrix in="SourceAlpha" type="matrix" values="0 0 0 0 0 0 0 0 0 0 0 0 0 0 0 0 0 0 127 0" result="hardAlpha"/>
<feOffset dy="2"/>
<feComposite in2="hardAlpha" operator="arithmetic" k2="-1" k3="1"/>
<feColorMatrix type="matrix" values="0 0 0 0 1 0 0 0 0 1 0 0 0 0 1 0 0 0 1 0"/>
<feBlend mode="normal" in2="shape" result="effect1_innerShadow_1_5128"/>
</filter>
</defs>
</svg>
