<svg width="281" height="175" viewBox="0 0 281 175" fill="none" xmlns="http://www.w3.org/2000/svg">
<g filter="url(#filter0_i_1_4958)">
<rect y="0.200195" width="281" height="174" rx="20" fill="#FFEDED"/>
</g>
<rect x="0.5" y="0.700195" width="280" height="173" rx="19.5" stroke="black"/>
<mask id="mask0_1_4958" style="mask-type:alpha" maskUnits="userSpaceOnUse" x="1" y="2" width="278" height="171">
<path d="M1 20.2002C1 10.2591 9.05887 2.2002 19 2.2002H261C270.941 2.2002 279 10.2591 279 20.2002V154.935C279 164.876 270.941 172.935 261 172.935H19C9.05888 172.935 1 164.876 1 154.935V20.2002Z" fill="#FFF2D0"/>
</mask>
<g mask="url(#mask0_1_4958)">
<path d="M278.21 85.2703L198.972 63.3281V123.193L278.21 141.651V85.2703Z" fill="black"/>
<path d="M216.572 68.7216C211.544 67.3728 204.897 75.5569 201.725 87.0047C198.554 98.4524 200.059 108.826 205.087 110.175L266.726 126.726L278.211 85.2729L216.572 68.7216Z" fill="#FF4085" stroke="black" stroke-linecap="round" stroke-linejoin="round"/>
<path d="M281.622 108.481C284.794 97.0343 283.291 86.6602 278.265 85.3102C273.238 83.9602 266.592 92.1455 263.419 103.593C260.247 115.04 261.75 125.414 266.777 126.764C271.803 128.114 278.45 119.928 281.622 108.481Z" fill="#A66CFF" stroke="black" stroke-linecap="round" stroke-linejoin="round"/>
<path d="M276.771 107.179C278.253 101.831 277.551 96.985 275.204 96.3544C272.856 95.7239 269.751 99.5479 268.269 104.895C266.788 110.243 267.489 115.089 269.837 115.72C272.185 116.35 275.289 112.526 276.771 107.179Z" stroke="black" stroke-linecap="round" stroke-linejoin="round"/>
<path d="M178.312 149.618L251.799 166.215L272.472 133.341V80.7358L263.795 58.3107L311.4 29.1211L320.102 51.5794C320.736 53.2154 320.537 55.0512 319.569 56.5207L298.68 88.1997C297.835 89.486 295.949 90.9846 294.494 91.5299L287.517 94.1483V135.685C287.517 140.83 285.187 148.573 282.341 152.89L263.808 180.993C260.962 185.31 254.505 187.732 249.461 186.38L195.116 171.789C190.071 170.436 184.422 165.391 182.557 160.583L178.713 150.667L178.303 149.609L178.312 149.618Z" fill="white" stroke="black" stroke-linecap="round" stroke-linejoin="round"/>
<path d="M255.175 183.653L249.39 168.721" stroke="black" stroke-linecap="round" stroke-linejoin="round"/>
<path d="M196.884 51.2549V107.902C196.884 111.999 195.032 118.16 192.766 121.594L178.947 142.549C176.101 146.866 177.898 151.508 182.943 152.861L242.624 168.883C247.669 170.236 254.122 167.814 256.972 163.497L271.598 141.313C273.416 138.553 274.905 133.608 274.905 130.319V72.2063L196.884 51.259V51.2549ZM270.778 127.409C270.778 129.378 269.196 130.569 267.268 130.049L204.284 113.139C202.352 112.619 200.775 110.583 200.775 108.614V73.476C200.775 71.5069 202.356 70.3164 204.284 70.8367L267.268 87.7461C269.2 88.2664 270.778 90.302 270.778 92.271V127.409Z" fill="#EBE9E9" stroke="black" stroke-linecap="round" stroke-linejoin="round"/>
<path d="M243.833 133.628C243.38 134.315 243.668 135.051 244.467 135.268L260.73 139.635C261.533 139.851 262.556 139.464 263.009 138.777L265.254 135.368C265.707 134.681 265.419 133.944 264.62 133.728L248.357 129.361C247.554 129.144 246.53 129.532 246.078 130.218L243.833 133.628Z" fill="#EBE9E9" stroke="black" stroke-linecap="round" stroke-linejoin="round"/>
<path d="M238.839 141.201C238.387 141.888 238.674 142.625 239.473 142.841L255.736 147.208C256.54 147.424 257.563 147.037 258.015 146.35L260.261 142.941C260.713 142.254 260.426 141.517 259.626 141.301L243.364 136.934C242.56 136.718 241.537 137.105 241.084 137.792L238.839 141.201Z" fill="#EBE9E9" stroke="black" stroke-linecap="round" stroke-linejoin="round"/>
<path d="M233.846 148.772C233.393 149.459 233.681 150.196 234.48 150.412L250.743 154.779C251.546 154.996 252.57 154.609 253.022 153.922L255.267 150.512C255.72 149.825 255.432 149.089 254.633 148.872L238.37 144.505C237.567 144.289 236.544 144.676 236.091 145.363L233.846 148.772Z" fill="#EBE9E9" stroke="black" stroke-linecap="round" stroke-linejoin="round"/>
<path d="M228.855 156.345C228.402 157.031 228.69 157.768 229.489 157.985L245.752 162.351C246.555 162.568 247.579 162.181 248.031 161.494L250.276 158.085C250.729 157.398 250.441 156.661 249.642 156.444L233.379 152.078C232.576 151.861 231.553 152.248 231.1 152.935L228.855 156.345Z" fill="#EBE9E9" stroke="black" stroke-linecap="round" stroke-linejoin="round"/>
<path d="M213.607 41.0098L205.171 41.7549L205.632 42.8747L280.405 62.9519L289.767 62.1235C290.942 62.0195 292.008 61.3909 292.65 60.4126L311.032 32.5343C311.7 31.5186 311.835 30.2531 311.4 29.1249L310.072 25.699C309.636 24.5708 308.677 23.7133 307.493 23.3969L243.841 6.30859L234.073 9.97603L213.607 41.0139V41.0098Z" fill="#EBE9E9" stroke="black" stroke-linecap="round" stroke-linejoin="round"/>
<path d="M215.646 41.3718L207.679 42.0753L208.115 43.1327L278.722 62.0901L287.767 61.2908C288.748 61.2034 289.636 60.6789 290.173 59.863L308.867 31.5143C309.134 31.1105 309.193 30.6068 309.028 30.153L307.628 26.2733C307.455 25.7946 307.058 25.4324 306.559 25.2992L244.218 8.56055L234.995 12.024L215.646 41.3718Z" fill="#A66CFF" stroke="black" stroke-linecap="round" stroke-linejoin="round"/>
<path d="M290.321 55.309L268.125 49.3478L279.225 32.5176L301.421 38.4787L290.321 55.309Z" fill="black" stroke="black" stroke-linecap="round" stroke-linejoin="round"/>
<path d="M278.33 30.2031L267.23 47.0375L268.126 49.3479L290.322 55.309L301.421 38.4788L300.525 36.1643L278.33 30.2031Z" fill="black" stroke="black" stroke-linecap="round" stroke-linejoin="round"/>
<path d="M252.983 43.8728L249.761 48.7558L250.15 49.7465L252.835 50.4708L256.053 45.5879L255.668 44.593L252.983 43.8728Z" fill="black" stroke="black" stroke-linecap="round" stroke-linejoin="round"/>
<path d="M300.525 36.1641L289.429 52.9943L267.23 47.0373" stroke="#A66CFF" stroke-linecap="round" stroke-linejoin="round"/>
<path d="M279.128 36.209C279.31 36.209 279.458 36.0636 279.458 35.8843C279.458 35.705 279.31 35.5596 279.128 35.5596C278.946 35.5596 278.798 35.705 278.798 35.8843C278.798 36.0636 278.946 36.209 279.128 36.209Z" fill="#A66CFF"/>
<path d="M277.581 38.5576C277.763 38.5576 277.91 38.4122 277.91 38.2329C277.91 38.0536 277.763 37.9082 277.581 37.9082C277.398 37.9082 277.251 38.0536 277.251 38.2329C277.251 38.4122 277.398 38.5576 277.581 38.5576Z" fill="#A66CFF"/>
<path d="M279.04 41.7109C279.222 41.7109 279.37 41.5655 279.37 41.3862C279.37 41.2069 279.222 41.0615 279.04 41.0615C278.858 41.0615 278.71 41.2069 278.71 41.3862C278.71 41.5655 278.858 41.7109 279.04 41.7109Z" fill="#A66CFF"/>
<path d="M276.033 40.9053C276.215 40.9053 276.363 40.7599 276.363 40.5805C276.363 40.4012 276.215 40.2559 276.033 40.2559C275.851 40.2559 275.703 40.4012 275.703 40.5805C275.703 40.7599 275.851 40.9053 276.033 40.9053Z" fill="#A66CFF"/>
<path d="M277.492 44.0566C277.674 44.0566 277.822 43.9113 277.822 43.7319C277.822 43.5526 277.674 43.4072 277.492 43.4072C277.31 43.4072 277.162 43.5526 277.162 43.7319C277.162 43.9113 277.31 44.0566 277.492 44.0566Z" fill="#A66CFF"/>
<path d="M274.482 43.249C274.664 43.249 274.811 43.1036 274.811 42.9243C274.811 42.745 274.664 42.5996 274.482 42.5996C274.299 42.5996 274.152 42.745 274.152 42.9243C274.152 43.1036 274.299 43.249 274.482 43.249Z" fill="#A66CFF"/>
<path d="M278.951 47.2119C279.133 47.2119 279.281 47.0665 279.281 46.8872C279.281 46.7079 279.133 46.5625 278.951 46.5625C278.769 46.5625 278.621 46.7079 278.621 46.8872C278.621 47.0665 278.769 47.2119 278.951 47.2119Z" fill="#A66CFF"/>
<path d="M275.944 46.4033C276.126 46.4033 276.274 46.2579 276.274 46.0786C276.274 45.8993 276.126 45.7539 275.944 45.7539C275.762 45.7539 275.614 45.8993 275.614 46.0786C275.614 46.2579 275.762 46.4033 275.944 46.4033Z" fill="#A66CFF"/>
<path d="M272.933 45.5967C273.115 45.5967 273.263 45.4513 273.263 45.272C273.263 45.0927 273.115 44.9473 272.933 44.9473C272.751 44.9473 272.603 45.0927 272.603 45.272C272.603 45.4513 272.751 45.5967 272.933 45.5967Z" fill="#A66CFF"/>
<path d="M278.866 59.1173L282.722 53.2686" stroke="black" stroke-linecap="round" stroke-linejoin="round"/>
<path d="M275.948 58.3351L279.805 52.4863" stroke="black" stroke-linecap="round" stroke-linejoin="round"/>
<path d="M273.027 57.548L276.883 51.6992" stroke="black" stroke-linecap="round" stroke-linejoin="round"/>
<path d="M270.105 56.7657L273.961 50.917" stroke="black" stroke-linecap="round" stroke-linejoin="round"/>
<path d="M246.15 13.9181L308.491 30.6567C308.711 30.715 308.91 30.8274 309.079 30.9648C309.134 30.6942 309.121 30.4153 309.024 30.153L307.624 26.2733C307.451 25.7946 307.053 25.4324 306.554 25.2992L244.213 8.56055L234.991 12.024L215.641 41.3718L207.675 42.0753L208.11 43.1327L218.166 45.8343L236.923 17.3815L246.146 13.9181H246.15Z" fill="black"/>
<path d="M202.538 41.5857C203.671 39.8665 206.238 38.9049 208.246 39.4419L281.425 59.0903C283.433 59.6273 284.148 61.4756 283.015 63.1907L277.894 70.9585C276.761 72.6777 274.194 73.6393 272.185 73.1023L199.007 53.4539C196.998 52.9169 196.284 51.0686 197.417 49.3535L202.538 41.5857Z" fill="#EBE9E9" stroke="black" stroke-linecap="round" stroke-linejoin="round"/>
<path d="M207.312 47.2788C207.789 46.5503 208.88 46.1424 209.73 46.3713L272.9 63.3306C273.75 63.5596 274.054 64.3422 273.572 65.0665C273.09 65.7908 272.003 66.2029 271.154 65.974L207.984 49.0147C207.134 48.7857 206.83 48.0031 207.312 47.2788Z" fill="black" stroke="black" stroke-linecap="round" stroke-linejoin="round"/>
<path d="M227.697 164.879L253.191 126.273L251.398 122.61C248.417 101.055 256.383 90.7309 262.806 86.5514V70.587L268.143 64.6842L244.768 58.1943L182.943 152.865L227.697 164.883V164.879Z" fill="black"/>
<path d="M302.922 10.6961L300.634 4.79324L241.769 -11.0088L233.558 -7.92831L210.322 27.3182L212.605 33.2211L214.521 38.154L273.382 53.9602L281.594 50.8755L304.833 15.6332L302.922 10.6961Z" fill="#A66CFF" stroke="black" stroke-linecap="round" stroke-linejoin="round"/>
<path d="M281.594 50.8752L279.683 45.9381L271.471 49.0227L212.606 33.2207L214.521 38.1536L273.382 53.9598L281.594 50.8752Z" fill="black"/>
<path d="M212.605 33.2211L210.322 27.3182L233.558 -7.92831L241.769 -11.0088L300.635 4.79324L302.922 10.6961L279.682 45.9384L271.47 49.0231L212.605 33.2211Z" fill="#A66CFF" stroke="black" stroke-linecap="round" stroke-linejoin="round"/>
<path d="M282.862 27.9849C282.151 27.7934 281.246 28.1348 280.845 28.7425L279.881 30.2037L278.401 30.4951L279.043 32.1519C279.145 32.4141 279.386 32.6264 279.741 32.718L287.094 34.6912L284.684 28.472L282.857 27.9807L282.862 27.9849Z" fill="black" stroke="black" stroke-linecap="round" stroke-linejoin="round"/>
<path d="M286.456 33.0383L279.103 31.0651C278.392 30.8736 278.143 30.2242 278.54 29.6165L280.206 27.0896C280.608 26.4819 281.513 26.1447 282.223 26.332L289.577 28.3052L286.456 33.0383Z" fill="#A66CFF" stroke="black" stroke-linecap="round" stroke-linejoin="round"/>
<path d="M278.282 34.9371C277.572 34.7456 276.667 35.0869 276.265 35.6947L275.301 37.1558L273.821 37.4472L274.464 39.104C274.565 39.3663 274.806 39.5786 275.161 39.6702L282.515 41.6433L280.105 35.4241L278.278 34.9329L278.282 34.9371Z" fill="black" stroke="black" stroke-linecap="round" stroke-linejoin="round"/>
<path d="M281.873 39.9865L274.52 38.0134C273.809 37.8219 273.56 37.1724 273.957 36.5647L275.623 34.0379C276.025 33.4301 276.93 33.0929 277.64 33.2802L284.994 35.2534L281.873 39.9865Z" fill="#A66CFF" stroke="black" stroke-linecap="round" stroke-linejoin="round"/>
<path d="M241.769 -11.0088L233.558 -7.92831L210.322 27.3182L212.605 33.2211L220.094 35.2275L276.185 -1.77152L241.769 -11.0088Z" fill="black" stroke="black" stroke-linecap="round" stroke-linejoin="round"/>
<path d="M279.683 45.9381L271.471 49.0227L212.606 33.2207" stroke="#A66CFF" stroke-linecap="round" stroke-linejoin="round"/>
<path d="M271.47 49.0234L272.836 52.5452" stroke="#A66CFF" stroke-linecap="round" stroke-linejoin="round"/>
<path d="M217.409 30.3496C215.641 29.875 215.007 28.2473 216.009 26.7321L236.962 -5.04678C237.959 -6.56204 240.226 -7.41126 241.993 -6.9367L286.608 5.0397C288.376 5.51426 289.01 7.14192 288.008 8.65718L267.056 40.4361C266.058 41.9513 263.791 42.8005 262.024 42.326L217.409 30.3496Z" fill="#D0F500" stroke="black" stroke-linecap="round" stroke-linejoin="round"/>
<path d="M246.996 17.9854L273.669 25.1495" stroke="black" stroke-linecap="round" stroke-linejoin="round"/>
<path d="M243.282 23.6182L269.956 30.7782" stroke="black" stroke-linecap="round" stroke-linejoin="round"/>
<path d="M239.57 29.2451L266.243 36.4093" stroke="black" stroke-linecap="round" stroke-linejoin="round"/>
<path d="M235.71 3.44889L234.454 3.11171C234.149 3.02845 234.048 2.74122 234.23 2.46648L235.718 0.210242C235.9 -0.0645036 236.293 -0.218539 236.597 -0.139445L237.853 0.197741L235.714 3.44473L235.71 3.44889Z" fill="black"/>
<path d="M240.391 6.03407C240.209 6.30882 239.816 6.46283 239.511 6.38373L235.194 5.22649C234.889 5.14323 234.788 4.856 234.97 4.58126L235.714 3.45312L240.581 4.76025C240.885 4.84351 240.987 5.13074 240.805 5.40548L240.391 6.03407Z" fill="black"/>
<path d="M237.51 7.17058C237.328 7.44532 236.935 7.59936 236.631 7.52026L235.929 7.33293C235.624 7.24967 235.523 6.96245 235.705 6.6877L236.449 5.55957L238.254 6.04661L237.51 7.17474V7.17058Z" fill="black"/>
<path d="M277.149 16.4873L270.472 14.6931C270.168 14.6099 269.77 14.7681 269.593 15.0428L269.178 15.6714C268.996 15.9461 269.098 16.2334 269.402 16.3166L275.525 17.9609C275.83 18.0442 276.227 17.886 276.405 17.6112L277.149 16.4831V16.4873Z" fill="black"/>
<path d="M281.837 12.5987C282.019 12.3239 281.917 12.0367 281.613 11.9534L280.357 11.6162L277.143 16.4867L278.399 16.8239C278.704 16.9071 279.101 16.749 279.279 16.4742L281.837 12.5945V12.5987Z" fill="black"/>
<path d="M281.102 10.4885C281.284 10.2137 281.183 9.92652 280.878 9.84326L276.011 8.53613L275.267 9.66424C275.085 9.93898 275.187 10.2262 275.491 10.3095L280.358 11.6166L281.102 10.4885Z" fill="black"/>
<path d="M277.081 6.91282L275.276 6.42578L274.532 7.55391C274.35 7.82866 274.451 8.11589 274.756 8.19914L276.012 8.53633L277.081 6.91282Z" fill="black"/>
<path d="M285.053 7.72826C285.234 7.45351 285.133 7.16628 284.829 7.08303L276.9 4.95581C276.596 4.87256 276.198 5.03075 276.021 5.3055L275.276 6.43363L283.759 8.71067C284.063 8.79393 284.461 8.63573 284.638 8.36099L285.053 7.73242V7.72826Z" fill="black"/>
<path d="M253.985 9.68508C253.803 9.95983 253.41 10.1138 253.105 10.0347L251.85 9.69755L257.203 1.58008L258.459 1.91726C258.763 2.00052 258.865 2.28775 258.683 2.56249L253.985 9.68922V9.68508Z" fill="black"/>
<path d="M246.428 8.23931L245.172 7.90212C244.868 7.81886 244.766 7.53164 244.948 7.25689L249.646 0.130164C249.828 -0.144582 250.221 -0.298617 250.526 -0.219523L251.782 0.117663L246.428 8.23514V8.23931Z" fill="black"/>
<path d="M251.109 10.8212C250.927 11.0959 250.534 11.2499 250.23 11.1708L245.912 10.0136C245.608 9.93034 245.506 9.64311 245.688 9.36836L246.432 8.24023L251.853 9.69722L251.109 10.8253V10.8212Z" fill="black"/>
<path d="M270.772 9.04422L269.516 8.70703L266.302 13.5775L267.558 13.9147C267.862 13.998 268.26 13.8398 268.437 13.565L270.996 9.68531C271.177 9.41056 271.076 9.12331 270.772 9.04005V9.04422Z" fill="black"/>
<path d="M259.63 11.7824L260.886 12.1195L264.099 7.24905L262.843 6.91187C262.539 6.82861 262.141 6.98681 261.964 7.26155L259.406 11.1413C259.224 11.416 259.325 11.7033 259.63 11.7865V11.7824Z" fill="black"/>
<path d="M269.519 8.70546L264.098 7.24848L265.168 5.625L270.589 7.08198L269.519 8.70546Z" fill="black"/>
<path d="M265.169 5.62593L263.913 5.28875C263.608 5.20549 263.507 4.91824 263.689 4.64349L264.103 4.01493C264.285 3.74018 264.678 3.58615 264.982 3.66524L266.238 4.00243L265.169 5.62593Z" fill="black"/>
<path d="M271.66 5.45996L272.916 5.79715C273.221 5.8804 273.322 6.16763 273.14 6.44238L272.726 7.07097C272.544 7.34571 272.151 7.49975 271.846 7.42065L270.591 7.08347L271.66 5.45996Z" fill="black"/>
<path d="M265.562 14.705C265.38 14.9797 264.987 15.1337 264.683 15.0546L260.365 13.8974C260.061 13.8141 259.959 13.5269 260.141 13.2521L260.885 12.124L266.306 13.581L265.562 14.7091V14.705Z" fill="black"/>
<path d="M266.983 2.87428C267.165 2.59954 267.558 2.44553 267.863 2.52462L272.18 3.68187C272.485 3.76512 272.586 4.05238 272.404 4.32712L271.66 5.45523L266.239 3.99824L266.983 2.87014V2.87428Z" fill="black"/>
<path d="M256.531 12.2787C256.349 12.5535 255.956 12.7075 255.651 12.6284L254.95 12.4411C254.645 12.3578 254.544 12.0706 254.725 11.7958L255.14 11.1673C255.322 10.8925 255.715 10.7385 256.019 10.8176L256.721 11.0049C257.026 11.0882 257.127 11.3754 256.945 11.6501L256.531 12.2787Z" fill="black"/>
<path d="M236.235 15.134L228.273 16.3496L232.48 20.8329L240.442 19.6174L236.235 15.134Z" fill="white" stroke="black" stroke-linecap="round" stroke-linejoin="round"/>
<path d="M232.479 20.8332L228.272 16.3499L224.512 22.0487L228.72 26.5321L232.479 20.8332Z" fill="white" stroke="black" stroke-linecap="round" stroke-linejoin="round"/>
<path d="M236.686 25.3163L240.441 19.6174L232.479 20.833L228.72 26.5319L236.686 25.3163Z" fill="white" stroke="black" stroke-linecap="round" stroke-linejoin="round"/>
<path d="M256.529 12.2768C256.347 12.5515 255.954 12.7055 255.65 12.6264L254.948 12.4391C254.643 12.3559 254.542 12.0686 254.724 11.7939L255.138 11.1653C255.32 10.8906 255.713 10.7365 256.018 10.8156L256.72 11.003C257.024 11.0862 257.125 11.3734 256.944 11.6482L256.529 12.2768Z" fill="black"/>
<path d="M253.076 17.7098C252.894 17.9845 252.501 18.1386 252.197 18.0595L248.29 17.0104C247.985 16.9272 247.884 16.6399 248.065 16.3652L248.48 15.7366C248.662 15.4619 249.055 15.3078 249.359 15.3869L253.267 16.436C253.571 16.5192 253.673 16.8064 253.491 17.0812L253.076 17.7098Z" fill="black"/>
<path d="M253.567 24.308C253.385 24.5828 252.992 24.7368 252.688 24.6577L244.67 22.5055C244.366 22.4223 244.265 22.1351 244.446 21.8603L244.861 21.2317C245.043 20.957 245.436 20.8029 245.74 20.882L253.758 23.0342C254.062 23.1175 254.163 23.4047 253.982 23.6795L253.567 24.308Z" fill="black"/>
<path d="M244.378 28.4136C244.196 28.6884 243.803 28.8424 243.498 28.7633L240.856 28.0514C240.551 27.9682 240.45 27.6809 240.631 27.4062L241.046 26.7776C241.228 26.5029 241.621 26.3488 241.925 26.4279L244.568 27.1398C244.873 27.223 244.974 27.5103 244.792 27.785L244.378 28.4136Z" fill="black"/>
<path d="M271.335 64.3049C254.176 59.6967 243.74 83.2707 243.74 103.069V126.88C243.74 143.677 236.56 152.544 228.318 152.074C227.629 152.036 226.978 151.932 226.373 151.77L164.709 135.214C165.322 135.381 165.982 135.485 166.679 135.526C174.921 135.997 182.101 127.126 182.101 110.333V86.5218C182.101 66.7277 192.541 43.1537 209.696 47.7578L271.335 64.3091V64.3049Z" fill="white" stroke="black" stroke-linecap="round" stroke-linejoin="round"/>
<path d="M201.193 52.3838L210.322 54.8315" stroke="black" stroke-linecap="round" stroke-linejoin="round"/>
<path d="M216.309 61.708L229.155 65.159" stroke="black" stroke-linecap="round" stroke-linejoin="round"/>
<path d="M196.626 56.4258L214.047 61.1006" stroke="black" stroke-linecap="round" stroke-linejoin="round"/>
<path d="M194.837 79.0049L227.367 87.7385" stroke="black" stroke-linecap="round" stroke-linejoin="round"/>
<path d="M164.722 135.214C156.904 133.116 156.194 121.26 166.693 111.161C174.52 103.635 173.247 90.4015 166.689 80.161L152.303 57.7026C150.24 54.4806 147.846 52.5865 145.309 51.8955L206.919 68.4385C209.468 69.1212 211.87 71.0195 213.942 74.254L228.328 96.7123C234.886 106.953 236.159 120.182 228.332 127.713C217.82 137.82 218.911 149.767 226.387 151.774L164.722 135.218V135.214Z" fill="#A66CFF" stroke="black" stroke-linecap="round" stroke-linejoin="round"/>
<path d="M98.0261 155.183L123.837 74.5624C128.996 58.444 137.783 49.8561 145.309 51.9001L206.919 68.4431C199.4 66.4324 190.63 75.0161 185.476 91.1137L159.665 171.735L98.0261 155.183Z" fill="white" stroke="black" stroke-linecap="round" stroke-linejoin="round"/>
<path d="M106.961 147.16L106.145 149.708C105.895 150.486 106.255 151.277 106.944 151.464L109.198 152.068C109.887 152.251 110.657 151.768 110.906 150.986L112.175 147.018L108.665 146.078C107.976 145.894 107.206 146.377 106.957 147.16H106.961Z" fill="black" stroke="black" stroke-linecap="round" stroke-linejoin="round"/>
<path d="M117.41 142.577L115.156 141.973C114.467 141.79 113.697 142.273 113.448 143.056L112.179 147.023L115.689 147.964C116.378 148.147 117.148 147.664 117.397 146.881L118.213 144.334C118.463 143.555 118.103 142.764 117.414 142.577H117.41Z" fill="black" stroke="black" stroke-linecap="round" stroke-linejoin="round"/>
<path d="M125.616 133.086L122.107 132.145L117.346 130.867L113.836 129.926C113.147 129.743 112.377 130.226 112.128 131.009L111.311 133.556C111.062 134.335 111.421 135.126 112.111 135.313L115.62 136.254L120.382 137.532L125.143 138.81L126.411 134.843C126.661 134.064 126.302 133.273 125.612 133.086H125.616Z" fill="black" stroke="black" stroke-linecap="round" stroke-linejoin="round"/>
<path d="M128.658 139.75L125.148 138.81L123.423 144.196L121.698 149.583L120.429 153.55C120.18 154.329 120.539 155.119 121.228 155.307L123.482 155.91C124.171 156.094 124.941 155.611 125.19 154.828L126.459 150.861L128.184 145.474L129.453 141.507C129.702 140.729 129.343 139.938 128.654 139.75H128.658Z" fill="black" stroke="black" stroke-linecap="round" stroke-linejoin="round"/>
<path d="M159.054 62.877L173.029 66.6276" stroke="black" stroke-linecap="round" stroke-linejoin="round"/>
<path d="M140.893 58.002L157.016 62.3271" stroke="black" stroke-linecap="round" stroke-linejoin="round"/>
<path d="M140.792 80.5557L161.769 86.1879" stroke="black" stroke-linecap="round" stroke-linejoin="round"/>
<path d="M129.637 77.5586L138.783 80.0146" stroke="black" stroke-linecap="round" stroke-linejoin="round"/>
<path d="M147.168 88.9443L160.399 92.4994" stroke="black" stroke-linecap="round" stroke-linejoin="round"/>
<path d="M127.666 83.707L145.02 88.3694" stroke="black" stroke-linecap="round" stroke-linejoin="round"/>
<path d="M125.697 89.8594L135.701 92.5444" stroke="black" stroke-linecap="round" stroke-linejoin="round"/>
<path d="M130.099 119.316L135.955 120.89" stroke="black" stroke-linecap="round" stroke-linejoin="round"/>
<path d="M117.434 115.915L128.263 118.825" stroke="black" stroke-linecap="round" stroke-linejoin="round"/>
<path d="M136.327 62.0391L146.188 64.6866" stroke="black" stroke-linecap="round" stroke-linejoin="round"/>
</g>
<path d="M34.018 111.928C33.0047 111.928 32.0673 111.745 31.206 111.377C30.3573 111.01 29.61 110.497 28.964 109.838C28.3307 109.18 27.8367 108.407 27.482 107.52C27.1273 106.634 26.95 105.665 26.95 104.613C26.95 103.562 27.121 102.593 27.463 101.706C27.8177 100.807 28.3117 100.034 28.945 99.3882C29.591 98.7295 30.3447 98.2229 31.206 97.8682C32.0673 97.5009 33.0047 97.3172 34.018 97.3172C35.0313 97.3172 35.937 97.4882 36.735 97.8302C37.5457 98.1722 38.2297 98.6282 38.787 99.1982C39.3443 99.7555 39.7433 100.37 39.984 101.041L37.666 102.124C37.4 101.415 36.9503 100.832 36.317 100.376C35.6837 99.9075 34.9173 99.6732 34.018 99.6732C33.1313 99.6732 32.346 99.8822 31.662 100.3C30.9907 100.718 30.465 101.295 30.085 102.029C29.7177 102.764 29.534 103.625 29.534 104.613C29.534 105.601 29.7177 106.469 30.085 107.216C30.465 107.951 30.9907 108.527 31.662 108.945C32.346 109.363 33.1313 109.572 34.018 109.572C34.9173 109.572 35.6837 109.344 36.317 108.888C36.9503 108.42 37.4 107.831 37.666 107.121L39.984 108.204C39.7433 108.876 39.3443 109.496 38.787 110.066C38.2297 110.624 37.5457 111.073 36.735 111.415C35.937 111.757 35.0313 111.928 34.018 111.928ZM41.8729 111.7V101.364H44.2099V103.663L44.0199 103.321C44.2605 102.549 44.6342 102.01 45.1409 101.706C45.6602 101.402 46.2809 101.25 47.0029 101.25H47.6109V103.454H46.7179C46.0085 103.454 45.4385 103.676 45.0079 104.119C44.5772 104.55 44.3619 105.158 44.3619 105.943V111.7H41.8729ZM50.2333 115.899C49.9546 115.899 49.6823 115.874 49.4163 115.823C49.1503 115.785 48.9096 115.716 48.6943 115.614V113.524C48.859 113.562 49.0553 113.6 49.2833 113.638C49.524 113.676 49.7456 113.695 49.9483 113.695C50.5183 113.695 50.93 113.562 51.1833 113.296C51.4493 113.03 51.6836 112.682 51.8863 112.251L52.5703 110.655L52.5323 112.745L48.0293 101.364H50.7083L53.8623 109.762H52.9123L56.0473 101.364H58.7453L54.2423 112.745C53.9763 113.417 53.6533 113.987 53.2733 114.455C52.8933 114.924 52.45 115.279 51.9433 115.519C51.4493 115.773 50.8793 115.899 50.2333 115.899ZM60.1121 115.5V101.364H62.4491V103.416L62.2211 102.903C62.5758 102.346 63.0571 101.915 63.6651 101.611C64.2731 101.295 64.9761 101.136 65.7741 101.136C66.7495 101.136 67.6298 101.377 68.4151 101.858C69.2005 102.34 69.8211 102.986 70.2771 103.796C70.7458 104.607 70.9801 105.519 70.9801 106.532C70.9801 107.533 70.7521 108.445 70.2961 109.268C69.8401 110.092 69.2195 110.744 68.4341 111.225C67.6488 111.694 66.7558 111.928 65.7551 111.928C65.0078 111.928 64.3175 111.783 63.6841 111.491C63.0635 111.187 62.5695 110.757 62.2021 110.199L62.6011 109.705V115.5H60.1121ZM65.4701 109.648C66.0401 109.648 66.5468 109.515 66.9901 109.249C67.4335 108.983 67.7755 108.616 68.0161 108.147C68.2695 107.679 68.3961 107.14 68.3961 106.532C68.3961 105.924 68.2695 105.392 68.0161 104.936C67.7755 104.468 67.4335 104.1 66.9901 103.834C66.5468 103.556 66.0401 103.416 65.4701 103.416C64.9255 103.416 64.4315 103.549 63.9881 103.815C63.5575 104.081 63.2155 104.455 62.9621 104.936C62.7215 105.405 62.6011 105.937 62.6011 106.532C62.6011 107.14 62.7215 107.679 62.9621 108.147C63.2155 108.616 63.5575 108.983 63.9881 109.249C64.4315 109.515 64.9255 109.648 65.4701 109.648ZM77.4042 111.814C76.2389 111.814 75.3332 111.498 74.6872 110.864C74.0539 110.218 73.7372 109.313 73.7372 108.147V103.587H71.9512V101.364H72.1412C72.6479 101.364 73.0405 101.231 73.3192 100.965C73.5979 100.699 73.7372 100.313 73.7372 99.8062V99.0082H76.2262V101.364H78.6012V103.587H76.2262V108.014C76.2262 108.356 76.2832 108.648 76.3972 108.888C76.5239 109.129 76.7139 109.313 76.9672 109.439C77.2332 109.566 77.5689 109.629 77.9742 109.629C78.0629 109.629 78.1642 109.623 78.2782 109.61C78.4049 109.598 78.5252 109.585 78.6392 109.572V111.7C78.4619 111.726 78.2592 111.751 78.0312 111.776C77.8032 111.802 77.5942 111.814 77.4042 111.814ZM85.5021 111.928C84.4887 111.928 83.5641 111.694 82.7281 111.225C81.9047 110.757 81.2461 110.117 80.7521 109.306C80.2707 108.496 80.0301 107.571 80.0301 106.532C80.0301 105.494 80.2707 104.569 80.7521 103.758C81.2461 102.948 81.9047 102.308 82.7281 101.839C83.5514 101.371 84.4761 101.136 85.5021 101.136C86.5154 101.136 87.4337 101.371 88.2571 101.839C89.0804 102.308 89.7327 102.948 90.2141 103.758C90.7081 104.556 90.9551 105.481 90.9551 106.532C90.9551 107.571 90.7081 108.496 90.2141 109.306C89.7201 110.117 89.0614 110.757 88.2381 111.225C87.4147 111.694 86.5027 111.928 85.5021 111.928ZM85.5021 109.648C86.0594 109.648 86.5471 109.515 86.9651 109.249C87.3957 108.983 87.7314 108.616 87.9721 108.147C88.2254 107.666 88.3521 107.128 88.3521 106.532C88.3521 105.924 88.2254 105.392 87.9721 104.936C87.7314 104.468 87.3957 104.1 86.9651 103.834C86.5471 103.556 86.0594 103.416 85.5021 103.416C84.9321 103.416 84.4317 103.556 84.0011 103.834C83.5704 104.1 83.2284 104.468 82.9751 104.936C82.7344 105.392 82.6141 105.924 82.6141 106.532C82.6141 107.128 82.7344 107.666 82.9751 108.147C83.2284 108.616 83.5704 108.983 84.0011 109.249C84.4317 109.515 84.9321 109.648 85.5021 109.648ZM27.368 135.7V121.545H29.382L37.172 132.033L36.127 132.242V121.545H38.711V135.7H36.678L29.002 125.136L29.952 124.927V135.7H27.368ZM46.144 135.928C45.08 135.928 44.149 135.688 43.351 135.206C42.553 134.725 41.9323 134.073 41.489 133.249C41.0457 132.426 40.824 131.514 40.824 130.513C40.824 129.475 41.0457 128.556 41.489 127.758C41.945 126.948 42.5593 126.308 43.332 125.839C44.1173 125.371 44.9913 125.136 45.954 125.136C46.7647 125.136 47.474 125.269 48.082 125.535C48.7027 125.801 49.2283 126.169 49.659 126.637C50.0897 127.106 50.419 127.644 50.647 128.252C50.875 128.848 50.989 129.494 50.989 130.19C50.989 130.368 50.9763 130.551 50.951 130.741C50.9383 130.931 50.9067 131.096 50.856 131.235H42.876V129.335H49.45L48.272 130.228C48.386 129.646 48.3543 129.126 48.177 128.67C48.0123 128.214 47.7337 127.853 47.341 127.587C46.961 127.321 46.4987 127.188 45.954 127.188C45.4347 127.188 44.9723 127.321 44.567 127.587C44.1617 127.841 43.8513 128.221 43.636 128.727C43.4333 129.221 43.3573 129.823 43.408 130.532C43.3573 131.166 43.4397 131.729 43.655 132.223C43.883 132.705 44.2123 133.078 44.643 133.344C45.0863 133.61 45.593 133.743 46.163 133.743C46.733 133.743 47.2143 133.623 47.607 133.382C48.0123 133.142 48.329 132.819 48.557 132.413L50.571 133.401C50.3683 133.895 50.0517 134.332 49.621 134.712C49.1903 135.092 48.6773 135.39 48.082 135.605C47.4993 135.821 46.8533 135.928 46.144 135.928ZM55.4788 135.7L51.9258 125.364H54.5478L57.1508 133.211L56.2388 133.192L59.0128 125.364H61.2168L63.9718 133.192L63.0598 133.211L65.6628 125.364H68.2848L64.7318 135.7H62.5088L59.6968 127.511H60.5328L57.6828 135.7H55.4788ZM73.5822 135.928C72.4802 135.928 71.5176 135.669 70.6942 135.149C69.8836 134.617 69.3262 133.902 69.0222 133.002L70.8842 132.109C71.1502 132.692 71.5176 133.148 71.9862 133.477C72.4676 133.807 72.9996 133.971 73.5822 133.971C74.0382 133.971 74.3992 133.87 74.6652 133.667C74.9312 133.465 75.0642 133.199 75.0642 132.869C75.0642 132.667 75.0072 132.502 74.8932 132.375C74.7919 132.236 74.6462 132.122 74.4562 132.033C74.2789 131.932 74.0826 131.85 73.8672 131.786L72.1762 131.311C71.3022 131.058 70.6372 130.672 70.1812 130.152C69.7379 129.633 69.5162 129.019 69.5162 128.309C69.5162 127.676 69.6746 127.125 69.9912 126.656C70.3206 126.175 70.7702 125.801 71.3402 125.535C71.9229 125.269 72.5879 125.136 73.3352 125.136C74.3106 125.136 75.1719 125.371 75.9192 125.839C76.6666 126.308 77.1986 126.967 77.5152 127.815L75.6152 128.708C75.4379 128.24 75.1402 127.866 74.7222 127.587C74.3042 127.309 73.8356 127.169 73.3162 127.169C72.8982 127.169 72.5689 127.264 72.3282 127.454C72.0876 127.644 71.9672 127.891 71.9672 128.195C71.9672 128.385 72.0179 128.55 72.1192 128.689C72.2206 128.829 72.3599 128.943 72.5372 129.031C72.7272 129.12 72.9426 129.202 73.1832 129.278L74.8362 129.772C75.6849 130.026 76.3372 130.406 76.7932 130.912C77.2619 131.419 77.4962 132.04 77.4962 132.774C77.4962 133.395 77.3316 133.946 77.0022 134.427C76.6729 134.896 76.2169 135.263 75.6342 135.529C75.0516 135.795 74.3676 135.928 73.5822 135.928Z" fill="black"/>
<defs>
<filter id="filter0_i_1_4958" x="0" y="0.200195" width="281" height="174" filterUnits="userSpaceOnUse" color-interpolation-filters="sRGB">
<feFlood flood-opacity="0" result="BackgroundImageFix"/>
<feBlend mode="normal" in="SourceGraphic" in2="BackgroundImageFix" result="shape"/>
<feColorMatrix in="SourceAlpha" type="matrix" values="0 0 0 0 0 0 0 0 0 0 0 0 0 0 0 0 0 0 127 0" result="hardAlpha"/>
<feOffset dy="2"/>
<feComposite in2="hardAlpha" operator="arithmetic" k2="-1" k3="1"/>
<feColorMatrix type="matrix" values="0 0 0 0 1 0 0 0 0 1 0 0 0 0 1 0 0 0 1 0"/>
<feBlend mode="normal" in2="shape" result="effect1_innerShadow_1_4958"/>
</filter>
</defs>
</svg>
