<svg width="334" height="597" viewBox="0 0 334 597" fill="none" xmlns="http://www.w3.org/2000/svg">
<path d="M330.2 113.89L325.977 120.043C321.093 127.169 309.682 129.264 296.56 124.44C279.292 118.088 265.587 102.141 265.961 88.8271C266.048 85.6291 266.943 82.8655 268.49 80.6147L272.714 74.4619C271.167 76.7127 270.271 79.4763 270.185 82.6743C269.811 95.988 283.516 111.935 300.783 118.288C313.906 123.119 325.316 121.016 330.2 113.89Z" fill="#A66CFF" stroke="black" stroke-width="1.19911" stroke-linecap="round" stroke-linejoin="round"/>
<path d="M270.185 82.6743C270.272 79.4763 271.167 76.7127 272.714 74.4619L268.49 80.6147C266.943 82.8655 266.048 85.6291 265.961 88.8271C265.735 96.8397 270.619 105.808 278.31 113.065L281.265 105.678C274.313 98.656 269.976 90.235 270.185 82.6656V82.6743Z" fill="black"/>
<path d="M302.138 70.0558C319.415 76.4084 333.111 92.3553 332.737 105.678C332.364 118.991 318.068 124.64 300.791 118.287C283.524 111.935 269.819 95.9879 270.193 82.6742C270.566 69.3518 284.871 63.7118 302.138 70.0644V70.0558Z" fill="white" stroke="black" stroke-width="1.19911" stroke-linecap="round" stroke-linejoin="round"/>
<path d="M302.138 70.0559C284.87 63.7032 270.566 69.352 270.192 82.6657C269.984 90.235 274.32 98.6473 281.273 105.678L323.108 84.1865C317.651 78.1988 310.298 73.0628 302.138 70.0646V70.0559Z" fill="black" stroke="black" stroke-width="1.19911" stroke-linecap="round" stroke-linejoin="round"/>
<path d="M114.94 140.523C106.579 140.41 103.077 146.215 107.118 153.489L160.721 249.926C164.762 257.2 174.808 263.179 183.177 263.292L294.04 264.787C302.4 264.9 305.902 259.094 301.861 251.821L248.259 155.383C244.218 148.109 234.163 142.13 225.803 142.017L114.94 140.523Z" fill="black" stroke="black" stroke-width="1.19911" stroke-linecap="round" stroke-linejoin="round"/>
<path d="M208.978 237.003C209.413 238.089 208.909 239.758 207.857 240.705L203.199 244.903L201.27 240.071C200.835 238.985 201.339 237.316 202.4 236.36L207.058 232.163L208.978 236.994V237.003Z" fill="#D0F500" stroke="#D0F500" stroke-width="1.19911" stroke-linecap="round" stroke-linejoin="round"/>
<path d="M215.331 244.416C216.383 243.469 216.887 241.8 216.452 240.714L214.531 235.882L207.058 232.172L208.978 237.003C209.413 238.09 208.909 239.758 207.857 240.705L203.199 244.903L210.673 248.614L215.331 244.416Z" fill="#A66CFF"/>
<path d="M226.767 214.391L207.058 232.171L205.137 227.339C204.703 226.244 205.207 224.576 206.258 223.628L222.153 209.298C223.204 208.351 224.421 208.464 224.856 209.567L226.776 214.399L226.767 214.391Z" fill="#D0F500" stroke="#D0F500" stroke-width="1.19911" stroke-linecap="round" stroke-linejoin="round"/>
<path d="M226.767 214.391L234.241 218.093L214.531 235.874L207.058 232.163L226.767 214.391Z" fill="#A66CFF"/>
<path d="M232.32 213.261C232.172 212.887 231.938 212.635 231.651 212.488L224.177 208.777C224.464 208.916 224.699 209.177 224.846 209.55L226.767 214.382L234.241 218.093L232.32 213.261Z" fill="#A66CFF"/>
<path d="M226.767 214.391L231.426 210.193C232.477 209.238 233.694 209.359 234.128 210.445L236.049 215.277L231.382 219.484C230.331 220.431 229.114 220.309 228.679 219.223L226.759 214.391H226.767Z" fill="#D0F500" stroke="#D0F500" stroke-width="1.19911" stroke-linecap="round" stroke-linejoin="round"/>
<path d="M236.049 215.277L243.522 218.988L239.186 223.446C238.743 223.907 237.909 224.055 237.335 223.776L229.635 220.092C229.635 220.092 230.348 220.431 231.391 219.492L236.049 215.286V215.277Z" fill="#A66CFF"/>
<path d="M241.602 214.147C241.454 213.782 241.22 213.521 240.933 213.382L233.459 209.672C233.746 209.811 233.98 210.071 234.128 210.436L236.049 215.268L243.522 218.979L241.602 214.147Z" fill="#A66CFF"/>
<path d="M249.962 227.826C250.397 228.921 249.893 230.59 248.841 231.537L244.183 235.734L236.049 215.277L240.707 211.08C241.758 210.133 242.975 210.254 243.41 211.349L249.962 227.835V227.826Z" fill="#D0F500" stroke="#D0F500" stroke-width="1.19911" stroke-linecap="round" stroke-linejoin="round"/>
<path d="M256.324 235.239C257.375 234.292 257.879 232.623 257.445 231.528L250.892 215.043C250.745 214.669 250.51 214.417 250.223 214.269L242.75 210.558C243.036 210.698 243.271 210.958 243.419 211.332L249.971 227.818C250.406 228.913 249.902 230.581 248.85 231.528L244.192 235.726L251.666 239.437L256.324 235.239Z" fill="#A66CFF"/>
<path d="M211.333 265.369L206.667 269.575C205.615 270.522 204.399 270.409 203.964 269.305L197.411 252.82C196.977 251.725 197.481 250.056 198.533 249.109L203.191 244.911L211.333 265.369Z" fill="#D0F500" stroke="#D0F500" stroke-width="1.19911" stroke-linecap="round" stroke-linejoin="round"/>
<path d="M218.807 269.071L211.334 265.36L206.667 269.566C205.972 270.192 205.207 270.357 204.642 270.07L212.116 273.781C212.681 274.059 213.445 273.903 214.141 273.277L218.807 269.071Z" fill="#A66CFF"/>
<path d="M203.19 244.911L210.664 248.622L218.807 269.07L211.333 265.368L203.19 244.911Z" fill="#A66CFF"/>
<path d="M246.113 240.566C246.547 241.652 246.043 243.321 244.983 244.277L240.325 248.474L238.404 243.642C237.97 242.556 238.474 240.887 239.525 239.94L244.192 235.734L246.113 240.566Z" fill="#D0F500" stroke="#D0F500" stroke-width="1.19911" stroke-linecap="round" stroke-linejoin="round"/>
<path d="M252.456 247.988C253.508 247.032 254.021 245.363 253.586 244.277L251.666 239.445L244.192 235.734L246.113 240.566C246.547 241.652 246.043 243.321 244.983 244.277L240.325 248.474L247.798 252.185L252.456 247.988Z" fill="#A66CFF"/>
<path d="M218.025 260.658L225.499 264.369C225.785 264.508 226.02 264.769 226.168 265.134L218.694 261.423C218.546 261.058 218.312 260.797 218.025 260.658Z" fill="#A66CFF"/>
<path d="M220.615 266.255L215.957 270.453C214.906 271.409 213.689 271.287 213.255 270.201L211.334 265.369L216.001 261.163C217.052 260.215 218.269 260.337 218.703 261.423L220.624 266.255H220.615Z" fill="#D0F500" stroke="#D0F500" stroke-width="1.19911" stroke-linecap="round" stroke-linejoin="round"/>
<path d="M228.089 269.966L220.615 266.255L215.957 270.453C215.253 271.087 214.488 271.243 213.923 270.965L221.397 274.676C221.962 274.954 222.735 274.798 223.431 274.163L228.089 269.966Z" fill="#A66CFF"/>
<path d="M218.694 261.423L226.168 265.134L228.089 269.966L220.615 266.255L218.694 261.423Z" fill="#A66CFF"/>
<path d="M242.246 253.315C242.68 254.402 242.176 256.07 241.124 257.018L225.23 271.348C224.178 272.295 222.962 272.182 222.527 271.087L220.606 266.255L240.316 248.475L242.237 253.307L242.246 253.315Z" fill="#D0F500" stroke="#D0F500" stroke-width="1.19911" stroke-linecap="round" stroke-linejoin="round"/>
<path d="M248.598 260.728C249.65 259.78 250.154 258.112 249.719 257.025L247.799 252.194L240.325 248.483L242.246 253.315C242.68 254.401 242.176 256.07 241.125 257.017L225.23 271.347C224.535 271.973 223.761 272.138 223.196 271.851L230.67 275.562C231.235 275.84 232.008 275.684 232.704 275.058L248.598 260.728Z" fill="#A66CFF"/>
<path d="M239.968 146.849C235.606 143.955 230.444 142.078 225.803 142.017L114.94 140.523C106.579 140.41 103.077 146.215 107.118 153.489L137.526 208.186L239.968 146.849Z" fill="#A66CFF"/>
<path d="M107.127 153.489L160.729 249.926C164.77 257.2 174.816 263.179 183.185 263.292L294.049 264.787C298.255 264.847 301.227 263.405 302.635 261.032L238.552 368.819C237.144 371.192 234.172 372.634 229.966 372.574L119.102 371.079C110.742 370.966 100.687 364.978 96.6464 357.713L43.0441 261.276C41.0366 257.661 40.8888 254.41 42.2706 252.073L106.354 144.286C104.972 146.632 105.111 149.882 107.127 153.489Z" fill="#D0F500"/>
<path d="M106.588 367.272C102.391 364.839 98.7321 361.45 96.6551 357.722L43.0441 261.276C41.0366 257.661 40.8888 254.41 42.2706 252.073L106.354 144.286C104.972 146.632 105.111 149.882 107.127 153.489L160.729 249.926C162.815 253.68 166.5 257.078 170.732 259.512L106.588 367.264V367.272Z" fill="#FF4085"/>
<path d="M107.127 153.489L160.729 249.926C164.77 257.2 174.816 263.179 183.185 263.292L294.049 264.787C298.255 264.847 301.227 263.405 302.635 261.032L238.552 368.819C237.144 371.192 234.172 372.634 229.966 372.574L119.102 371.079C110.742 370.966 100.687 364.978 96.6464 357.713L43.0441 261.276C41.0366 257.661 40.8888 254.41 42.2706 252.073L106.354 144.286C104.972 146.632 105.111 149.882 107.127 153.489Z" stroke="black" stroke-width="1.19911" stroke-linecap="round" stroke-linejoin="round"/>
<path d="M301.871 251.82L248.268 155.383C244.227 148.109 234.173 142.13 225.812 142.017L114.949 140.523C106.589 140.41 103.087 146.215 107.136 153.489L160.739 249.926C164.78 257.2 174.826 263.179 183.195 263.292L294.058 264.787C302.418 264.9 305.921 259.094 301.879 251.82H301.871ZM287.306 255.41L179.536 253.958C176.269 253.915 172.297 251.542 170.715 248.692L118.634 155.001C117.044 152.15 118.417 149.847 121.684 149.891L229.454 151.342C232.721 151.386 236.693 153.758 238.275 156.609L290.356 250.3C291.946 253.15 290.573 255.453 287.306 255.41Z" fill="#EBE9E9" stroke="black" stroke-width="1.19911" stroke-linecap="round" stroke-linejoin="round"/>
<path d="M118.833 212.532C119.616 213.949 119.39 216.599 118.321 218.424L113.584 226.515L106.91 237.917L102.174 246.007C101.105 247.841 99.5842 248.171 98.7934 246.763L96.7337 243.061C95.9516 241.645 96.1776 238.994 97.2552 237.161L101.991 229.07L108.666 217.668L113.402 209.577C114.471 207.752 115.992 207.422 116.774 208.83L118.833 212.532Z" fill="black"/>
<path d="M133.59 239.08C134.381 240.505 134.146 243.156 133.086 244.981L128.35 253.072L121.675 264.474L116.939 272.564C115.87 274.398 114.349 274.728 113.559 273.312L111.508 269.618C110.717 268.193 110.951 265.542 112.02 263.709L116.757 255.618L123.431 244.216L128.167 236.126C129.236 234.301 130.757 233.97 131.539 235.387L133.59 239.08Z" fill="black"/>
<path d="M87.2087 249.301C87.9908 250.717 87.7649 253.368 86.6873 255.202L81.951 263.292L78.4662 257.018C77.684 255.601 77.91 252.951 78.9876 251.117L81.7772 246.355C82.8461 244.521 84.3669 244.191 85.1578 245.599L87.2174 249.301H87.2087Z" fill="black"/>
<path d="M101.635 298.688L96.8986 306.778C95.8297 308.603 94.3089 308.934 93.5181 307.517L90.0332 301.243L85.1145 292.396L80.1957 283.54L76.7109 277.266C75.9287 275.849 76.1547 273.199 77.2236 271.374L81.9599 263.283L86.8786 272.13L91.7974 280.985L96.7161 289.832L101.635 298.688Z" fill="black"/>
<path d="M111.803 293.552C112.586 294.969 112.36 297.619 111.282 299.453L108.492 304.216C107.423 306.049 105.903 306.379 105.112 304.972L101.627 298.697L106.363 290.606C107.432 288.773 108.953 288.442 109.744 289.85L111.803 293.552Z" fill="black"/>
<path d="M96.5251 105.513L194.005 106.826C201.357 106.921 212.385 103.558 218.643 99.3084L301.644 42.9338C307.902 38.6842 307.015 35.1559 299.672 35.0603L202.192 33.7481C194.84 33.6525 183.811 37.0157 177.554 41.2653L94.5524 97.6399C88.2953 101.889 89.1817 105.418 96.5251 105.513Z" fill="#EBE9E9" stroke="black" stroke-width="1.19911" stroke-linecap="round" stroke-linejoin="round"/>
<path d="M109.917 100.603L195.465 101.751C200.844 101.82 208.927 99.3607 213.506 96.2495L287.036 46.3058C291.624 43.1947 290.973 40.6136 285.585 40.5354L200.036 39.3883C194.657 39.3188 186.575 41.7781 181.995 44.8893L108.466 94.833C103.886 97.9442 104.529 100.525 109.917 100.603Z" fill="#A66CFF" stroke="black" stroke-width="1.19911" stroke-linecap="round" stroke-linejoin="round"/>
<path d="M287.036 46.3051C291.624 43.1939 290.973 40.6129 285.585 40.5347L265.136 40.2566L199.541 80.3888L204.781 100.186C208.049 99.1861 211.221 97.7957 213.506 96.2401L287.036 46.2964V46.3051Z" fill="black"/>
<path d="M181.995 44.8977L112.672 91.9823L193.44 93.0686C198.82 93.1381 206.902 90.6787 211.482 87.5589L280.805 40.4743L200.036 39.388C194.657 39.3185 186.575 41.7779 181.995 44.8977Z" fill="#A66CFF" stroke="black" stroke-width="1.19911" stroke-linecap="round" stroke-linejoin="round"/>
<path d="M299.671 35.0601L202.191 33.7479C194.839 33.6523 183.811 37.0155 177.554 41.2651L94.552 97.6396C91.406 99.7775 90.059 101.733 90.4414 103.158L81.7858 70.4127C81.4034 68.9874 82.7417 67.0321 85.8963 64.8942L168.89 8.51967C175.147 4.27006 186.183 0.906882 193.527 1.00248L291.007 2.31473C294.657 2.36687 296.717 3.26198 297.09 4.66982L305.746 37.4152C305.372 36.0074 303.313 35.1123 299.663 35.0601H299.671Z" fill="white"/>
<path d="M186.504 36.8935L177.91 4.09595" stroke="#A66CFF" stroke-width="1.19911" stroke-linecap="round" stroke-linejoin="round"/>
<path d="M180.448 3.24434C185.019 1.81912 189.755 0.95008 193.527 1.00222L291.007 2.31447C294.657 2.36661 296.717 3.26172 297.09 4.66957L305.746 37.415C305.372 36.0071 303.313 35.112 299.663 35.0599L202.182 33.7476C198.393 33.6955 193.622 34.5732 189.034 36.0071L180.448 3.24434Z" fill="#A66CFF"/>
<path d="M299.671 35.0601L202.191 33.7479C194.839 33.6523 183.811 37.0155 177.554 41.2651L94.552 97.6397C91.406 99.7775 90.059 101.733 90.4414 103.158L81.7858 70.4127C81.4034 68.9874 82.7417 67.0321 85.8963 64.8942L168.89 8.51967C175.147 4.27006 186.183 0.906882 193.527 1.00248L291.007 2.31473C294.657 2.36687 296.717 3.26198 297.09 4.66982L305.746 37.4152C305.372 36.0074 303.313 35.1123 299.663 35.0601H299.671Z" stroke="black" stroke-width="1.19911" stroke-linecap="round" stroke-linejoin="round"/>
<path d="M249.336 155.965C266.126 152.698 275.686 154.731 270.68 160.51C265.674 166.281 247.998 173.607 231.208 176.874C214.41 180.142 204.85 178.109 209.856 172.329C214.862 166.55 232.538 159.224 249.336 155.965Z" fill="#EBE9E9" stroke="black" stroke-width="1.19911" stroke-linecap="round" stroke-linejoin="round"/>
<path d="M271.931 157.199L274.39 165.646C274.651 166.55 274.26 167.654 273.139 168.957C268.133 174.728 250.457 182.054 233.667 185.321C220.64 187.85 211.967 187.199 211.063 184.087L208.604 175.64C209.508 178.752 218.181 179.403 231.208 176.874C247.998 173.607 265.674 166.281 270.679 160.51C271.801 159.216 272.192 158.103 271.931 157.199Z" fill="#A66CFF" stroke="black" stroke-width="1.19911" stroke-linecap="round" stroke-linejoin="round"/>
<path d="M219.198 178.387C213.037 178.63 209.187 177.648 208.596 175.641L211.056 184.088C211.629 186.069 215.375 187.051 221.38 186.851L219.198 178.396V178.387Z" fill="black"/>
<path d="M319.316 195L310.339 201.628L316.967 210.605L325.944 203.977L319.316 195Z" fill="white"/>
<path d="M8.97675 113.902L0 120.53L6.62791 129.507L15.6047 122.879L8.97675 113.902Z" fill="white"/>
<path d="M331.098 157.462L322.801 150L315.339 158.296L323.635 165.758L331.098 157.462Z" fill="#2100EC"/>
<path d="M195.686 176.161L187.39 168.699L179.928 176.995L188.224 184.457L195.686 176.161Z" fill="#D0F500"/>
<path d="M51.121 171.537L42.8247 164.075L35.3626 172.371L43.6588 179.833L51.121 171.537Z" fill="#2100EC"/>
<path d="M209.297 118.021L199.082 113.531L194.592 123.746L204.807 128.236L209.297 118.021Z" fill="#FF4085"/>
<path d="M50.8732 72.4236L40.6582 67.9331L36.1677 78.1482L46.3828 82.6386L50.8732 72.4236Z" fill="#A66CFF"/>
<path d="M100.475 496.575V468.265H106.365V482.439L104.731 481.869L116.055 468.265H123.427L112.217 481.793L112.559 477.613L123.655 496.575H116.777L109.861 484.605L106.365 488.823V496.575H100.475ZM134.257 497.031C132.053 497.031 130.14 496.55 128.519 495.587C126.898 494.599 125.644 493.282 124.757 491.635C123.87 489.989 123.427 488.165 123.427 486.163C123.427 484.086 123.883 482.237 124.795 480.615C125.732 478.994 126.986 477.715 128.557 476.777C130.128 475.84 131.901 475.371 133.877 475.371C135.524 475.371 136.98 475.637 138.247 476.169C139.514 476.676 140.578 477.398 141.439 478.335C142.326 479.273 142.997 480.362 143.453 481.603C143.909 482.819 144.137 484.149 144.137 485.593C144.137 485.999 144.112 486.404 144.061 486.809C144.036 487.189 143.972 487.519 143.871 487.797H128.329V483.617H140.641L137.943 485.593C138.196 484.504 138.184 483.541 137.905 482.705C137.626 481.844 137.132 481.173 136.423 480.691C135.739 480.185 134.89 479.931 133.877 479.931C132.889 479.931 132.04 480.172 131.331 480.653C130.622 481.135 130.09 481.844 129.735 482.781C129.38 483.719 129.241 484.859 129.317 486.201C129.216 487.367 129.355 488.393 129.735 489.279C130.115 490.166 130.698 490.863 131.483 491.369C132.268 491.851 133.218 492.091 134.333 492.091C135.346 492.091 136.208 491.889 136.917 491.483C137.652 491.078 138.222 490.521 138.627 489.811L143.187 491.977C142.782 492.991 142.136 493.877 141.249 494.637C140.388 495.397 139.362 495.993 138.171 496.423C136.98 496.829 135.676 497.031 134.257 497.031ZM149.584 505.011C148.976 505.011 148.38 504.961 147.798 504.859C147.24 504.758 146.746 504.593 146.316 504.365V499.691C146.67 499.793 147.088 499.881 147.57 499.957C148.051 500.033 148.494 500.071 148.9 500.071C150.014 500.071 150.812 499.805 151.294 499.273C151.775 498.741 152.168 498.133 152.472 497.449L153.878 494.219L153.802 498.969L144.682 475.827H150.8L156.842 492.281H154.562L160.604 475.827H166.722L157.83 498.513C157.272 499.957 156.588 501.161 155.778 502.123C154.967 503.086 154.042 503.808 153.004 504.289C151.99 504.771 150.85 505.011 149.584 505.011ZM168.073 496.575V467.809H173.773V496.575H168.073ZM186.798 497.031C184.594 497.031 182.681 496.55 181.06 495.587C179.439 494.599 178.185 493.282 177.298 491.635C176.411 489.989 175.968 488.165 175.968 486.163C175.968 484.086 176.424 482.237 177.336 480.615C178.273 478.994 179.527 477.715 181.098 476.777C182.669 475.84 184.442 475.371 186.418 475.371C188.065 475.371 189.521 475.637 190.788 476.169C192.055 476.676 193.119 477.398 193.98 478.335C194.867 479.273 195.538 480.362 195.994 481.603C196.45 482.819 196.678 484.149 196.678 485.593C196.678 485.999 196.653 486.404 196.602 486.809C196.577 487.189 196.513 487.519 196.412 487.797H180.87V483.617H193.182L190.484 485.593C190.737 484.504 190.725 483.541 190.446 482.705C190.167 481.844 189.673 481.173 188.964 480.691C188.28 480.185 187.431 479.931 186.418 479.931C185.43 479.931 184.581 480.172 183.872 480.653C183.163 481.135 182.631 481.844 182.276 482.781C181.921 483.719 181.782 484.859 181.858 486.201C181.757 487.367 181.896 488.393 182.276 489.279C182.656 490.166 183.239 490.863 184.024 491.369C184.809 491.851 185.759 492.091 186.874 492.091C187.887 492.091 188.749 491.889 189.458 491.483C190.193 491.078 190.763 490.521 191.168 489.811L195.728 491.977C195.323 492.991 194.677 493.877 193.79 494.637C192.929 495.397 191.903 495.993 190.712 496.423C189.521 496.829 188.217 497.031 186.798 497.031ZM207.026 497.031C204.746 497.031 202.758 496.499 201.06 495.435C199.388 494.346 198.248 492.889 197.64 491.065L201.82 489.089C202.352 490.204 203.074 491.078 203.986 491.711C204.898 492.345 205.912 492.661 207.026 492.661C207.837 492.661 208.458 492.497 208.888 492.167C209.319 491.838 209.534 491.382 209.534 490.799C209.534 490.495 209.458 490.242 209.306 490.039C209.154 489.811 208.926 489.609 208.622 489.431C208.318 489.254 207.938 489.102 207.482 488.975L203.948 487.987C202.251 487.506 200.946 486.733 200.034 485.669C199.122 484.58 198.666 483.301 198.666 481.831C198.666 480.539 198.996 479.412 199.654 478.449C200.313 477.487 201.238 476.739 202.428 476.207C203.619 475.65 204.987 475.371 206.532 475.371C208.559 475.371 210.332 475.853 211.852 476.815C213.398 477.753 214.487 479.083 215.12 480.805L210.902 482.781C210.598 481.92 210.041 481.236 209.23 480.729C208.445 480.197 207.546 479.931 206.532 479.931C205.798 479.931 205.215 480.083 204.784 480.387C204.379 480.691 204.176 481.109 204.176 481.641C204.176 481.92 204.252 482.173 204.404 482.401C204.556 482.629 204.797 482.832 205.126 483.009C205.481 483.187 205.912 483.351 206.418 483.503L209.724 484.491C211.447 484.998 212.764 485.771 213.676 486.809C214.588 487.823 215.044 489.077 215.044 490.571C215.044 491.863 214.702 492.991 214.018 493.953C213.36 494.916 212.435 495.676 211.244 496.233C210.054 496.765 208.648 497.031 207.026 497.031ZM225.443 497.031C223.163 497.031 221.174 496.499 219.477 495.435C217.805 494.346 216.665 492.889 216.057 491.065L220.237 489.089C220.769 490.204 221.491 491.078 222.403 491.711C223.315 492.345 224.328 492.661 225.443 492.661C226.254 492.661 226.874 492.497 227.305 492.167C227.736 491.838 227.951 491.382 227.951 490.799C227.951 490.495 227.875 490.242 227.723 490.039C227.571 489.811 227.343 489.609 227.039 489.431C226.735 489.254 226.355 489.102 225.899 488.975L222.365 487.987C220.668 487.506 219.363 486.733 218.451 485.669C217.539 484.58 217.083 483.301 217.083 481.831C217.083 480.539 217.412 479.412 218.071 478.449C218.73 477.487 219.654 476.739 220.845 476.207C222.036 475.65 223.404 475.371 224.949 475.371C226.976 475.371 228.749 475.853 230.269 476.815C231.814 477.753 232.904 479.083 233.537 480.805L229.319 482.781C229.015 481.92 228.458 481.236 227.647 480.729C226.862 480.197 225.962 479.931 224.949 479.931C224.214 479.931 223.632 480.083 223.201 480.387C222.796 480.691 222.593 481.109 222.593 481.641C222.593 481.92 222.669 482.173 222.821 482.401C222.973 482.629 223.214 482.832 223.543 483.009C223.898 483.187 224.328 483.351 224.835 483.503L228.141 484.491C229.864 484.998 231.181 485.771 232.093 486.809C233.005 487.823 233.461 489.077 233.461 490.571C233.461 491.863 233.119 492.991 232.435 493.953C231.776 494.916 230.852 495.676 229.661 496.233C228.47 496.765 227.064 497.031 225.443 497.031ZM14.9182 554.575V526.265H19.4402L34.6402 546.291L32.2082 546.861V526.265H38.0982V554.575H33.5382L18.6042 534.397L20.8082 533.827V554.575H14.9182ZM51.8613 555.031C49.8093 555.031 47.9347 554.563 46.2373 553.625C44.5653 552.688 43.2227 551.409 42.2093 549.787C41.2213 548.141 40.7273 546.279 40.7273 544.201C40.7273 542.099 41.2213 540.237 42.2093 538.615C43.2227 536.994 44.5653 535.715 46.2373 534.777C47.9347 533.84 49.8093 533.371 51.8613 533.371C53.9133 533.371 55.7753 533.84 57.4473 534.777C59.1193 535.715 60.4493 536.994 61.4373 538.615C62.4507 540.237 62.9573 542.099 62.9573 544.201C62.9573 546.279 62.4507 548.141 61.4373 549.787C60.4493 551.409 59.1193 552.688 57.4473 553.625C55.7753 554.563 53.9133 555.031 51.8613 555.031ZM51.8613 549.901C52.9 549.901 53.7993 549.661 54.5593 549.179C55.3447 548.698 55.9527 548.027 56.3833 547.165C56.8393 546.304 57.0673 545.316 57.0673 544.201C57.0673 543.087 56.8393 542.111 56.3833 541.275C55.9527 540.414 55.3447 539.743 54.5593 539.261C53.7993 538.755 52.9 538.501 51.8613 538.501C50.8227 538.501 49.9107 538.755 49.1253 539.261C48.34 539.743 47.7193 540.414 47.2633 541.275C46.8327 542.111 46.6173 543.087 46.6173 544.201C46.6173 545.316 46.8327 546.304 47.2633 547.165C47.7193 548.027 48.34 548.698 49.1253 549.179C49.9107 549.661 50.8227 549.901 51.8613 549.901ZM70.8634 554.575V533.827H76.1834V538.805L75.8034 538.083C76.2594 536.335 77.0068 535.157 78.0454 534.549C79.1094 533.916 80.3634 533.599 81.8074 533.599H83.0234V538.539H81.2374C79.8441 538.539 78.7168 538.97 77.8554 539.831C76.9941 540.667 76.5634 541.858 76.5634 543.403V554.575H70.8634ZM84.3816 554.575V533.827H90.0816V554.575H84.3816ZM84.3816 531.965V526.265H90.0816V531.965H84.3816ZM101.245 555.031C98.9647 555.031 96.9761 554.499 95.2787 553.435C93.6067 552.346 92.4667 550.889 91.8587 549.065L96.0387 547.089C96.5707 548.204 97.2927 549.078 98.2047 549.711C99.1167 550.345 100.13 550.661 101.245 550.661C102.055 550.661 102.676 550.497 103.107 550.167C103.537 549.838 103.753 549.382 103.753 548.799C103.753 548.495 103.677 548.242 103.525 548.039C103.373 547.811 103.145 547.609 102.841 547.431C102.537 547.254 102.157 547.102 101.701 546.975L98.1667 545.987C96.4694 545.506 95.1647 544.733 94.2527 543.669C93.3407 542.58 92.8847 541.301 92.8847 539.831C92.8847 538.539 93.2141 537.412 93.8727 536.449C94.5314 535.487 95.4561 534.739 96.6467 534.207C97.8374 533.65 99.2054 533.371 100.751 533.371C102.777 533.371 104.551 533.853 106.071 534.815C107.616 535.753 108.705 537.083 109.339 538.805L105.121 540.781C104.817 539.92 104.259 539.236 103.449 538.729C102.663 538.197 101.764 537.931 100.751 537.931C100.016 537.931 99.4334 538.083 99.0027 538.387C98.5974 538.691 98.3947 539.109 98.3947 539.641C98.3947 539.92 98.4707 540.173 98.6227 540.401C98.7747 540.629 99.0154 540.832 99.3447 541.009C99.6994 541.187 100.13 541.351 100.637 541.503L103.943 542.491C105.665 542.998 106.983 543.771 107.895 544.809C108.807 545.823 109.263 547.077 109.263 548.571C109.263 549.863 108.921 550.991 108.237 551.953C107.578 552.916 106.653 553.676 105.463 554.233C104.272 554.765 102.866 555.031 101.245 555.031ZM111.529 554.575V525.809H117.229V544.239L115.101 543.555L124.259 533.827H131.289L123.765 542.187L131.251 554.575H124.791L118.521 544.049L121.827 543.213L115.481 550.129L117.229 546.823V554.575H111.529ZM148.641 555.031C146.589 555.031 144.714 554.563 143.017 553.625C141.345 552.688 140.002 551.409 138.989 549.787C138.001 548.141 137.507 546.279 137.507 544.201C137.507 542.099 138.001 540.237 138.989 538.615C140.002 536.994 141.345 535.715 143.017 534.777C144.714 533.84 146.589 533.371 148.641 533.371C150.693 533.371 152.555 533.84 154.227 534.777C155.899 535.715 157.229 536.994 158.217 538.615C159.23 540.237 159.737 542.099 159.737 544.201C159.737 546.279 159.23 548.141 158.217 549.787C157.229 551.409 155.899 552.688 154.227 553.625C152.555 554.563 150.693 555.031 148.641 555.031ZM148.641 549.901C149.68 549.901 150.579 549.661 151.339 549.179C152.124 548.698 152.732 548.027 153.163 547.165C153.619 546.304 153.847 545.316 153.847 544.201C153.847 543.087 153.619 542.111 153.163 541.275C152.732 540.414 152.124 539.743 151.339 539.261C150.579 538.755 149.68 538.501 148.641 538.501C147.602 538.501 146.69 538.755 145.905 539.261C145.12 539.743 144.499 540.414 144.043 541.275C143.612 542.111 143.397 543.087 143.397 544.201C143.397 545.316 143.612 546.304 144.043 547.165C144.499 548.027 145.12 548.698 145.905 549.179C146.69 549.661 147.602 549.901 148.641 549.901ZM164.092 554.575V538.767H160.596V533.827H164.092V533.523C164.092 531.877 164.409 530.483 165.042 529.343C165.701 528.203 166.638 527.329 167.854 526.721C169.07 526.113 170.539 525.809 172.262 525.809C172.591 525.809 172.946 525.835 173.326 525.885C173.706 525.911 174.023 525.949 174.276 525.999V530.863C174.023 530.813 173.795 530.787 173.592 530.787C173.415 530.762 173.225 530.749 173.022 530.749C171.958 530.749 171.147 530.99 170.59 531.471C170.058 531.927 169.792 532.611 169.792 533.523V533.827H174.238V538.767H169.792V554.575H164.092ZM181.718 554.575V525.809H187.418V554.575H181.718ZM200.443 555.031C198.239 555.031 196.326 554.55 194.705 553.587C193.084 552.599 191.83 551.282 190.943 549.635C190.056 547.989 189.613 546.165 189.613 544.163C189.613 542.086 190.069 540.237 190.981 538.615C191.918 536.994 193.172 535.715 194.743 534.777C196.314 533.84 198.087 533.371 200.063 533.371C201.71 533.371 203.166 533.637 204.433 534.169C205.7 534.676 206.764 535.398 207.625 536.335C208.512 537.273 209.183 538.362 209.639 539.603C210.095 540.819 210.323 542.149 210.323 543.593C210.323 543.999 210.298 544.404 210.247 544.809C210.222 545.189 210.158 545.519 210.057 545.797H194.515V541.617H206.827L204.129 543.593C204.382 542.504 204.37 541.541 204.091 540.705C203.812 539.844 203.318 539.173 202.609 538.691C201.925 538.185 201.076 537.931 200.063 537.931C199.075 537.931 198.226 538.172 197.517 538.653C196.808 539.135 196.276 539.844 195.921 540.781C195.566 541.719 195.427 542.859 195.503 544.201C195.402 545.367 195.541 546.393 195.921 547.279C196.301 548.166 196.884 548.863 197.669 549.369C198.454 549.851 199.404 550.091 200.519 550.091C201.532 550.091 202.394 549.889 203.103 549.483C203.838 549.078 204.408 548.521 204.813 547.811L209.373 549.977C208.968 550.991 208.322 551.877 207.435 552.637C206.574 553.397 205.548 553.993 204.357 554.423C203.166 554.829 201.862 555.031 200.443 555.031ZM218.962 555.031C217.467 555.031 216.175 554.791 215.086 554.309C213.996 553.828 213.16 553.144 212.578 552.257C211.995 551.345 211.704 550.269 211.704 549.027C211.704 547.862 211.97 546.836 212.502 545.949C213.034 545.037 213.844 544.277 214.934 543.669C216.048 543.061 217.429 542.631 219.076 542.377L225.422 541.351V545.531L220.102 546.481C219.291 546.633 218.67 546.899 218.24 547.279C217.809 547.634 217.594 548.153 217.594 548.837C217.594 549.471 217.834 549.965 218.316 550.319C218.797 550.674 219.392 550.851 220.102 550.851C221.039 550.851 221.862 550.649 222.572 550.243C223.281 549.838 223.826 549.293 224.206 548.609C224.611 547.9 224.814 547.127 224.814 546.291V540.895C224.814 540.11 224.497 539.451 223.864 538.919C223.256 538.387 222.42 538.121 221.356 538.121C220.342 538.121 219.443 538.4 218.658 538.957C217.898 539.515 217.34 540.249 216.986 541.161L212.426 538.995C212.831 537.83 213.477 536.829 214.364 535.993C215.25 535.157 216.314 534.511 217.556 534.055C218.797 533.599 220.152 533.371 221.622 533.371C223.37 533.371 224.915 533.688 226.258 534.321C227.6 534.955 228.639 535.841 229.374 536.981C230.134 538.096 230.514 539.401 230.514 540.895V554.575H225.194V551.231L226.486 551.003C225.878 551.915 225.206 552.675 224.472 553.283C223.737 553.866 222.914 554.297 222.002 554.575C221.09 554.879 220.076 555.031 218.962 555.031ZM233.554 554.575V525.809H239.254V544.239L237.126 543.555L246.284 533.827H253.314L245.79 542.187L253.276 554.575H246.816L240.546 544.049L243.852 543.213L237.506 550.129L239.254 546.823V554.575H233.554ZM261.102 555.031C259.607 555.031 258.315 554.791 257.226 554.309C256.136 553.828 255.3 553.144 254.718 552.257C254.135 551.345 253.844 550.269 253.844 549.027C253.844 547.862 254.11 546.836 254.642 545.949C255.174 545.037 255.984 544.277 257.074 543.669C258.188 543.061 259.569 542.631 261.216 542.377L267.562 541.351V545.531L262.242 546.481C261.431 546.633 260.81 546.899 260.38 547.279C259.949 547.634 259.734 548.153 259.734 548.837C259.734 549.471 259.974 549.965 260.456 550.319C260.937 550.674 261.532 550.851 262.242 550.851C263.179 550.851 264.002 550.649 264.712 550.243C265.421 549.838 265.966 549.293 266.346 548.609C266.751 547.9 266.954 547.127 266.954 546.291V540.895C266.954 540.11 266.637 539.451 266.004 538.919C265.396 538.387 264.56 538.121 263.496 538.121C262.482 538.121 261.583 538.4 260.798 538.957C260.038 539.515 259.48 540.249 259.126 541.161L254.566 538.995C254.971 537.83 255.617 536.829 256.504 535.993C257.39 535.157 258.454 534.511 259.696 534.055C260.937 533.599 262.292 533.371 263.762 533.371C265.51 533.371 267.055 533.688 268.398 534.321C269.74 534.955 270.779 535.841 271.514 536.981C272.274 538.096 272.654 539.401 272.654 540.895V554.575H267.334V551.231L268.626 551.003C268.018 551.915 267.346 552.675 266.612 553.283C265.877 553.866 265.054 554.297 264.142 554.575C263.23 554.879 262.216 555.031 261.102 555.031ZM285.878 562.935C284.282 562.935 282.8 562.669 281.432 562.137C280.064 561.605 278.886 560.858 277.898 559.895C276.935 558.958 276.238 557.843 275.808 556.551L281.09 554.689C281.368 555.652 281.938 556.412 282.8 556.969C283.661 557.527 284.687 557.805 285.878 557.805C286.815 557.805 287.626 557.628 288.31 557.273C288.994 556.944 289.513 556.45 289.868 555.791C290.248 555.133 290.438 554.36 290.438 553.473V548.723L291.54 550.091C290.83 551.257 289.918 552.131 288.804 552.713C287.689 553.271 286.384 553.549 284.89 553.549C282.964 553.549 281.242 553.119 279.722 552.257C278.202 551.371 277.011 550.167 276.15 548.647C275.288 547.102 274.858 545.354 274.858 543.403C274.858 541.453 275.288 539.73 276.15 538.235C277.011 536.715 278.189 535.525 279.684 534.663C281.178 533.802 282.876 533.371 284.776 533.371C286.27 533.371 287.575 533.675 288.69 534.283C289.804 534.866 290.754 535.765 291.54 536.981L290.818 538.349V533.827H296.138V553.473C296.138 555.297 295.694 556.919 294.808 558.337C293.921 559.781 292.705 560.909 291.16 561.719C289.64 562.53 287.879 562.935 285.878 562.935ZM285.688 548.381C286.65 548.381 287.486 548.179 288.196 547.773C288.905 547.368 289.45 546.798 289.83 546.063C290.235 545.329 290.438 544.467 290.438 543.479C290.438 542.491 290.235 541.63 289.83 540.895C289.424 540.135 288.867 539.553 288.158 539.147C287.448 538.717 286.625 538.501 285.688 538.501C284.725 538.501 283.864 538.717 283.104 539.147C282.369 539.553 281.786 540.135 281.356 540.895C280.95 541.63 280.748 542.491 280.748 543.479C280.748 544.442 280.95 545.291 281.356 546.025C281.786 546.76 282.369 547.343 283.104 547.773C283.864 548.179 284.725 548.381 285.688 548.381ZM309.188 555.031C306.984 555.031 305.072 554.55 303.45 553.587C301.829 552.599 300.575 551.282 299.688 549.635C298.802 547.989 298.358 546.165 298.358 544.163C298.358 542.086 298.814 540.237 299.726 538.615C300.664 536.994 301.918 535.715 303.488 534.777C305.059 533.84 306.832 533.371 308.808 533.371C310.455 533.371 311.912 533.637 313.178 534.169C314.445 534.676 315.509 535.398 316.37 536.335C317.257 537.273 317.928 538.362 318.384 539.603C318.84 540.819 319.068 542.149 319.068 543.593C319.068 543.999 319.043 544.404 318.992 544.809C318.967 545.189 318.904 545.519 318.802 545.797H303.26V541.617H315.572L312.874 543.593C313.128 542.504 313.115 541.541 312.836 540.705C312.558 539.844 312.064 539.173 311.354 538.691C310.67 538.185 309.822 537.931 308.808 537.931C307.82 537.931 306.972 538.172 306.262 538.653C305.553 539.135 305.021 539.844 304.666 540.781C304.312 541.719 304.172 542.859 304.248 544.201C304.147 545.367 304.286 546.393 304.666 547.279C305.046 548.166 305.629 548.863 306.414 549.369C307.2 549.851 308.15 550.091 309.264 550.091C310.278 550.091 311.139 549.889 311.848 549.483C312.583 549.078 313.153 548.521 313.558 547.811L318.118 549.977C317.713 550.991 317.067 551.877 316.18 552.637C315.319 553.397 314.293 553.993 313.102 554.423C311.912 554.829 310.607 555.031 309.188 555.031Z" fill="white"/>
<rect width="25" height="5" rx="2.5" transform="matrix(1 0 0 -1 137.873 596.575)" fill="white"/>
<circle cx="2.5" cy="2.5" r="2.5" transform="matrix(1 0 0 -1 173.873 596.575)" fill="#D9D9EB"/>
<circle cx="2.5" cy="2.5" r="2.5" transform="matrix(1 0 0 -1 189.873 596.575)" fill="#D9D9EB"/>
</svg>
