<svg width="43" height="43" viewBox="0 0 43 43" fill="none" xmlns="http://www.w3.org/2000/svg">
<path d="M34.4985 33.6035C35.963 32.1852 37.1275 30.4869 37.9227 28.6096C38.718 26.7324 39.1278 24.7144 39.1278 22.6756C39.1278 20.6369 38.718 18.6189 37.9227 16.7417C37.1275 14.8644 35.963 13.1661 34.4985 11.7478C31.5305 8.83318 27.537 7.2002 23.3772 7.2002C19.2175 7.2002 15.2239 8.83318 12.256 11.7478C10.7917 13.1662 9.6274 14.8646 8.83228 16.7418C8.03717 18.619 7.62744 20.6369 7.62744 22.6756C7.62744 24.7143 8.03717 26.7322 8.83228 28.6095C9.6274 30.4867 10.7917 32.185 12.256 33.6035" fill="#2100EC" fill-opacity="0.5"/>
<path d="M32.7485 30.1025C34.213 28.6842 35.3775 26.9859 36.1727 25.1087C36.968 23.2314 37.3778 21.2134 37.3778 19.1747C37.3778 17.1359 36.968 15.1179 36.1727 13.2407C35.3775 11.3634 34.213 9.66515 32.7485 8.24679C29.7805 5.3322 25.787 3.69922 21.6272 3.69922C17.4675 3.69922 13.4739 5.3322 10.506 8.24679C9.04168 9.66527 7.8774 11.3636 7.08228 13.2408C6.28717 15.1181 5.87744 17.136 5.87744 19.1747C5.87744 21.2134 6.28717 23.2313 7.08228 25.1085C7.8774 26.9858 9.04168 28.6841 10.506 30.1025" stroke="black" stroke-width="2" stroke-linecap="round" stroke-linejoin="round"/>
<path d="M21.6274 10.7002V12.8877" stroke="white" stroke-width="2" stroke-linecap="round" stroke-linejoin="round"/>
<path d="M21.6274 28.2002V26.0127" stroke="white" stroke-width="2" stroke-linecap="round" stroke-linejoin="round"/>
<path d="M25.9798 15.9502C25.9269 15.1214 25.5607 14.3438 24.9556 13.7751C24.3505 13.2064 23.5517 12.8891 22.7213 12.8877H20.3238C19.5735 12.8864 18.8487 13.1598 18.2862 13.6563C17.7237 14.1528 17.3624 14.838 17.2705 15.5826C17.1785 16.3272 17.3623 17.0797 17.7871 17.6981C18.212 18.3164 18.8485 18.7579 19.5765 18.9392L23.6768 19.9682C24.4048 20.1495 25.0413 20.591 25.4661 21.2094C25.8909 21.8277 26.0747 22.5802 25.9828 23.3248C25.8908 24.0694 25.5295 24.7546 24.967 25.2511C24.4045 25.7476 23.6798 26.021 22.9295 26.0197H20.532C19.7003 26.0182 18.9003 25.7 18.2947 25.1299C17.6891 24.5597 17.3233 23.7804 17.2718 22.9502" stroke="white" stroke-width="2" stroke-linecap="round" stroke-linejoin="round"/>
</svg>
