<svg width="43" height="43" viewBox="0 0 43 43" fill="none" xmlns="http://www.w3.org/2000/svg">
<path d="M16.2076 22.4482C14.7687 22.4482 13.352 22.8031 12.083 23.4813C10.814 24.1596 9.73184 25.1403 8.93237 26.3367C8.13291 27.5331 7.64083 28.9081 7.49971 30.3401C7.35859 31.7721 7.57279 33.2167 8.12333 34.5461C8.67388 35.8756 9.54378 37.0487 10.656 37.9616C11.7682 38.8745 13.0884 39.4991 14.4996 39.7799C15.9108 40.0608 17.3695 39.9893 18.7465 39.5718C20.1235 39.1542 21.3763 38.4036 22.3939 37.3862H26.1284C27.1462 38.4038 28.3993 39.1545 29.7766 39.572C31.1539 39.9895 32.6129 40.0608 34.0244 39.7796C35.4359 39.4984 36.7562 38.8734 37.8683 37.9599C38.9805 37.0465 39.8502 35.8728 40.4003 34.5429C40.9504 33.213 41.164 31.7679 41.0221 30.3357C40.8803 28.9035 40.3873 27.5285 39.587 26.3323C38.7866 25.1362 37.7036 24.1559 36.4339 23.4784C35.1641 22.8009 33.7468 22.4471 32.3076 22.4482H16.2076Z" fill="#D0F500"/>
<path d="M14.0825 30.5276V25.8726" stroke="black" stroke-width="2" stroke-linecap="round" stroke-linejoin="round"/>
<path d="M11.7549 28.2002H16.4099" stroke="black" stroke-width="2" stroke-linecap="round" stroke-linejoin="round"/>
<path d="M13.9073 19.4502C12.4684 19.4502 11.0517 19.805 9.78273 20.4833C8.51371 21.1615 7.43154 22.1423 6.63208 23.3386C5.83262 24.535 5.34053 25.9101 5.19941 27.342C5.05829 28.774 5.27249 30.2187 5.82304 31.5481C6.37359 32.8775 7.24349 34.0506 8.3557 34.9636C9.4679 35.8765 10.7881 36.501 12.1993 36.7819C13.6105 37.0628 15.0692 36.9913 16.4462 36.5737C17.8232 36.1562 19.076 35.4055 20.0936 34.3882H23.8281C24.8459 35.4057 26.099 36.1565 27.4763 36.574C28.8536 36.9915 30.3126 37.0628 31.7241 36.7815C33.1356 36.5003 34.4559 35.8753 35.568 34.9619C36.6802 34.0484 37.5499 32.8748 38.1 31.5449C38.6501 30.2149 38.8637 28.7699 38.7218 27.3377C38.58 25.9055 38.087 24.5304 37.2867 23.3343C36.4863 22.1381 35.4033 21.1579 34.1336 20.4804C32.8638 19.8029 31.4465 19.449 30.0073 19.4502H13.9073Z" stroke="black" stroke-width="2" stroke-linecap="round" stroke-linejoin="round"/>
<path d="M31.2937 29.6299C31.3802 29.6302 31.4646 29.6562 31.5363 29.7045C31.608 29.7527 31.6638 29.8212 31.6967 29.9012C31.7295 29.9811 31.7379 30.0691 31.7209 30.1538C31.7038 30.2386 31.662 30.3163 31.6007 30.3774C31.5395 30.4384 31.4615 30.4799 31.3767 30.4966C31.2919 30.5133 31.204 30.5046 31.1242 30.4714C31.0443 30.4382 30.9761 30.3822 30.9281 30.3103C30.8801 30.2384 30.8545 30.1538 30.8545 30.0674C30.8554 29.9513 30.902 29.8403 30.9843 29.7584C31.0665 29.6765 31.1777 29.6303 31.2937 29.6299" stroke="black" stroke-width="2" stroke-linecap="round" stroke-linejoin="round"/>
<path d="M27.5579 25.8955C27.6444 25.8959 27.7288 25.9218 27.8005 25.9701C27.8722 26.0184 27.928 26.0868 27.9608 26.1668C27.9937 26.2468 28.0021 26.3347 27.985 26.4194C27.968 26.5042 27.9261 26.582 27.8649 26.643C27.8036 26.704 27.7257 26.7455 27.6409 26.7622C27.556 26.779 27.4682 26.7702 27.3883 26.737C27.3085 26.7039 27.2403 26.6478 27.1923 26.5759C27.1443 26.504 27.1187 26.4195 27.1187 26.333C27.1196 26.217 27.1662 26.1059 27.2484 26.024C27.3307 25.9422 27.4418 25.896 27.5579 25.8955" stroke="black" stroke-width="2" stroke-linecap="round" stroke-linejoin="round"/>
<path d="M21.9575 19.4502V16.8252C21.9575 15.6649 22.4185 14.5521 23.2389 13.7316C24.0594 12.9111 25.1722 12.4502 26.3325 12.4502C26.9071 12.4502 27.476 12.337 28.0068 12.1172C28.5376 11.8973 29.0199 11.575 29.4261 11.1688C29.8324 10.7625 30.1546 10.2802 30.3745 9.74944C30.5944 9.21864 30.7075 8.64973 30.7075 8.0752V5.4502" stroke="black" stroke-width="2" stroke-linecap="round" stroke-linejoin="round"/>
</svg>
