<svg width="43" height="43" viewBox="0 0 43 43" fill="none" xmlns="http://www.w3.org/2000/svg">
<path d="M10.6717 22.2558C10.0106 22.28 9.35438 22.1335 8.76639 21.8304C8.17839 21.5272 7.67844 21.0776 7.31473 20.5251C6.95102 19.9725 6.73584 19.3355 6.68994 18.6755C6.64404 18.0156 6.76897 17.3549 7.05267 16.7573L10.0539 10.8476C10.4086 10.1755 10.9417 9.61418 11.5947 9.22546C12.2477 8.83675 12.9953 8.63566 13.7552 8.64431H34.5382C35.2981 8.63566 36.0456 8.83675 36.6986 9.22546C37.3516 9.61418 37.8848 10.1755 38.2394 10.8476L41.2424 16.7573C41.5262 17.3551 41.6511 18.0159 41.6052 18.676C41.5592 19.3361 41.3438 19.9732 40.9799 20.5258C40.616 21.0785 40.1158 21.528 39.5276 21.831C38.9393 22.1341 38.2829 22.2804 37.6217 22.2558C36.526 22.3414 35.4406 21.9923 34.6003 21.2839C33.76 20.5756 33.2322 19.5649 33.1312 18.4706V18.3866C33.0426 19.4927 32.5214 20.5193 31.6807 21.2436C30.8401 21.968 29.7478 22.3317 28.6407 22.2558C27.533 22.3326 26.4398 21.9694 25.5983 21.2449C24.7569 20.5205 24.2353 19.4933 24.1467 18.3866C24.0581 19.4927 23.5369 20.5193 22.6963 21.2436C21.8556 21.968 20.7633 22.3317 19.6562 22.2558C18.5497 22.3307 17.4582 21.9666 16.6183 21.2423C15.7785 20.5181 15.2578 19.492 15.1692 18.3866V18.4706C15.0638 19.5645 14.5338 20.5735 13.693 21.2812C12.8522 21.9888 11.7675 22.3387 10.6717 22.2558Z" fill="#FF564B" fill-opacity="0.7"/>
<path d="M7.53174 19.2578V36.7578" stroke="black" stroke-width="2" stroke-linecap="round" stroke-linejoin="round"/>
<path d="M34.7612 19.2578V36.7578" stroke="black" stroke-width="2" stroke-linecap="round" stroke-linejoin="round"/>
<path d="M25.0348 36.7563V28.9793C25.0348 27.948 24.6251 26.959 23.8959 26.2297C23.1667 25.5005 22.1776 25.0908 21.1463 25.0908C20.115 25.0908 19.126 25.5005 18.3967 26.2297C17.6675 26.959 17.2578 27.948 17.2578 28.9793V36.7563" stroke="black" stroke-width="2" stroke-linecap="round" stroke-linejoin="round"/>
<path d="M3.64648 36.7578H38.6465" stroke="black" stroke-width="2" stroke-linecap="round" stroke-linejoin="round"/>
<path d="M7.67167 19.2558C7.01057 19.28 6.35438 19.1335 5.76639 18.8304C5.17839 18.5272 4.67844 18.0776 4.31473 17.5251C3.95102 16.9725 3.73584 16.3355 3.68994 15.6755C3.64404 15.0156 3.76897 14.3549 4.05267 13.7573L7.05392 7.84756C7.40858 7.17545 7.94172 6.61418 8.59473 6.22546C9.24773 5.83675 9.99528 5.63566 10.7552 5.64431H31.5382C32.2981 5.63566 33.0456 5.83675 33.6986 6.22546C34.3516 6.61418 34.8848 7.17545 35.2394 7.84756L38.2424 13.7573C38.5262 14.3551 38.6511 15.0159 38.6052 15.676C38.5592 16.3361 38.3438 16.9732 37.9799 17.5258C37.616 18.0785 37.1158 18.528 36.5276 18.831C35.9393 19.1341 35.2829 19.2804 34.6217 19.2558C33.526 19.3414 32.4406 18.9923 31.6003 18.2839C30.76 17.5756 30.2322 16.5649 30.1312 15.4706V15.3866C30.0426 16.4927 29.5214 17.5193 28.6808 18.2436C27.8401 18.968 26.7478 19.3317 25.6407 19.2558C24.533 19.3326 23.4398 18.9694 22.5983 18.2449C21.7569 17.5205 21.2353 16.4933 21.1467 15.3866C21.0581 16.4927 20.5369 17.5193 19.6963 18.2436C18.8556 18.968 17.7633 19.3317 16.6562 19.2558C15.5497 19.3307 14.4582 18.9666 13.6183 18.2423C12.7785 17.5181 12.2578 16.492 12.1692 15.3866V15.4706C12.0638 16.5645 11.5338 17.5735 10.693 18.2812C9.8522 18.9888 8.76752 19.3387 7.67167 19.2558V19.2558Z" stroke="black" stroke-width="2" stroke-linecap="round" stroke-linejoin="round"/>
</svg>
