<svg width="334" height="374" viewBox="0 0 334 374" fill="none" xmlns="http://www.w3.org/2000/svg">
<path d="M330.2 113.89L325.977 120.043C321.093 127.169 309.682 129.264 296.56 124.44C279.292 118.088 265.587 102.141 265.961 88.8271C266.048 85.6291 266.943 82.8655 268.49 80.6147L272.714 74.4619C271.167 76.7127 270.271 79.4763 270.185 82.6743C269.811 95.988 283.516 111.935 300.783 118.288C313.906 123.119 325.316 121.016 330.2 113.89Z" fill="#A66CFF" stroke="black" stroke-width="1.19911" stroke-linecap="round" stroke-linejoin="round"/>
<path d="M270.185 82.6743C270.272 79.4763 271.167 76.7127 272.714 74.4619L268.49 80.6147C266.943 82.8655 266.048 85.6291 265.961 88.8271C265.735 96.8397 270.619 105.808 278.31 113.065L281.265 105.678C274.313 98.656 269.976 90.235 270.185 82.6656V82.6743Z" fill="black"/>
<path d="M302.138 70.0558C319.415 76.4084 333.111 92.3553 332.737 105.678C332.364 118.991 318.068 124.64 300.791 118.287C283.524 111.935 269.819 95.9879 270.193 82.6742C270.566 69.3518 284.871 63.7118 302.138 70.0644V70.0558Z" fill="white" stroke="black" stroke-width="1.19911" stroke-linecap="round" stroke-linejoin="round"/>
<path d="M302.138 70.0559C284.87 63.7032 270.566 69.352 270.192 82.6657C269.984 90.235 274.32 98.6473 281.273 105.678L323.108 84.1865C317.651 78.1988 310.298 73.0628 302.138 70.0646V70.0559Z" fill="black" stroke="black" stroke-width="1.19911" stroke-linecap="round" stroke-linejoin="round"/>
<path d="M114.94 140.523C106.579 140.41 103.077 146.215 107.118 153.489L160.721 249.926C164.762 257.2 174.808 263.179 183.177 263.292L294.04 264.787C302.4 264.9 305.902 259.094 301.861 251.821L248.259 155.383C244.218 148.109 234.163 142.13 225.803 142.017L114.94 140.523Z" fill="black" stroke="black" stroke-width="1.19911" stroke-linecap="round" stroke-linejoin="round"/>
<path d="M208.978 237.003C209.413 238.089 208.909 239.758 207.857 240.705L203.199 244.903L201.27 240.071C200.835 238.985 201.339 237.316 202.4 236.36L207.058 232.163L208.978 236.994V237.003Z" fill="#D0F500" stroke="#D0F500" stroke-width="1.19911" stroke-linecap="round" stroke-linejoin="round"/>
<path d="M215.331 244.416C216.383 243.469 216.887 241.8 216.452 240.714L214.531 235.882L207.058 232.172L208.978 237.003C209.413 238.09 208.909 239.758 207.857 240.705L203.199 244.903L210.673 248.614L215.331 244.416Z" fill="#A66CFF"/>
<path d="M226.767 214.391L207.058 232.171L205.137 227.339C204.703 226.244 205.207 224.576 206.258 223.628L222.153 209.298C223.204 208.351 224.421 208.464 224.856 209.567L226.776 214.399L226.767 214.391Z" fill="#D0F500" stroke="#D0F500" stroke-width="1.19911" stroke-linecap="round" stroke-linejoin="round"/>
<path d="M226.767 214.391L234.241 218.093L214.531 235.874L207.058 232.163L226.767 214.391Z" fill="#A66CFF"/>
<path d="M232.32 213.261C232.172 212.887 231.938 212.635 231.651 212.488L224.177 208.777C224.464 208.916 224.699 209.177 224.846 209.55L226.767 214.382L234.241 218.093L232.32 213.261Z" fill="#A66CFF"/>
<path d="M226.767 214.391L231.426 210.193C232.477 209.238 233.694 209.359 234.128 210.445L236.049 215.277L231.382 219.484C230.331 220.431 229.114 220.309 228.679 219.223L226.759 214.391H226.767Z" fill="#D0F500" stroke="#D0F500" stroke-width="1.19911" stroke-linecap="round" stroke-linejoin="round"/>
<path d="M236.049 215.277L243.522 218.988L239.186 223.446C238.743 223.907 237.909 224.055 237.335 223.776L229.635 220.092C229.635 220.092 230.348 220.431 231.391 219.492L236.049 215.286V215.277Z" fill="#A66CFF"/>
<path d="M241.602 214.147C241.454 213.782 241.22 213.521 240.933 213.382L233.459 209.672C233.746 209.811 233.98 210.071 234.128 210.436L236.049 215.268L243.522 218.979L241.602 214.147Z" fill="#A66CFF"/>
<path d="M249.962 227.826C250.397 228.921 249.893 230.59 248.841 231.537L244.183 235.734L236.049 215.277L240.707 211.08C241.758 210.133 242.975 210.254 243.41 211.349L249.962 227.835V227.826Z" fill="#D0F500" stroke="#D0F500" stroke-width="1.19911" stroke-linecap="round" stroke-linejoin="round"/>
<path d="M256.324 235.239C257.375 234.292 257.879 232.623 257.445 231.528L250.892 215.043C250.745 214.669 250.51 214.417 250.223 214.269L242.75 210.558C243.036 210.698 243.271 210.958 243.419 211.332L249.971 227.818C250.406 228.913 249.902 230.581 248.85 231.528L244.192 235.726L251.666 239.437L256.324 235.239Z" fill="#A66CFF"/>
<path d="M211.333 265.369L206.667 269.575C205.615 270.522 204.399 270.409 203.964 269.305L197.411 252.82C196.977 251.725 197.481 250.056 198.533 249.109L203.191 244.911L211.333 265.369Z" fill="#D0F500" stroke="#D0F500" stroke-width="1.19911" stroke-linecap="round" stroke-linejoin="round"/>
<path d="M218.807 269.071L211.334 265.36L206.667 269.566C205.972 270.192 205.207 270.357 204.642 270.07L212.116 273.781C212.681 274.059 213.445 273.903 214.141 273.277L218.807 269.071Z" fill="#A66CFF"/>
<path d="M203.19 244.911L210.664 248.622L218.807 269.07L211.333 265.368L203.19 244.911Z" fill="#A66CFF"/>
<path d="M246.113 240.566C246.547 241.652 246.043 243.321 244.983 244.277L240.325 248.474L238.404 243.642C237.97 242.556 238.474 240.887 239.525 239.94L244.192 235.734L246.113 240.566Z" fill="#D0F500" stroke="#D0F500" stroke-width="1.19911" stroke-linecap="round" stroke-linejoin="round"/>
<path d="M252.456 247.988C253.508 247.032 254.021 245.363 253.586 244.277L251.666 239.445L244.192 235.734L246.113 240.566C246.547 241.652 246.043 243.321 244.983 244.277L240.325 248.474L247.798 252.185L252.456 247.988Z" fill="#A66CFF"/>
<path d="M218.025 260.658L225.499 264.369C225.785 264.508 226.02 264.769 226.168 265.134L218.694 261.423C218.546 261.058 218.312 260.797 218.025 260.658Z" fill="#A66CFF"/>
<path d="M220.615 266.255L215.957 270.453C214.906 271.409 213.689 271.287 213.255 270.201L211.334 265.369L216.001 261.163C217.052 260.215 218.269 260.337 218.703 261.423L220.624 266.255H220.615Z" fill="#D0F500" stroke="#D0F500" stroke-width="1.19911" stroke-linecap="round" stroke-linejoin="round"/>
<path d="M228.089 269.966L220.615 266.255L215.957 270.453C215.253 271.087 214.488 271.243 213.923 270.965L221.397 274.676C221.962 274.954 222.735 274.798 223.431 274.163L228.089 269.966Z" fill="#A66CFF"/>
<path d="M218.694 261.423L226.168 265.134L228.089 269.966L220.615 266.255L218.694 261.423Z" fill="#A66CFF"/>
<path d="M242.246 253.315C242.68 254.402 242.176 256.07 241.124 257.018L225.23 271.348C224.178 272.295 222.962 272.182 222.527 271.087L220.606 266.255L240.316 248.475L242.237 253.307L242.246 253.315Z" fill="#D0F500" stroke="#D0F500" stroke-width="1.19911" stroke-linecap="round" stroke-linejoin="round"/>
<path d="M248.598 260.728C249.65 259.78 250.154 258.112 249.719 257.025L247.799 252.194L240.325 248.483L242.246 253.315C242.68 254.401 242.176 256.07 241.125 257.017L225.23 271.347C224.535 271.973 223.761 272.138 223.196 271.851L230.67 275.562C231.235 275.84 232.008 275.684 232.704 275.058L248.598 260.728Z" fill="#A66CFF"/>
<path d="M239.968 146.849C235.606 143.955 230.444 142.078 225.803 142.017L114.94 140.523C106.579 140.41 103.077 146.215 107.118 153.489L137.526 208.186L239.968 146.849Z" fill="#A66CFF"/>
<path d="M107.127 153.489L160.729 249.926C164.77 257.2 174.816 263.179 183.185 263.292L294.049 264.787C298.255 264.847 301.227 263.405 302.635 261.032L238.552 368.819C237.144 371.192 234.172 372.634 229.966 372.574L119.102 371.079C110.742 370.966 100.687 364.978 96.6464 357.713L43.0441 261.276C41.0366 257.661 40.8888 254.41 42.2706 252.073L106.354 144.286C104.972 146.632 105.111 149.882 107.127 153.489Z" fill="#D0F500"/>
<path d="M106.588 367.272C102.391 364.839 98.7321 361.45 96.6551 357.722L43.0441 261.276C41.0366 257.661 40.8888 254.41 42.2706 252.073L106.354 144.286C104.972 146.632 105.111 149.882 107.127 153.489L160.729 249.926C162.815 253.68 166.5 257.078 170.732 259.512L106.588 367.264V367.272Z" fill="#FF4085"/>
<path d="M107.127 153.489L160.729 249.926C164.77 257.2 174.816 263.179 183.185 263.292L294.049 264.787C298.255 264.847 301.227 263.405 302.635 261.032L238.552 368.819C237.144 371.192 234.172 372.634 229.966 372.574L119.102 371.079C110.742 370.966 100.687 364.978 96.6464 357.713L43.0441 261.276C41.0366 257.661 40.8888 254.41 42.2706 252.073L106.354 144.286C104.972 146.632 105.111 149.882 107.127 153.489Z" stroke="black" stroke-width="1.19911" stroke-linecap="round" stroke-linejoin="round"/>
<path d="M301.871 251.82L248.268 155.383C244.227 148.109 234.173 142.13 225.812 142.017L114.949 140.523C106.589 140.41 103.087 146.215 107.136 153.489L160.739 249.926C164.78 257.2 174.826 263.179 183.195 263.292L294.058 264.787C302.418 264.9 305.921 259.094 301.879 251.82H301.871ZM287.306 255.41L179.536 253.958C176.269 253.915 172.297 251.542 170.715 248.692L118.634 155.001C117.044 152.15 118.417 149.847 121.684 149.891L229.454 151.342C232.721 151.386 236.693 153.758 238.275 156.609L290.356 250.3C291.946 253.15 290.573 255.453 287.306 255.41Z" fill="#EBE9E9" stroke="black" stroke-width="1.19911" stroke-linecap="round" stroke-linejoin="round"/>
<path d="M118.833 212.532C119.616 213.949 119.39 216.599 118.321 218.424L113.584 226.515L106.91 237.917L102.174 246.007C101.105 247.841 99.5842 248.171 98.7934 246.763L96.7337 243.061C95.9516 241.645 96.1776 238.994 97.2552 237.161L101.991 229.07L108.666 217.668L113.402 209.577C114.471 207.752 115.992 207.422 116.774 208.83L118.833 212.532Z" fill="black"/>
<path d="M133.59 239.08C134.381 240.505 134.146 243.156 133.086 244.981L128.35 253.072L121.675 264.474L116.939 272.564C115.87 274.398 114.349 274.728 113.559 273.312L111.508 269.618C110.717 268.193 110.951 265.542 112.02 263.709L116.757 255.618L123.431 244.216L128.167 236.126C129.236 234.301 130.757 233.97 131.539 235.387L133.59 239.08Z" fill="black"/>
<path d="M87.2087 249.301C87.9908 250.717 87.7649 253.368 86.6873 255.202L81.951 263.292L78.4662 257.018C77.684 255.601 77.91 252.951 78.9876 251.117L81.7772 246.355C82.8461 244.521 84.3669 244.191 85.1578 245.599L87.2174 249.301H87.2087Z" fill="black"/>
<path d="M101.635 298.688L96.8986 306.778C95.8297 308.603 94.3089 308.934 93.5181 307.517L90.0332 301.243L85.1145 292.396L80.1957 283.54L76.7109 277.266C75.9287 275.849 76.1547 273.199 77.2236 271.374L81.9599 263.283L86.8786 272.13L91.7974 280.985L96.7161 289.832L101.635 298.688Z" fill="black"/>
<path d="M111.803 293.552C112.586 294.969 112.36 297.619 111.282 299.453L108.492 304.216C107.423 306.049 105.903 306.379 105.112 304.972L101.627 298.697L106.363 290.606C107.432 288.773 108.953 288.442 109.744 289.85L111.803 293.552Z" fill="black"/>
<path d="M96.5251 105.513L194.005 106.826C201.357 106.921 212.385 103.558 218.643 99.3084L301.644 42.9338C307.902 38.6842 307.015 35.1559 299.672 35.0603L202.192 33.7481C194.84 33.6525 183.811 37.0157 177.554 41.2653L94.5524 97.6399C88.2953 101.889 89.1817 105.418 96.5251 105.513Z" fill="#EBE9E9" stroke="black" stroke-width="1.19911" stroke-linecap="round" stroke-linejoin="round"/>
<path d="M109.917 100.603L195.465 101.751C200.844 101.82 208.927 99.3607 213.506 96.2495L287.036 46.3058C291.624 43.1947 290.973 40.6136 285.585 40.5354L200.036 39.3883C194.657 39.3188 186.575 41.7781 181.995 44.8893L108.466 94.833C103.886 97.9442 104.529 100.525 109.917 100.603Z" fill="#A66CFF" stroke="black" stroke-width="1.19911" stroke-linecap="round" stroke-linejoin="round"/>
<path d="M287.036 46.3051C291.624 43.1939 290.973 40.6129 285.585 40.5347L265.136 40.2566L199.541 80.3888L204.781 100.186C208.049 99.1861 211.221 97.7957 213.506 96.2401L287.036 46.2964V46.3051Z" fill="black"/>
<path d="M181.995 44.8977L112.672 91.9823L193.44 93.0686C198.82 93.1381 206.902 90.6787 211.482 87.5589L280.805 40.4743L200.036 39.388C194.657 39.3185 186.575 41.7779 181.995 44.8977Z" fill="#A66CFF" stroke="black" stroke-width="1.19911" stroke-linecap="round" stroke-linejoin="round"/>
<path d="M299.671 35.0601L202.191 33.7479C194.839 33.6523 183.811 37.0155 177.554 41.2651L94.552 97.6396C91.406 99.7775 90.059 101.733 90.4414 103.158L81.7858 70.4127C81.4034 68.9874 82.7417 67.0321 85.8963 64.8942L168.89 8.51967C175.147 4.27006 186.183 0.906882 193.527 1.00248L291.007 2.31473C294.657 2.36687 296.717 3.26198 297.09 4.66982L305.746 37.4152C305.372 36.0074 303.313 35.1123 299.663 35.0601H299.671Z" fill="white"/>
<path d="M186.504 36.8935L177.91 4.09595" stroke="#A66CFF" stroke-width="1.19911" stroke-linecap="round" stroke-linejoin="round"/>
<path d="M180.448 3.24434C185.019 1.81912 189.755 0.95008 193.527 1.00222L291.007 2.31447C294.657 2.36661 296.717 3.26172 297.09 4.66957L305.746 37.415C305.372 36.0071 303.313 35.112 299.663 35.0599L202.182 33.7476C198.393 33.6955 193.622 34.5732 189.034 36.0071L180.448 3.24434Z" fill="#A66CFF"/>
<path d="M299.671 35.0601L202.191 33.7479C194.839 33.6523 183.811 37.0155 177.554 41.2651L94.552 97.6397C91.406 99.7775 90.059 101.733 90.4414 103.158L81.7858 70.4127C81.4034 68.9874 82.7417 67.0321 85.8963 64.8942L168.89 8.51967C175.147 4.27006 186.183 0.906882 193.527 1.00248L291.007 2.31473C294.657 2.36687 296.717 3.26198 297.09 4.66982L305.746 37.4152C305.372 36.0074 303.313 35.1123 299.663 35.0601H299.671Z" stroke="black" stroke-width="1.19911" stroke-linecap="round" stroke-linejoin="round"/>
<path d="M249.336 155.965C266.126 152.698 275.686 154.731 270.68 160.51C265.674 166.281 247.998 173.607 231.208 176.874C214.41 180.142 204.85 178.109 209.856 172.329C214.862 166.55 232.538 159.224 249.336 155.965Z" fill="#EBE9E9" stroke="black" stroke-width="1.19911" stroke-linecap="round" stroke-linejoin="round"/>
<path d="M271.931 157.199L274.39 165.646C274.651 166.55 274.26 167.654 273.139 168.957C268.133 174.728 250.457 182.054 233.667 185.321C220.64 187.85 211.967 187.199 211.063 184.087L208.604 175.64C209.508 178.752 218.181 179.403 231.208 176.874C247.998 173.607 265.674 166.281 270.679 160.51C271.801 159.216 272.192 158.103 271.931 157.199Z" fill="#A66CFF" stroke="black" stroke-width="1.19911" stroke-linecap="round" stroke-linejoin="round"/>
<path d="M219.198 178.387C213.037 178.63 209.187 177.648 208.596 175.641L211.056 184.088C211.629 186.069 215.375 187.051 221.38 186.851L219.198 178.396V178.387Z" fill="black"/>
<path d="M319.316 195L310.339 201.628L316.967 210.605L325.944 203.977L319.316 195Z" fill="white"/>
<path d="M8.97675 113.902L0 120.53L6.62791 129.507L15.6047 122.879L8.97675 113.902Z" fill="white"/>
<path d="M331.098 157.462L322.801 150L315.339 158.296L323.635 165.758L331.098 157.462Z" fill="#2100EC"/>
<path d="M195.686 176.161L187.39 168.699L179.928 176.995L188.224 184.457L195.686 176.161Z" fill="#D0F500"/>
<path d="M51.121 171.537L42.8247 164.075L35.3626 172.371L43.6588 179.833L51.121 171.537Z" fill="#2100EC"/>
<path d="M209.297 118.021L199.082 113.531L194.592 123.746L204.807 128.236L209.297 118.021Z" fill="#FF4085"/>
<path d="M50.8732 72.4236L40.6582 67.9331L36.1677 78.1482L46.3828 82.6386L50.8732 72.4236Z" fill="#A66CFF"/>
</svg>
