<svg width="32" height="32" viewBox="0 0 32 32" fill="none" xmlns="http://www.w3.org/2000/svg">
<path d="M6.66724 26.6657C6.66724 25.0931 7.29193 23.585 8.4039 22.473C9.51586 21.361 11.024 20.7363 12.5966 20.7363H19.4046C20.9771 20.7363 22.4853 21.361 23.5972 22.473C24.7092 23.585 25.3339 25.0931 25.3339 26.6657V26.6657" stroke="black" stroke-width="2" stroke-linecap="round" stroke-linejoin="round"/>
<path d="M20.0073 6.99213C20.7999 7.7846 21.3397 8.7943 21.5584 9.89354C21.7771 10.9928 21.6649 12.1322 21.236 13.1677C20.8072 14.2032 20.0809 15.0883 19.149 15.7109C18.2171 16.3336 17.1214 16.666 16.0007 16.666C14.8799 16.666 13.7842 16.3336 12.8523 15.7109C11.9204 15.0883 11.1941 14.2032 10.7653 13.1677C10.3364 12.1322 10.2242 10.9928 10.4429 9.89354C10.6616 8.7943 11.2014 7.7846 11.994 6.99213C13.0567 5.92959 14.4979 5.33267 16.0007 5.33267C17.5034 5.33267 18.9446 5.92959 20.0073 6.99213" stroke="black" stroke-width="2" stroke-linecap="round" stroke-linejoin="round"/>
</svg>
