<svg width="515" height="103" viewBox="0 0 515 103" fill="none" xmlns="http://www.w3.org/2000/svg">
<g filter="url(#filter0_i_1_17697)">
<circle cx="53" cy="39" r="32" fill="black"/>
</g>
<circle cx="53" cy="39" r="31.25" stroke="black" stroke-width="1.5"/>
<path d="M57 38.9999C57 39.7911 56.7654 40.5644 56.3258 41.2222C55.8863 41.88 55.2616 42.3927 54.5307 42.6955C53.7998 42.9982 52.9955 43.0774 52.2196 42.9231C51.4437 42.7687 50.7309 42.3878 50.1715 41.8284C49.6121 41.269 49.2312 40.5562 49.0768 39.7803C48.9225 39.0044 49.0017 38.2001 49.3044 37.4692C49.6072 36.7383 50.1199 36.1136 50.7777 35.6741C51.4355 35.2345 52.2088 34.9999 53 34.9999C54.0608 34.9999 55.0782 35.4214 55.8284 36.1715C56.5785 36.9217 57 37.9391 57 38.9999ZM57 38.9999V40.4999C57 41.163 57.2634 41.7989 57.7322 42.2677C58.201 42.7365 58.8369 42.9999 59.5 42.9999C60.163 42.9999 60.7989 42.7365 61.2677 42.2677C61.7366 41.7989 62 41.163 62 40.4999V38.9999C62.007 36.9737 61.3336 35.0038 60.0877 33.4059C58.8419 31.808 57.0956 30.6745 55.1289 30.1872C53.1621 29.6999 51.0887 29.8869 49.2409 30.7183C47.3931 31.5497 45.8779 32.9773 44.9381 34.7723C43.9982 36.5674 43.6882 38.626 44.0577 40.6183C44.4272 42.6105 45.4547 44.4211 46.9757 45.7598C48.4967 47.0985 50.4231 47.8879 52.4461 48.0014C54.4691 48.115 56.4717 47.5461 58.133 46.3859" stroke="white" stroke-width="1.5" stroke-linecap="round" stroke-linejoin="round"/>
<path d="M36.6302 98V87.57H43.5602V89.25H38.5342V91.924H43.2802V93.604H38.5342V96.32H43.5602V98H36.6302ZM44.3824 98V90.384H46.1044V92.148L45.9084 91.854C46.0484 91.3033 46.3284 90.8927 46.7484 90.622C47.1684 90.3513 47.6631 90.216 48.2324 90.216C48.8577 90.216 49.4084 90.3793 49.8844 90.706C50.3604 91.0327 50.6684 91.462 50.8084 91.994L50.2904 92.036C50.5237 91.4293 50.8737 90.9767 51.3404 90.678C51.8071 90.37 52.3437 90.216 52.9504 90.216C53.4917 90.216 53.9724 90.3373 54.3924 90.58C54.8217 90.8227 55.1577 91.1633 55.4004 91.602C55.6431 92.0313 55.7644 92.5307 55.7644 93.1V98H53.9304V93.534C53.9304 93.198 53.8697 92.9087 53.7484 92.666C53.6271 92.4233 53.4591 92.2367 53.2444 92.106C53.0297 91.966 52.7684 91.896 52.4604 91.896C52.1711 91.896 51.9144 91.966 51.6904 92.106C51.4664 92.2367 51.2937 92.4233 51.1724 92.666C51.0511 92.9087 50.9904 93.198 50.9904 93.534V98H49.1564V93.534C49.1564 93.198 49.0957 92.9087 48.9744 92.666C48.8531 92.4233 48.6804 92.2367 48.4564 92.106C48.2417 91.966 47.9851 91.896 47.6864 91.896C47.3971 91.896 47.1404 91.966 46.9164 92.106C46.6924 92.2367 46.5197 92.4233 46.3984 92.666C46.2771 92.9087 46.2164 93.198 46.2164 93.534V98H44.3824ZM59.206 98.168C58.674 98.168 58.212 98.0793 57.82 97.902C57.428 97.7247 57.1247 97.4727 56.91 97.146C56.6953 96.81 56.588 96.4227 56.588 95.984C56.588 95.564 56.6813 95.1907 56.868 94.864C57.0547 94.528 57.344 94.248 57.736 94.024C58.128 93.8 58.6227 93.6413 59.22 93.548L61.712 93.142V94.542L59.57 94.906C59.206 94.9713 58.9353 95.088 58.758 95.256C58.5807 95.424 58.492 95.6433 58.492 95.914C58.492 96.1753 58.59 96.3853 58.786 96.544C58.9913 96.6933 59.2433 96.768 59.542 96.768C59.9247 96.768 60.2607 96.6887 60.55 96.53C60.8487 96.362 61.0773 96.1333 61.236 95.844C61.404 95.5547 61.488 95.2373 61.488 94.892V92.932C61.488 92.6053 61.3573 92.3347 61.096 92.12C60.844 91.896 60.508 91.784 60.088 91.784C59.696 91.784 59.346 91.8913 59.038 92.106C58.7393 92.3113 58.52 92.5867 58.38 92.932L56.882 92.204C57.0313 91.8027 57.2647 91.4573 57.582 91.168C57.9087 90.8693 58.2913 90.636 58.73 90.468C59.1687 90.3 59.6447 90.216 60.158 90.216C60.7833 90.216 61.334 90.3327 61.81 90.566C62.286 90.79 62.6547 91.1073 62.916 91.518C63.1867 91.9193 63.322 92.3907 63.322 92.932V98H61.586V96.698L61.978 96.67C61.782 96.9967 61.5487 97.272 61.278 97.496C61.0073 97.7107 60.6993 97.8787 60.354 98C60.0087 98.112 59.626 98.168 59.206 98.168ZM64.5971 98V90.384H66.4311V98H64.5971ZM64.5971 89.53V87.57H66.4311V89.53H64.5971ZM67.7044 98V87.402H69.5384V98H67.7044Z" fill="black"/>
<g filter="url(#filter1_i_1_17697)">
<circle cx="186" cy="39" r="32" fill="black"/>
</g>
<circle cx="186" cy="39" r="31.25" stroke="black" stroke-width="1.5"/>
<path d="M181.5 36.0801V37.5801" stroke="white" stroke-width="1.5" stroke-linecap="round" stroke-linejoin="round"/>
<path d="M190.5 36.0801V37.5801" stroke="white" stroke-width="1.5" stroke-linecap="round" stroke-linejoin="round"/>
<path d="M185 40.6001H185.5C185.765 40.6001 186.02 40.4947 186.207 40.3072C186.395 40.1197 186.5 39.8653 186.5 39.6001V36.1001" stroke="white" stroke-width="1.5" stroke-linecap="round" stroke-linejoin="round"/>
<path d="M189.242 43.157C188.382 44.0165 187.216 44.4993 186.001 44.4993C184.785 44.4993 183.619 44.0165 182.759 43.157" stroke="white" stroke-width="1.5" stroke-linecap="round" stroke-linejoin="round"/>
<path d="M181.588 30H179C178.47 30 177.961 30.2107 177.586 30.5858C177.211 30.9609 177 31.4696 177 32V34.588" stroke="white" stroke-width="1.5" stroke-linecap="round" stroke-linejoin="round"/>
<path d="M190.412 48.0001H193C193.531 48.0001 194.039 47.7894 194.414 47.4143C194.789 47.0392 195 46.5305 195 46.0001V43.4121" stroke="white" stroke-width="1.5" stroke-linecap="round" stroke-linejoin="round"/>
<path d="M177 43.4121V46.0001C177 46.5305 177.211 47.0392 177.586 47.4143C177.961 47.7894 178.47 48.0001 179 48.0001H181.588" stroke="white" stroke-width="1.5" stroke-linecap="round" stroke-linejoin="round"/>
<path d="M195 34.588V32C195 31.4696 194.789 30.9609 194.414 30.5858C194.039 30.2107 193.531 30 193 30H190.412" stroke="white" stroke-width="1.5" stroke-linecap="round" stroke-linejoin="round"/>
<path d="M156.988 98V87.57H163.778V89.04H158.64V92.176H163.218V93.646H158.64V98H156.988ZM166.503 98.168C165.989 98.168 165.537 98.0793 165.145 97.902C164.762 97.7153 164.463 97.4633 164.249 97.146C164.034 96.8193 163.927 96.4367 163.927 95.998C163.927 95.5873 164.015 95.2187 164.193 94.892C164.379 94.5653 164.664 94.29 165.047 94.066C165.429 93.842 165.91 93.6833 166.489 93.59L169.121 93.156V94.402L166.797 94.808C166.377 94.8827 166.069 95.018 165.873 95.214C165.677 95.4007 165.579 95.6433 165.579 95.942C165.579 96.2313 165.686 96.4693 165.901 96.656C166.125 96.8333 166.409 96.922 166.755 96.922C167.184 96.922 167.557 96.8287 167.875 96.642C168.201 96.4553 168.453 96.208 168.631 95.9C168.808 95.5827 168.897 95.2327 168.897 94.85V92.904C168.897 92.5307 168.757 92.2273 168.477 91.994C168.206 91.7513 167.842 91.63 167.385 91.63C166.965 91.63 166.596 91.742 166.279 91.966C165.971 92.1807 165.742 92.4607 165.593 92.806L164.277 92.148C164.417 91.7747 164.645 91.448 164.963 91.168C165.28 90.8787 165.649 90.6547 166.069 90.496C166.498 90.3373 166.951 90.258 167.427 90.258C168.024 90.258 168.551 90.37 169.009 90.594C169.475 90.818 169.835 91.1307 170.087 91.532C170.348 91.924 170.479 92.3813 170.479 92.904V98H168.967V96.628L169.289 96.67C169.111 96.978 168.883 97.244 168.603 97.468C168.332 97.692 168.019 97.8647 167.665 97.986C167.319 98.1073 166.932 98.168 166.503 98.168ZM175.506 98.168C174.75 98.168 174.078 97.9953 173.49 97.65C172.912 97.2953 172.45 96.8193 172.104 96.222C171.768 95.6247 171.6 94.948 171.6 94.192C171.6 93.4453 171.768 92.7733 172.104 92.176C172.44 91.5787 172.902 91.112 173.49 90.776C174.078 90.4307 174.75 90.258 175.506 90.258C176.02 90.258 176.5 90.3513 176.948 90.538C177.396 90.7153 177.784 90.9627 178.11 91.28C178.446 91.5973 178.694 91.966 178.852 92.386L177.466 93.03C177.308 92.638 177.051 92.3253 176.696 92.092C176.351 91.8493 175.954 91.728 175.506 91.728C175.077 91.728 174.69 91.8353 174.344 92.05C174.008 92.2553 173.742 92.5493 173.546 92.932C173.35 93.3053 173.252 93.73 173.252 94.206C173.252 94.682 173.35 95.1113 173.546 95.494C173.742 95.8673 174.008 96.1613 174.344 96.376C174.69 96.5907 175.077 96.698 175.506 96.698C175.964 96.698 176.36 96.5813 176.696 96.348C177.042 96.1053 177.298 95.7833 177.466 95.382L178.852 96.04C178.703 96.4413 178.46 96.8053 178.124 97.132C177.798 97.4493 177.41 97.7013 176.962 97.888C176.514 98.0747 176.029 98.168 175.506 98.168ZM183.535 98.168C182.779 98.168 182.107 97.9953 181.519 97.65C180.94 97.2953 180.487 96.8193 180.161 96.222C179.834 95.6153 179.671 94.9387 179.671 94.192C179.671 93.4267 179.834 92.75 180.161 92.162C180.497 91.574 180.945 91.112 181.505 90.776C182.065 90.4307 182.699 90.258 183.409 90.258C183.978 90.258 184.487 90.356 184.935 90.552C185.383 90.748 185.761 91.0187 186.069 91.364C186.377 91.7 186.61 92.0873 186.769 92.526C186.937 92.9647 187.021 93.4313 187.021 93.926C187.021 94.0473 187.016 94.1733 187.007 94.304C186.997 94.4347 186.979 94.556 186.951 94.668H180.917V93.408H186.055L185.299 93.982C185.392 93.5247 185.359 93.1187 185.201 92.764C185.051 92.4 184.818 92.1153 184.501 91.91C184.193 91.6953 183.829 91.588 183.409 91.588C182.989 91.588 182.615 91.6953 182.289 91.91C181.962 92.1153 181.71 92.414 181.533 92.806C181.355 93.1887 181.285 93.6553 181.323 94.206C181.276 94.7193 181.346 95.1673 181.533 95.55C181.729 95.9327 181.999 96.2313 182.345 96.446C182.699 96.6607 183.101 96.768 183.549 96.768C184.006 96.768 184.393 96.6653 184.711 96.46C185.037 96.2547 185.294 95.9887 185.481 95.662L186.769 96.292C186.619 96.6467 186.386 96.9687 186.069 97.258C185.761 97.538 185.387 97.762 184.949 97.93C184.519 98.0887 184.048 98.168 183.535 98.168ZM188.299 98V87.57H189.839L193.759 93.002H192.989L196.839 87.57H198.379V98H196.741V89.516L197.357 89.684L193.423 95.06H193.255L189.405 89.684L189.951 89.516V98H188.299ZM202.229 98.168C201.716 98.168 201.263 98.0793 200.871 97.902C200.488 97.7153 200.19 97.4633 199.975 97.146C199.76 96.8193 199.653 96.4367 199.653 95.998C199.653 95.5873 199.742 95.2187 199.919 94.892C200.106 94.5653 200.39 94.29 200.773 94.066C201.156 93.842 201.636 93.6833 202.215 93.59L204.847 93.156V94.402L202.523 94.808C202.103 94.8827 201.795 95.018 201.599 95.214C201.403 95.4007 201.305 95.6433 201.305 95.942C201.305 96.2313 201.412 96.4693 201.627 96.656C201.851 96.8333 202.136 96.922 202.481 96.922C202.91 96.922 203.284 96.8287 203.601 96.642C203.928 96.4553 204.18 96.208 204.357 95.9C204.534 95.5827 204.623 95.2327 204.623 94.85V92.904C204.623 92.5307 204.483 92.2273 204.203 91.994C203.932 91.7513 203.568 91.63 203.111 91.63C202.691 91.63 202.322 91.742 202.005 91.966C201.697 92.1807 201.468 92.4607 201.319 92.806L200.003 92.148C200.143 91.7747 200.372 91.448 200.689 91.168C201.006 90.8787 201.375 90.6547 201.795 90.496C202.224 90.3373 202.677 90.258 203.153 90.258C203.75 90.258 204.278 90.37 204.735 90.594C205.202 90.818 205.561 91.1307 205.813 91.532C206.074 91.924 206.205 92.3813 206.205 92.904V98H204.693V96.628L205.015 96.67C204.838 96.978 204.609 97.244 204.329 97.468C204.058 97.692 203.746 97.8647 203.391 97.986C203.046 98.1073 202.658 98.168 202.229 98.168ZM207.635 100.8V90.426H209.147V91.994L208.965 91.63C209.245 91.2007 209.618 90.8647 210.085 90.622C210.551 90.3793 211.083 90.258 211.681 90.258C212.399 90.258 213.043 90.4307 213.613 90.776C214.191 91.1213 214.644 91.5927 214.971 92.19C215.307 92.7873 215.475 93.4593 215.475 94.206C215.475 94.9527 215.307 95.6247 214.971 96.222C214.644 96.8193 214.196 97.2953 213.627 97.65C213.057 97.9953 212.409 98.168 211.681 98.168C211.093 98.168 210.556 98.0467 210.071 97.804C209.595 97.5613 209.226 97.2113 208.965 96.754L209.217 96.46V100.8H207.635ZM211.527 96.698C211.975 96.698 212.371 96.5907 212.717 96.376C213.062 96.1613 213.333 95.8673 213.529 95.494C213.734 95.1113 213.837 94.682 213.837 94.206C213.837 93.73 213.734 93.3053 213.529 92.932C213.333 92.5587 213.062 92.2647 212.717 92.05C212.371 91.8353 211.975 91.728 211.527 91.728C211.088 91.728 210.691 91.8353 210.337 92.05C209.991 92.2647 209.716 92.5587 209.511 92.932C209.315 93.3053 209.217 93.73 209.217 94.206C209.217 94.682 209.315 95.1113 209.511 95.494C209.716 95.8673 209.991 96.1613 210.337 96.376C210.691 96.5907 211.088 96.698 211.527 96.698Z" fill="black"/>
<g filter="url(#filter2_i_1_17697)">
<circle cx="324" cy="39" r="32" fill="black"/>
</g>
<circle cx="324" cy="39" r="31.25" stroke="black" stroke-width="1.5"/>
<path d="M327.031 36.342C327.031 36.2679 327.009 36.1955 326.967 36.134C326.926 36.0724 326.867 36.0245 326.799 35.9963C326.73 35.968 326.655 35.9608 326.582 35.9753C326.51 35.9899 326.443 36.0257 326.39 36.0782C326.338 36.1307 326.303 36.1975 326.288 36.2702C326.274 36.3429 326.281 36.4183 326.31 36.4868C326.338 36.5552 326.386 36.6137 326.448 36.6549C326.509 36.696 326.582 36.718 326.656 36.718C326.705 36.7182 326.754 36.7085 326.8 36.6896C326.846 36.6708 326.887 36.6431 326.922 36.6081C326.957 36.5732 326.984 36.5317 327.003 36.486C327.022 36.4403 327.031 36.3914 327.031 36.342" stroke="white" stroke-width="1.5" stroke-linecap="round" stroke-linejoin="round"/>
<path d="M315.5 44.1951L321.223 38.4591C320.745 37.2096 320.712 35.8337 321.129 34.5625C321.545 33.2914 322.387 32.2024 323.512 31.4787C324.637 30.755 325.977 30.4406 327.307 30.5884C328.636 30.7362 329.875 31.3371 330.813 32.2901C331.752 33.2432 332.334 34.4904 332.462 35.8221C332.59 37.1537 332.255 38.4888 331.514 39.6028C330.774 40.7168 329.672 41.542 328.395 41.9395C327.117 42.3371 325.742 42.2829 324.5 41.7861L318.8 47.5001H315.5V44.1951Z" stroke="white" stroke-width="1.5" stroke-linecap="round" stroke-linejoin="round"/>
<path d="M281.321 98V87.57H285.115C285.815 87.57 286.431 87.7007 286.963 87.962C287.495 88.214 287.91 88.5873 288.209 89.082C288.517 89.5673 288.671 90.1507 288.671 90.832C288.671 91.5507 288.489 92.1667 288.125 92.68C287.77 93.1933 287.289 93.5667 286.683 93.8L289.091 98H287.215L284.653 93.45L285.731 94.08H282.973V98H281.321ZM282.973 92.61H285.143C285.525 92.61 285.857 92.5353 286.137 92.386C286.417 92.2367 286.631 92.0313 286.781 91.77C286.939 91.4993 287.019 91.182 287.019 90.818C287.019 90.454 286.939 90.1413 286.781 89.88C286.631 89.6093 286.417 89.404 286.137 89.264C285.857 89.1147 285.525 89.04 285.143 89.04H282.973V92.61ZM293.039 98.168C292.283 98.168 291.611 97.9953 291.023 97.65C290.444 97.2953 289.992 96.8193 289.665 96.222C289.338 95.6153 289.175 94.9387 289.175 94.192C289.175 93.4267 289.338 92.75 289.665 92.162C290.001 91.574 290.449 91.112 291.009 90.776C291.569 90.4307 292.204 90.258 292.913 90.258C293.482 90.258 293.991 90.356 294.439 90.552C294.887 90.748 295.265 91.0187 295.573 91.364C295.881 91.7 296.114 92.0873 296.273 92.526C296.441 92.9647 296.525 93.4313 296.525 93.926C296.525 94.0473 296.52 94.1733 296.511 94.304C296.502 94.4347 296.483 94.556 296.455 94.668H290.421V93.408H295.559L294.803 93.982C294.896 93.5247 294.864 93.1187 294.705 92.764C294.556 92.4 294.322 92.1153 294.005 91.91C293.697 91.6953 293.333 91.588 292.913 91.588C292.493 91.588 292.12 91.6953 291.793 91.91C291.466 92.1153 291.214 92.414 291.037 92.806C290.86 93.1887 290.79 93.6553 290.827 94.206C290.78 94.7193 290.85 95.1673 291.037 95.55C291.233 95.9327 291.504 96.2313 291.849 96.446C292.204 96.6607 292.605 96.768 293.053 96.768C293.51 96.768 293.898 96.6653 294.215 96.46C294.542 96.2547 294.798 95.9887 294.985 95.662L296.273 96.292C296.124 96.6467 295.89 96.9687 295.573 97.258C295.265 97.538 294.892 97.762 294.453 97.93C294.024 98.0887 293.552 98.168 293.039 98.168ZM301.247 98.168C300.491 98.168 299.819 97.9953 299.231 97.65C298.652 97.2953 298.19 96.8193 297.845 96.222C297.509 95.6247 297.341 94.948 297.341 94.192C297.341 93.4453 297.509 92.7733 297.845 92.176C298.181 91.5787 298.643 91.112 299.231 90.776C299.819 90.4307 300.491 90.258 301.247 90.258C301.76 90.258 302.241 90.3513 302.689 90.538C303.137 90.7153 303.524 90.9627 303.851 91.28C304.187 91.5973 304.434 91.966 304.593 92.386L303.207 93.03C303.048 92.638 302.792 92.3253 302.437 92.092C302.092 91.8493 301.695 91.728 301.247 91.728C300.818 91.728 300.43 91.8353 300.085 92.05C299.749 92.2553 299.483 92.5493 299.287 92.932C299.091 93.3053 298.993 93.73 298.993 94.206C298.993 94.682 299.091 95.1113 299.287 95.494C299.483 95.8673 299.749 96.1613 300.085 96.376C300.43 96.5907 300.818 96.698 301.247 96.698C301.704 96.698 302.101 96.5813 302.437 96.348C302.782 96.1053 303.039 95.7833 303.207 95.382L304.593 96.04C304.444 96.4413 304.201 96.8053 303.865 97.132C303.538 97.4493 303.151 97.7013 302.703 97.888C302.255 98.0747 301.77 98.168 301.247 98.168ZM309.373 98.168C308.645 98.168 307.978 97.9953 307.371 97.65C306.774 97.3047 306.298 96.8333 305.943 96.236C305.588 95.6387 305.411 94.962 305.411 94.206C305.411 93.4407 305.588 92.764 305.943 92.176C306.298 91.5787 306.774 91.112 307.371 90.776C307.968 90.4307 308.636 90.258 309.373 90.258C310.12 90.258 310.787 90.4307 311.375 90.776C311.972 91.112 312.444 91.5787 312.789 92.176C313.144 92.764 313.321 93.4407 313.321 94.206C313.321 94.9713 313.144 95.6527 312.789 96.25C312.434 96.8473 311.958 97.3187 311.361 97.664C310.764 98 310.101 98.168 309.373 98.168ZM309.373 96.698C309.821 96.698 310.218 96.5907 310.563 96.376C310.908 96.1613 311.179 95.8673 311.375 95.494C311.58 95.1113 311.683 94.682 311.683 94.206C311.683 93.73 311.58 93.3053 311.375 92.932C311.179 92.5587 310.908 92.2647 310.563 92.05C310.218 91.8353 309.821 91.728 309.373 91.728C308.934 91.728 308.538 91.8353 308.183 92.05C307.838 92.2647 307.562 92.5587 307.357 92.932C307.161 93.3053 307.063 93.73 307.063 94.206C307.063 94.682 307.161 95.1113 307.357 95.494C307.562 95.8673 307.838 96.1613 308.183 96.376C308.538 96.5907 308.934 96.698 309.373 96.698ZM316.507 98L313.539 90.426H315.261L317.543 96.6H316.913L319.195 90.426H320.931L317.949 98H316.507ZM325.005 98.168C324.249 98.168 323.577 97.9953 322.989 97.65C322.411 97.2953 321.958 96.8193 321.631 96.222C321.305 95.6153 321.141 94.9387 321.141 94.192C321.141 93.4267 321.305 92.75 321.631 92.162C321.967 91.574 322.415 91.112 322.975 90.776C323.535 90.4307 324.17 90.258 324.879 90.258C325.449 90.258 325.957 90.356 326.405 90.552C326.853 90.748 327.231 91.0187 327.539 91.364C327.847 91.7 328.081 92.0873 328.239 92.526C328.407 92.9647 328.491 93.4313 328.491 93.926C328.491 94.0473 328.487 94.1733 328.477 94.304C328.468 94.4347 328.449 94.556 328.421 94.668H322.387V93.408H327.525L326.769 93.982C326.863 93.5247 326.83 93.1187 326.671 92.764C326.522 92.4 326.289 92.1153 325.971 91.91C325.663 91.6953 325.299 91.588 324.879 91.588C324.459 91.588 324.086 91.6953 323.759 91.91C323.433 92.1153 323.181 92.414 323.003 92.806C322.826 93.1887 322.756 93.6553 322.793 94.206C322.747 94.7193 322.817 95.1673 323.003 95.55C323.199 95.9327 323.47 96.2313 323.815 96.446C324.17 96.6607 324.571 96.768 325.019 96.768C325.477 96.768 325.864 96.6653 326.181 96.46C326.508 96.2547 326.765 95.9887 326.951 95.662L328.239 96.292C328.09 96.6467 327.857 96.9687 327.539 97.258C327.231 97.538 326.858 97.762 326.419 97.93C325.99 98.0887 325.519 98.168 325.005 98.168ZM329.615 98V90.426H331.127V91.952L330.987 91.728C331.155 91.2333 331.426 90.8787 331.799 90.664C332.173 90.44 332.621 90.328 333.143 90.328H333.605V91.77H332.947C332.425 91.77 332 91.9333 331.673 92.26C331.356 92.5773 331.197 93.0347 331.197 93.632V98H329.615ZM334.94 101.094C334.753 101.094 334.566 101.075 334.38 101.038C334.202 101.01 334.039 100.963 333.89 100.898V99.54C334.002 99.568 334.137 99.5913 334.296 99.61C334.454 99.638 334.608 99.652 334.758 99.652C335.196 99.652 335.518 99.554 335.724 99.358C335.938 99.1713 336.13 98.8773 336.298 98.476L336.802 97.328L336.774 98.658L333.498 90.426H335.192L337.614 96.74H337.04L339.448 90.426H341.156L337.81 98.826C337.632 99.274 337.408 99.666 337.138 100.002C336.876 100.347 336.564 100.613 336.2 100.8C335.845 100.996 335.425 101.094 334.94 101.094ZM344 98V87.57H345.652V93.226L345.218 93.058L349.936 87.57H351.994L347.822 92.456L347.906 91.28L352.162 98H350.216L347.164 93.226L345.652 94.99V98H344ZM356.101 98.168C355.345 98.168 354.673 97.9953 354.085 97.65C353.506 97.2953 353.053 96.8193 352.727 96.222C352.4 95.6153 352.237 94.9387 352.237 94.192C352.237 93.4267 352.4 92.75 352.727 92.162C353.063 91.574 353.511 91.112 354.071 90.776C354.631 90.4307 355.265 90.258 355.975 90.258C356.544 90.258 357.053 90.356 357.501 90.552C357.949 90.748 358.327 91.0187 358.635 91.364C358.943 91.7 359.176 92.0873 359.335 92.526C359.503 92.9647 359.587 93.4313 359.587 93.926C359.587 94.0473 359.582 94.1733 359.573 94.304C359.563 94.4347 359.545 94.556 359.517 94.668H353.483V93.408H358.621L357.865 93.982C357.958 93.5247 357.925 93.1187 357.767 92.764C357.617 92.4 357.384 92.1153 357.067 91.91C356.759 91.6953 356.395 91.588 355.975 91.588C355.555 91.588 355.181 91.6953 354.855 91.91C354.528 92.1153 354.276 92.414 354.099 92.806C353.921 93.1887 353.851 93.6553 353.889 94.206C353.842 94.7193 353.912 95.1673 354.099 95.55C354.295 95.9327 354.565 96.2313 354.911 96.446C355.265 96.6607 355.667 96.768 356.115 96.768C356.572 96.768 356.959 96.6653 357.277 96.46C357.603 96.2547 357.86 95.9887 358.047 95.662L359.335 96.292C359.185 96.6467 358.952 96.9687 358.635 97.258C358.327 97.538 357.953 97.762 357.515 97.93C357.085 98.0887 356.614 98.168 356.101 98.168ZM361.383 101.094C361.196 101.094 361.009 101.075 360.823 101.038C360.645 101.01 360.482 100.963 360.333 100.898V99.54C360.445 99.568 360.58 99.5913 360.739 99.61C360.897 99.638 361.051 99.652 361.201 99.652C361.639 99.652 361.961 99.554 362.167 99.358C362.381 99.1713 362.573 98.8773 362.741 98.476L363.245 97.328L363.217 98.658L359.941 90.426H361.635L364.057 96.74H363.483L365.891 90.426H367.599L364.253 98.826C364.075 99.274 363.851 99.666 363.581 100.002C363.319 100.347 363.007 100.613 362.643 100.8C362.288 100.996 361.868 101.094 361.383 101.094Z" fill="black"/>
<g filter="url(#filter3_i_1_17697)">
<circle cx="462" cy="39" r="32" fill="#D0F500"/>
</g>
<circle cx="462" cy="39" r="31.25" stroke="black" stroke-width="1.5"/>
<path d="M466.595 40.125C466.521 40.1252 466.448 40.1474 466.387 40.1887C466.325 40.23 466.277 40.2886 466.249 40.3572C466.221 40.4257 466.214 40.5011 466.228 40.5738C466.243 40.6464 466.279 40.7132 466.331 40.7655C466.384 40.8179 466.45 40.8535 466.523 40.8679C466.596 40.8823 466.671 40.8748 466.74 40.8464C466.808 40.8179 466.867 40.7699 466.908 40.7082C466.949 40.6466 466.971 40.5741 466.971 40.5C466.971 40.4005 466.931 40.3051 466.86 40.2348C466.79 40.1645 466.694 40.125 466.595 40.125Z" stroke="black" stroke-width="1.5" stroke-linecap="round" stroke-linejoin="round"/>
<path d="M453 32V45.5C453 46.0304 453.211 46.5391 453.586 46.9142C453.961 47.2893 454.47 47.5 455 47.5H469C469.53 47.5 470.039 47.2893 470.414 46.9142C470.789 46.5391 471 46.0304 471 45.5V35.5C471 34.9696 470.789 34.4609 470.414 34.0858C470.039 33.7107 469.53 33.5 469 33.5H454.5C454.102 33.5 453.721 33.342 453.439 33.0607C453.158 32.7794 453 32.3978 453 32ZM453 32C453 31.6022 453.158 31.2206 453.439 30.9393C453.721 30.658 454.102 30.5 454.5 30.5H467" stroke="black" stroke-width="1.5" stroke-linecap="round" stroke-linejoin="round"/>
<path d="M438.227 98V87.57H442.623C443.276 87.57 443.841 87.6867 444.317 87.92C444.793 88.144 445.157 88.4707 445.409 88.9C445.661 89.32 445.787 89.8193 445.787 90.398C445.787 90.902 445.656 91.364 445.395 91.784C445.143 92.1947 444.746 92.5213 444.205 92.764V92.064C444.681 92.2507 445.068 92.4887 445.367 92.778C445.665 93.058 445.88 93.3753 446.011 93.73C446.151 94.0847 446.221 94.458 446.221 94.85C446.221 95.83 445.899 96.6 445.255 97.16C444.62 97.72 443.747 98 442.637 98H438.227ZM439.879 96.53H442.763C443.313 96.53 443.752 96.3807 444.079 96.082C444.405 95.774 444.569 95.368 444.569 94.864C444.569 94.3507 444.405 93.9447 444.079 93.646C443.752 93.338 443.313 93.184 442.763 93.184H439.879V96.53ZM439.879 91.728H442.665C443.113 91.728 443.472 91.602 443.743 91.35C444.013 91.0887 444.149 90.748 444.149 90.328C444.149 89.908 444.013 89.5813 443.743 89.348C443.472 89.1147 443.113 88.998 442.665 88.998H439.879V91.728ZM449.614 98.168C449.101 98.168 448.648 98.0793 448.256 97.902C447.873 97.7153 447.575 97.4633 447.36 97.146C447.145 96.8193 447.038 96.4367 447.038 95.998C447.038 95.5873 447.127 95.2187 447.304 94.892C447.491 94.5653 447.775 94.29 448.158 94.066C448.541 93.842 449.021 93.6833 449.6 93.59L452.232 93.156V94.402L449.908 94.808C449.488 94.8827 449.18 95.018 448.984 95.214C448.788 95.4007 448.69 95.6433 448.69 95.942C448.69 96.2313 448.797 96.4693 449.012 96.656C449.236 96.8333 449.521 96.922 449.866 96.922C450.295 96.922 450.669 96.8287 450.986 96.642C451.313 96.4553 451.565 96.208 451.742 95.9C451.919 95.5827 452.008 95.2327 452.008 94.85V92.904C452.008 92.5307 451.868 92.2273 451.588 91.994C451.317 91.7513 450.953 91.63 450.496 91.63C450.076 91.63 449.707 91.742 449.39 91.966C449.082 92.1807 448.853 92.4607 448.704 92.806L447.388 92.148C447.528 91.7747 447.757 91.448 448.074 91.168C448.391 90.8787 448.76 90.6547 449.18 90.496C449.609 90.3373 450.062 90.258 450.538 90.258C451.135 90.258 451.663 90.37 452.12 90.594C452.587 90.818 452.946 91.1307 453.198 91.532C453.459 91.924 453.59 92.3813 453.59 92.904V98H452.078V96.628L452.4 96.67C452.223 96.978 451.994 97.244 451.714 97.468C451.443 97.692 451.131 97.8647 450.776 97.986C450.431 98.1073 450.043 98.168 449.614 98.168ZM458.618 98.168C457.862 98.168 457.19 97.9953 456.602 97.65C456.023 97.2953 455.561 96.8193 455.216 96.222C454.88 95.6247 454.712 94.948 454.712 94.192C454.712 93.4453 454.88 92.7733 455.216 92.176C455.552 91.5787 456.014 91.112 456.602 90.776C457.19 90.4307 457.862 90.258 458.618 90.258C459.131 90.258 459.612 90.3513 460.06 90.538C460.508 90.7153 460.895 90.9627 461.222 91.28C461.558 91.5973 461.805 91.966 461.964 92.386L460.578 93.03C460.419 92.638 460.162 92.3253 459.808 92.092C459.462 91.8493 459.066 91.728 458.618 91.728C458.188 91.728 457.801 91.8353 457.456 92.05C457.12 92.2553 456.854 92.5493 456.658 92.932C456.462 93.3053 456.364 93.73 456.364 94.206C456.364 94.682 456.462 95.1113 456.658 95.494C456.854 95.8673 457.12 96.1613 457.456 96.376C457.801 96.5907 458.188 96.698 458.618 96.698C459.075 96.698 459.472 96.5813 459.808 96.348C460.153 96.1053 460.41 95.7833 460.578 95.382L461.964 96.04C461.814 96.4413 461.572 96.8053 461.236 97.132C460.909 97.4493 460.522 97.7013 460.074 97.888C459.626 98.0747 459.14 98.168 458.618 98.168ZM463.09 98V87.402H464.672V94.5L464.056 94.346L467.85 90.426H469.824L466.968 93.464L469.95 98H468.13L465.47 93.982L466.408 93.856L464.168 96.236L464.672 95.186V98H463.09ZM473.315 98.168C472.746 98.168 472.247 98.042 471.817 97.79C471.388 97.5287 471.052 97.1693 470.809 96.712C470.576 96.2453 470.459 95.7087 470.459 95.102V90.426H472.041V94.962C472.041 95.3073 472.111 95.6107 472.251 95.872C472.391 96.1333 472.587 96.3387 472.839 96.488C473.091 96.628 473.381 96.698 473.707 96.698C474.043 96.698 474.337 96.6233 474.589 96.474C474.841 96.3247 475.037 96.1147 475.177 95.844C475.327 95.5733 475.401 95.256 475.401 94.892V90.426H476.969V98H475.471V96.516L475.639 96.712C475.462 97.1787 475.168 97.538 474.757 97.79C474.347 98.042 473.866 98.168 473.315 98.168ZM478.396 100.8V90.426H479.908V91.994L479.726 91.63C480.006 91.2007 480.38 90.8647 480.846 90.622C481.313 90.3793 481.845 90.258 482.442 90.258C483.161 90.258 483.805 90.4307 484.374 90.776C484.953 91.1213 485.406 91.5927 485.732 92.19C486.068 92.7873 486.236 93.4593 486.236 94.206C486.236 94.9527 486.068 95.6247 485.732 96.222C485.406 96.8193 484.958 97.2953 484.388 97.65C483.819 97.9953 483.17 98.168 482.442 98.168C481.854 98.168 481.318 98.0467 480.832 97.804C480.356 97.5613 479.988 97.2113 479.726 96.754L479.978 96.46V100.8H478.396ZM482.288 96.698C482.736 96.698 483.133 96.5907 483.478 96.376C483.824 96.1613 484.094 95.8673 484.29 95.494C484.496 95.1113 484.598 94.682 484.598 94.206C484.598 93.73 484.496 93.3053 484.29 92.932C484.094 92.5587 483.824 92.2647 483.478 92.05C483.133 91.8353 482.736 91.728 482.288 91.728C481.85 91.728 481.453 91.8353 481.098 92.05C480.753 92.2647 480.478 92.5587 480.272 92.932C480.076 93.3053 479.978 93.73 479.978 94.206C479.978 94.682 480.076 95.1113 480.272 95.494C480.478 95.8673 480.753 96.1613 481.098 96.376C481.453 96.5907 481.85 96.698 482.288 96.698Z" fill="black"/>
<line x1="14" y1="102.5" x2="88" y2="102.5" stroke="black"/>
<line x1="143" y1="102.5" x2="217" y2="102.5" stroke="black"/>
<line opacity="0.1" x1="272" y1="102.5" x2="346" y2="102.5" stroke="black"/>
<defs>
<filter id="filter0_i_1_17697" x="21" y="7" width="64" height="64" filterUnits="userSpaceOnUse" color-interpolation-filters="sRGB">
<feFlood flood-opacity="0" result="BackgroundImageFix"/>
<feBlend mode="normal" in="SourceGraphic" in2="BackgroundImageFix" result="shape"/>
<feColorMatrix in="SourceAlpha" type="matrix" values="0 0 0 0 0 0 0 0 0 0 0 0 0 0 0 0 0 0 127 0" result="hardAlpha"/>
<feOffset dy="4"/>
<feComposite in2="hardAlpha" operator="arithmetic" k2="-1" k3="1"/>
<feColorMatrix type="matrix" values="0 0 0 0 1 0 0 0 0 1 0 0 0 0 1 0 0 0 1 0"/>
<feBlend mode="normal" in2="shape" result="effect1_innerShadow_1_17697"/>
</filter>
<filter id="filter1_i_1_17697" x="154" y="7" width="64" height="64" filterUnits="userSpaceOnUse" color-interpolation-filters="sRGB">
<feFlood flood-opacity="0" result="BackgroundImageFix"/>
<feBlend mode="normal" in="SourceGraphic" in2="BackgroundImageFix" result="shape"/>
<feColorMatrix in="SourceAlpha" type="matrix" values="0 0 0 0 0 0 0 0 0 0 0 0 0 0 0 0 0 0 127 0" result="hardAlpha"/>
<feOffset dy="4"/>
<feComposite in2="hardAlpha" operator="arithmetic" k2="-1" k3="1"/>
<feColorMatrix type="matrix" values="0 0 0 0 1 0 0 0 0 1 0 0 0 0 1 0 0 0 1 0"/>
<feBlend mode="normal" in2="shape" result="effect1_innerShadow_1_17697"/>
</filter>
<filter id="filter2_i_1_17697" x="292" y="7" width="64" height="64" filterUnits="userSpaceOnUse" color-interpolation-filters="sRGB">
<feFlood flood-opacity="0" result="BackgroundImageFix"/>
<feBlend mode="normal" in="SourceGraphic" in2="BackgroundImageFix" result="shape"/>
<feColorMatrix in="SourceAlpha" type="matrix" values="0 0 0 0 0 0 0 0 0 0 0 0 0 0 0 0 0 0 127 0" result="hardAlpha"/>
<feOffset dy="4"/>
<feComposite in2="hardAlpha" operator="arithmetic" k2="-1" k3="1"/>
<feColorMatrix type="matrix" values="0 0 0 0 1 0 0 0 0 1 0 0 0 0 1 0 0 0 1 0"/>
<feBlend mode="normal" in2="shape" result="effect1_innerShadow_1_17697"/>
</filter>
<filter id="filter3_i_1_17697" x="430" y="7" width="64" height="64" filterUnits="userSpaceOnUse" color-interpolation-filters="sRGB">
<feFlood flood-opacity="0" result="BackgroundImageFix"/>
<feBlend mode="normal" in="SourceGraphic" in2="BackgroundImageFix" result="shape"/>
<feColorMatrix in="SourceAlpha" type="matrix" values="0 0 0 0 0 0 0 0 0 0 0 0 0 0 0 0 0 0 127 0" result="hardAlpha"/>
<feOffset dy="4"/>
<feComposite in2="hardAlpha" operator="arithmetic" k2="-1" k3="1"/>
<feColorMatrix type="matrix" values="0 0 0 0 1 0 0 0 0 1 0 0 0 0 1 0 0 0 1 0"/>
<feBlend mode="normal" in2="shape" result="effect1_innerShadow_1_17697"/>
</filter>
</defs>
</svg>
