<?xml version="1.0" encoding="utf-8"?>
<!-- Generator: Adobe Illustrator 28.1.0, SVG Export Plug-In . SVG Version: 6.00 Build 0)  -->
<svg version="1.1" id="Layer_1" xmlns="http://www.w3.org/2000/svg" xmlns:xlink="http://www.w3.org/1999/xlink" x="0px" y="0px"
	 viewBox="0 0 1920 1080" style="enable-background:new 0 0 1920 1080;" xml:space="preserve">
<style type="text/css">
	.st0{fill:#FFFFFF;}
</style>
<path class="st0" d="M435.7,366.5c-89.7,0-162.4,72.8-162.4,162.4c0,89.7,72.7,162.4,162.4,162.4c89.7,0,162.4-72.7,162.4-162.4
	C598.1,439.3,525.4,366.5,435.7,366.5z M485.4,579.8H386c-13.2,0-21.4-14.3-14.8-25.6l49.7-86.1c6.6-11.3,23-11.3,29.6,0l49.7,86.1
	C506.8,565.5,498.6,579.8,485.4,579.8z"/>
<g>
	<path class="st0" d="M653.7,525.9c0-52.1,31.6-88,83.3-88c45.1,0,74.2,24.8,78.2,62.2h-31.6c-4.3-22.2-20.4-33.9-47-33.9
		c-32.1,0-51.6,22.2-51.6,59.7c0,37.1,19.7,59.7,51.6,59.7c26.6,0,42.5-11.6,47-32.7h31.6c-4,36.7-33.1,61.2-78.2,61.2
		C685.4,614,653.7,578,653.7,525.9z"/>
	<path class="st0" d="M847.8,609.6V441.9h31.6v38.2c6.6-28.4,28-40.7,49.1-40.7c5.8,0,11.3,0.3,15.2,1.5V470
		c-5.5-1.1-9.8-1.1-15.7-1.1c-33.1,0-48.8,30.2-48.8,67.7v73.1H847.8z"/>
	<path class="st0" d="M1116.6,535H986.7c0.7,32.4,20.7,51.3,52.8,51.3c22.2,0,37.5-8.7,44.4-24.8h31.6
		c-5.8,30.9-36.7,52.4-76.1,52.4c-51.6,0-84-34.2-84-88.4c0-53.1,32.7-88,82.6-88c47.3,0,79.4,32.7,79.4,78.9
		C1117.3,522.7,1117.3,527.4,1116.6,535z M1086.4,510.7c0-29.5-18.2-47.6-48.8-47.6c-30.6,0-49.5,19.3-50.9,47.6H1086.4z"/>
	<path class="st0" d="M1138.5,559.5h31.3c0,16.4,15.2,29.1,40,29.1c18.5,0,30.9-9.1,30.9-24c0-11.3-5.1-18.9-25.1-24l-34.2-8.7
		c-24.8-6.9-37.9-23-37.9-46.2c0-28.4,26.2-48,62.5-48c40,0,64.4,19.3,64.4,50.6h-30.9c0-16-12.7-26.2-34.6-26.2
		c-17.5,0-30.2,8.4-30.2,22.2c0,10.6,6.2,18.2,24.3,23.3l34.6,9.4c24.8,6.9,38.9,23.3,38.9,46.6c0,32.1-25.1,50.6-64.8,50.6
		C1166.9,614,1138.5,590.4,1138.5,559.5z"/>
	<path class="st0" d="M1294.4,525.9c0-49.1,32.7-88.4,87.3-88.4c54.2,0,87.3,39.3,87.3,88.4c0,48.8-33.1,88-87.3,88
		C1327.2,614,1294.4,574.7,1294.4,525.9z M1437.4,525.9c0-33.9-20.4-60-55.7-60s-56,26.2-56,60c0,33.4,20.7,59.7,56,59.7
		C1417,585.6,1437.4,559.5,1437.4,525.9z"/>
</g>
<g>
	<polygon class="st0" points="1653,443.9 1647.8,458.6 1658.1,458.6 1653.1,443.9 	"/>
	<path class="st0" d="M1555.5,449.1c1-0.7,1.5-2,1.5-3.6c0-0.9-0.2-1.7-0.5-2.3c-0.3-0.6-0.8-1.1-1.3-1.4c-0.6-0.3-1.2-0.6-1.9-0.7
		c-0.7-0.1-1.5-0.2-2.3-0.2h-8.2v9.3h8.9C1553.2,450.2,1554.5,449.9,1555.5,449.1z"/>
	<path class="st0" d="M1552.3,456.2h-9.5v10.9h9.4c0.9,0,1.7-0.1,2.5-0.3s1.5-0.4,2.1-0.8c0.6-0.4,1.1-0.9,1.4-1.6s0.5-1.5,0.5-2.6
		c0-2-0.6-3.5-1.7-4.4C1555.7,456.7,1554.2,456.2,1552.3,456.2z"/>
	<path class="st0" d="M1682.3,411.1h-167c-6.6,0-12,5.4-12,12v59.8c0,6.6,5.4,12,12,12h167c6.6,0,12-5.4,12-12v-59.8
		C1694.3,416.5,1688.9,411.1,1682.3,411.1z M1566.2,467.6c-0.8,1.5-1.8,2.7-3.2,3.6c-1.3,0.9-2.8,1.6-4.5,2.1s-3.4,0.7-5.2,0.7H1534
		v-39.8h18.7c1.9,0,3.6,0.2,5.2,0.5c1.6,0.3,2.9,0.9,4,1.6c1.1,0.8,2,1.8,2.6,3c0.6,1.3,0.9,2.8,0.9,4.7c0,2-0.5,3.7-1.4,5
		c-0.9,1.3-2.3,2.4-4,3.3c2.5,0.7,4.3,1.9,5.5,3.7c1.2,1.8,1.8,3.9,1.8,6.4C1567.4,464.4,1567,466.2,1566.2,467.6z M1603,474h-30.2
		v-39.8h29.8v7.4h-21v8.5h19.3v6.8h-19.3v9.8h21.5V474z M1626.3,474h-8.8v-32.5h-11.9v-7.4h32.6v7.4h-11.9V474z M1663.4,474l-3-8.9
		h-14.9l-3.1,8.9h-8.8l15.1-39.8h9l14.9,39.8H1663.4z"/>
</g>
</svg>
