<svg width="1421" height="325" viewBox="0 0 1421 325" fill="none" xmlns="http://www.w3.org/2000/svg">
<path d="M162.4 0C72.7 0 0 72.8 0 162.4C0 252.1 72.7 324.8 162.4 324.8C252.1 324.8 324.8 252.1 324.8 162.4C324.8 72.8 252.1 0 162.4 0ZM212.1 213.3H112.7C99.5 213.3 91.3 199 97.9 187.7L147.6 101.6C154.2 90.3 170.6 90.3 177.2 101.6L226.9 187.7C233.5 199 225.3 213.3 212.1 213.3Z" fill="white"/>
<path d="M380.406 159.4C380.406 107.3 412.006 71.4004 463.706 71.4004C508.806 71.4004 537.906 96.2004 541.906 133.6H510.306C506.006 111.4 489.906 99.7004 463.306 99.7004C431.206 99.7004 411.706 121.9 411.706 159.4C411.706 196.5 431.406 219.1 463.306 219.1C489.906 219.1 505.806 207.5 510.306 186.4H541.906C537.906 223.1 508.806 247.6 463.706 247.6C412.106 247.5 380.406 211.5 380.406 159.4Z" fill="white"/>
<path d="M574.506 243.1V75.4004H606.106V113.6C612.706 85.2004 634.106 72.9004 655.206 72.9004C661.006 72.9004 666.506 73.2004 670.406 74.4004V103.5C664.906 102.4 660.606 102.4 654.706 102.4C621.606 102.4 605.906 132.6 605.906 170.1V243.2H574.506V243.1Z" fill="white"/>
<path d="M843.306 168.5H713.406C714.106 200.9 734.106 219.8 766.206 219.8C788.406 219.8 803.706 211.1 810.606 195H842.206C836.406 225.9 805.506 247.4 766.106 247.4C714.506 247.4 682.106 213.2 682.106 159C682.106 105.9 714.806 71 764.706 71C812.006 71 844.106 103.7 844.106 149.9C844.006 156.2 844.006 160.9 843.306 168.5ZM813.106 144.2C813.106 114.7 794.906 96.6 764.306 96.6C733.706 96.6 714.806 115.9 713.406 144.2H813.106Z" fill="white"/>
<path d="M865.206 192.999H896.506C896.506 209.399 911.706 222.099 936.506 222.099C955.006 222.099 967.406 212.999 967.406 198.099C967.406 186.799 962.306 179.199 942.306 174.099L908.106 165.399C883.306 158.499 870.206 142.399 870.206 119.199C870.206 90.7992 896.406 71.1992 932.706 71.1992C972.706 71.1992 997.106 90.4992 997.106 121.799H966.206C966.206 105.799 953.506 95.5992 931.606 95.5992C914.106 95.5992 901.406 103.999 901.406 117.799C901.406 128.399 907.606 135.999 925.706 141.099L960.306 150.499C985.106 157.399 999.206 173.799 999.206 197.099C999.206 229.199 974.106 247.699 934.406 247.699C893.606 247.499 865.206 223.899 865.206 192.999Z" fill="white"/>
<path d="M1021.11 159.4C1021.11 110.3 1053.81 71 1108.41 71C1162.61 71 1195.71 110.3 1195.71 159.4C1195.71 208.2 1162.61 247.4 1108.41 247.4C1053.91 247.5 1021.11 208.2 1021.11 159.4ZM1164.11 159.4C1164.11 125.5 1143.71 99.4 1108.41 99.4C1073.11 99.4 1052.41 125.6 1052.41 159.4C1052.41 192.8 1073.11 219.1 1108.41 219.1C1143.71 219.1 1164.11 193 1164.11 159.4Z" fill="white"/>
<path d="M1379.7 77.4004L1374.5 92.1004H1384.8L1379.8 77.4004H1379.7Z" fill="white"/>
<path d="M1282.2 82.6004C1283.2 81.9004 1283.7 80.6004 1283.7 79.0004C1283.7 78.1004 1283.5 77.3004 1283.2 76.7004C1282.9 76.1004 1282.4 75.6004 1281.9 75.3004C1281.3 75.0004 1280.7 74.7004 1280 74.6004C1279.3 74.5004 1278.5 74.4004 1277.7 74.4004H1269.5V83.7004H1278.4C1279.9 83.7004 1281.2 83.4004 1282.2 82.6004Z" fill="white"/>
<path d="M1279 89.6992H1269.5V100.599H1278.9C1279.8 100.599 1280.6 100.499 1281.4 100.299C1282.2 100.099 1282.9 99.8992 1283.5 99.4992C1284.1 99.0992 1284.6 98.5992 1284.9 97.8992C1285.2 97.1992 1285.4 96.3992 1285.4 95.2992C1285.4 93.2992 1284.8 91.7992 1283.7 90.8992C1282.4 90.1992 1280.9 89.6992 1279 89.6992Z" fill="white"/>
<path d="M1409 44.5996H1242C1235.4 44.5996 1230 49.9996 1230 56.5996V116.4C1230 123 1235.4 128.4 1242 128.4H1409C1415.6 128.4 1421 123 1421 116.4V56.5996C1421 49.9996 1415.6 44.5996 1409 44.5996ZM1292.9 101.1C1292.1 102.6 1291.1 103.8 1289.7 104.7C1288.4 105.6 1286.9 106.3 1285.2 106.8C1283.5 107.3 1281.8 107.5 1280 107.5H1260.7V67.6996H1279.4C1281.3 67.6996 1283 67.8996 1284.6 68.1996C1286.2 68.4996 1287.5 69.0996 1288.6 69.7996C1289.7 70.5996 1290.6 71.5996 1291.2 72.7996C1291.8 74.0996 1292.1 75.5996 1292.1 77.4996C1292.1 79.4996 1291.6 81.1996 1290.7 82.4996C1289.8 83.7996 1288.4 84.8996 1286.7 85.7996C1289.2 86.4996 1291 87.6996 1292.2 89.4996C1293.4 91.2996 1294 93.3996 1294 95.8996C1294.1 97.8996 1293.7 99.6996 1292.9 101.1ZM1329.7 107.5H1299.5V67.6996H1329.3V75.0996H1308.3V83.5996H1327.6V90.3996H1308.3V100.2H1329.8V107.5H1329.7ZM1353 107.5H1344.2V74.9996H1332.3V67.5996H1364.9V74.9996H1353V107.5ZM1390.1 107.5L1387.1 98.5996H1372.2L1369.1 107.5H1360.3L1375.4 67.6996H1384.4L1399.3 107.5H1390.1Z" fill="white"/>
</svg>
