<svg width="25" height="25" viewBox="0 0 25 25" fill="none" xmlns="http://www.w3.org/2000/svg">
<path d="M16.8127 12.4999C16.8127 13.2911 16.5781 14.0644 16.1386 14.7222C15.6991 15.38 15.0743 15.8927 14.3434 16.1955C13.6125 16.4982 12.8083 16.5774 12.0323 16.4231C11.2564 16.2687 10.5437 15.8878 9.98428 15.3284C9.42487 14.769 9.04391 14.0562 8.88957 13.2803C8.73523 12.5044 8.81444 11.7001 9.11719 10.9692C9.41994 10.2383 9.93263 9.61359 10.5904 9.17406C11.2482 8.73454 12.0216 8.49994 12.8127 8.49994C13.8736 8.49994 14.891 8.92137 15.6411 9.67151C16.3913 10.4217 16.8127 11.4391 16.8127 12.4999ZM16.8127 12.4999V13.9999C16.8127 14.663 17.0761 15.2989 17.5449 15.7677C18.0138 16.2365 18.6497 16.4999 19.3127 16.4999C19.9757 16.4999 20.6116 16.2365 21.0805 15.7677C21.5493 15.2989 21.8127 14.663 21.8127 13.9999V12.4999C21.8197 10.4737 21.1463 8.50382 19.9005 6.90589C18.6546 5.30795 16.9084 4.17451 14.9416 3.68719C12.9749 3.19987 10.9015 3.38689 9.05367 4.21827C7.20587 5.04965 5.69064 6.47727 4.75082 8.27235C3.81099 10.0674 3.50097 12.126 3.87043 14.1183C4.2399 16.1105 5.26746 17.9211 6.78846 19.2598C8.30945 20.5985 10.2358 21.3879 12.2589 21.5014C14.2819 21.615 16.2845 21.0461 17.9457 19.8859" stroke="#323232" stroke-width="1.5" stroke-linecap="round" stroke-linejoin="round"/>
</svg>
