<svg width="25" height="25" viewBox="0 0 25 25" fill="none" xmlns="http://www.w3.org/2000/svg">
<g opacity="0.4">
<path d="M15.0935 9.84202C15.0933 9.76789 15.0711 9.69549 15.0298 9.63395C14.9885 9.57242 14.9299 9.52451 14.8613 9.49628C14.7928 9.46805 14.7174 9.46076 14.6447 9.47535C14.5721 9.48993 14.5053 9.52572 14.453 9.57821C14.4006 9.63069 14.365 9.69751 14.3506 9.77023C14.3363 9.84294 14.3437 9.91829 14.3721 9.98675C14.4006 10.0552 14.4486 10.1137 14.5103 10.1549C14.5719 10.196 14.6444 10.218 14.7185 10.218C14.7679 10.2182 14.8168 10.2085 14.8624 10.1896C14.908 10.1708 14.9495 10.1431 14.9843 10.1081C15.0192 10.0732 15.0468 10.0317 15.0655 9.98599C15.0843 9.94032 15.0938 9.89138 15.0935 9.84202" stroke="#323232" stroke-width="1.5" stroke-linecap="round" stroke-linejoin="round"/>
<path d="M3.5625 17.6951L9.2855 11.9591C8.8075 10.7096 8.77414 9.33369 9.19102 8.06253C9.6079 6.79137 10.4496 5.70244 11.5747 4.97873C12.6998 4.25501 14.0398 3.94062 15.3694 4.08839C16.699 4.23615 17.9372 4.83706 18.8759 5.79015C19.8147 6.74323 20.3968 7.9904 20.5244 9.32207C20.652 10.6537 20.3174 11.9888 19.5767 13.1028C18.836 14.2168 17.7345 15.042 16.4572 15.4395C15.1798 15.8371 13.8046 15.7829 12.5625 15.2861L6.8625 21.0001H3.5625V17.6951Z" stroke="#323232" stroke-width="1.5" stroke-linecap="round" stroke-linejoin="round"/>
</g>
</svg>
