<svg width="21" height="23" viewBox="0 0 21 23" fill="none" xmlns="http://www.w3.org/2000/svg">
<path d="M19 13C19.0048 14.965 18.3679 16.8777 17.1862 18.4477C16.0045 20.0176 14.3426 21.1587 12.453 21.6978C10.5634 22.2368 8.54954 22.1442 6.71741 21.4341C4.88527 20.7239 3.33507 19.435 2.30242 17.7633C1.26976 16.0916 0.811106 14.1284 0.996166 12.1722C1.18123 10.216 1.99988 8.37365 3.32771 6.92523C4.65553 5.47681 6.41993 4.50149 8.35273 4.1475C10.2855 3.79351 12.2811 4.0802 14.036 4.96401" fill="#D0F500"/>
<path d="M18.561 5.44403L11.005 13L7.22803 9.22203" stroke="#323232" stroke-width="1.5" stroke-linecap="round" stroke-linejoin="round"/>
<path d="M20 10C20.0048 11.965 19.3679 13.8777 18.1862 15.4477C17.0045 17.0176 15.3426 18.1587 13.453 18.6978C11.5634 19.2368 9.54954 19.1442 7.71741 18.4341C5.88527 17.7239 4.33507 16.435 3.30242 14.7633C2.26976 13.0916 1.81111 11.1284 1.99617 9.17219C2.18123 7.21597 2.99988 5.37365 4.32771 3.92523C5.65553 2.47681 7.41993 1.50149 9.35273 1.1475C11.2855 0.793509 13.2811 1.0802 15.036 1.96401" stroke="#323232" stroke-width="1.5" stroke-linecap="round" stroke-linejoin="round"/>
</svg>
