<svg width="32" height="32" viewBox="0 0 32 32" fill="none" xmlns="http://www.w3.org/2000/svg">
<path d="M26.0794 9.49219C27.3318 11.432 27.9979 13.6919 27.9979 16.0009C27.9979 18.3098 27.3318 20.5697 26.0794 22.5095" stroke="black" stroke-width="2" stroke-linecap="round" stroke-linejoin="round"/>
<path d="M20.7313 11.2699C21.6659 12.2058 22.302 13.3977 22.5594 14.6951C22.8168 15.9924 22.6838 17.337 22.1772 18.5587C21.6706 19.7805 20.8132 20.8247 19.7134 21.5593C18.6135 22.2939 17.3206 22.686 15.9979 22.686C14.6753 22.686 13.3823 22.2939 12.2825 21.5593C11.1826 20.8247 10.3252 19.7805 9.81868 18.5587C9.3121 17.337 9.17909 15.9924 9.43646 14.6951C9.69382 13.3977 10.33 12.2058 11.2646 11.2699C11.8859 10.6478 12.6237 10.1542 13.4359 9.81745C14.2481 9.4807 15.1187 9.30737 15.9979 9.30737C16.8772 9.30737 17.7478 9.4807 18.56 9.81745C19.3721 10.1542 20.11 10.6478 20.7313 11.2699" stroke="black" stroke-width="2" stroke-linecap="round" stroke-linejoin="round"/>
<path d="M19.095 10.0677L22.5404 5.88238C22.6585 5.73796 22.8057 5.61994 22.9723 5.53597C23.1389 5.45199 23.3213 5.40393 23.5077 5.39488C23.6941 5.38583 23.8803 5.416 24.0543 5.48344C24.2282 5.55088 24.3861 5.65408 24.5177 5.78638L26.215 7.48371C26.3482 7.61536 26.4522 7.77358 26.5202 7.94807C26.5881 8.12257 26.6186 8.30942 26.6095 8.49647C26.6004 8.68351 26.5521 8.86655 26.4676 9.03367C26.3831 9.20078 26.2643 9.34822 26.119 9.46638L21.9337 12.9064" stroke="black" stroke-width="2" stroke-linecap="round" stroke-linejoin="round"/>
<path d="M12.9053 21.9324L9.46001 26.1177C9.34186 26.2622 9.19472 26.3802 9.02809 26.4642C8.86146 26.5481 8.67906 26.5962 8.49269 26.6053C8.30631 26.6143 8.12011 26.5841 7.94613 26.5167C7.77215 26.4493 7.61427 26.346 7.48268 26.2138L5.78535 24.5164C5.65217 24.3848 5.54821 24.2266 5.48024 24.0521C5.41228 23.8776 5.38183 23.6907 5.39089 23.5037C5.39994 23.3166 5.4483 23.1336 5.53281 22.9665C5.61731 22.7993 5.73607 22.6519 5.88135 22.5338L10.0667 19.0938" stroke="black" stroke-width="2" stroke-linecap="round" stroke-linejoin="round"/>
<path d="M10.0677 12.9047L5.88099 9.45937C5.73657 9.34122 5.61856 9.19407 5.53458 9.02744C5.45061 8.86081 5.40254 8.67841 5.39349 8.49204C5.38444 8.30566 5.41461 8.11947 5.48205 7.94549C5.54949 7.77151 5.65269 7.61362 5.78499 7.48203L7.48232 5.7847C7.61398 5.65129 7.77229 5.54715 7.94691 5.47905C8.12154 5.41095 8.30856 5.38044 8.49577 5.3895C8.68298 5.39856 8.86618 5.44698 9.03342 5.53162C9.20065 5.61626 9.34816 5.73521 9.46632 5.8807L12.905 10.066" stroke="black" stroke-width="2" stroke-linecap="round" stroke-linejoin="round"/>
<path d="M21.9324 19.0938L26.1177 22.5391C26.2622 22.6572 26.3802 22.8044 26.4642 22.971C26.5481 23.1376 26.5962 23.32 26.6053 23.5064C26.6143 23.6928 26.5841 23.879 26.5167 24.053C26.4493 24.2269 26.346 24.3848 26.2138 24.5164L24.5164 26.2137C24.3848 26.346 24.2269 26.4493 24.053 26.5167C23.879 26.5841 23.6928 26.6143 23.5064 26.6053C23.32 26.5962 23.1376 26.5481 22.971 26.4642C22.8044 26.3802 22.6572 26.2622 22.5391 26.1178L19.0938 21.9324" stroke="black" stroke-width="2" stroke-linecap="round" stroke-linejoin="round"/>
<path d="M22.5095 26.0808C20.5697 27.3332 18.3098 27.9993 16.0009 27.9993C13.6919 27.9993 11.432 27.3332 9.49219 26.0808" stroke="black" stroke-width="2" stroke-linecap="round" stroke-linejoin="round"/>
<path d="M5.91847 9.4895C4.66612 11.4293 4 13.6892 4 15.9982C4 18.3071 4.66612 20.567 5.91847 22.5068" stroke="black" stroke-width="2" stroke-linecap="round" stroke-linejoin="round"/>
<path d="M22.5082 5.92116C20.5684 4.66881 18.3085 4.00269 15.9996 4.00269C13.6906 4.00269 11.4307 4.66881 9.49089 5.92116" stroke="black" stroke-width="2" stroke-linecap="round" stroke-linejoin="round"/>
</svg>
