<svg width="25" height="25" viewBox="0 0 25 25" fill="none" xmlns="http://www.w3.org/2000/svg">
<g opacity="0.4">
<path d="M16.7824 13.625C16.7083 13.6252 16.6359 13.6474 16.5744 13.6887C16.5128 13.73 16.4649 13.7886 16.4367 13.8572C16.4085 13.9257 16.4012 14.0011 16.4158 14.0738C16.4304 14.1464 16.4662 14.2132 16.5186 14.2655C16.5711 14.3179 16.6379 14.3535 16.7107 14.3679C16.7834 14.3823 16.8587 14.3748 16.9272 14.3464C16.9956 14.3179 17.0542 14.2699 17.0953 14.2082C17.1365 14.1466 17.1584 14.0741 17.1584 14C17.1582 13.9005 17.1185 13.8051 17.048 13.7348C16.9775 13.6645 16.882 13.625 16.7824 13.625Z" stroke="#323232" stroke-width="1.5" stroke-linecap="round" stroke-linejoin="round"/>
<path d="M3.1875 5.5V19C3.1875 19.5304 3.39821 20.0391 3.77329 20.4142C4.14836 20.7893 4.65707 21 5.1875 21H19.1875C19.7179 21 20.2266 20.7893 20.6017 20.4142C20.9768 20.0391 21.1875 19.5304 21.1875 19V9C21.1875 8.46957 20.9768 7.96086 20.6017 7.58579C20.2266 7.21071 19.7179 7 19.1875 7H4.6875C4.28968 7 3.90814 6.84196 3.62684 6.56066C3.34554 6.27936 3.1875 5.89782 3.1875 5.5ZM3.1875 5.5C3.1875 5.10218 3.34554 4.72064 3.62684 4.43934C3.90814 4.15804 4.28968 4 4.6875 4H17.1875" stroke="#323232" stroke-width="1.5" stroke-linecap="round" stroke-linejoin="round"/>
</g>
</svg>
