<svg width="367" height="393" viewBox="0 0 367 393" fill="none" xmlns="http://www.w3.org/2000/svg">
<path d="M341.676 164.685L336.743 169.261C331.036 174.562 320.584 174.145 309.996 167.304C296.065 158.297 287.168 141.556 290.133 129.919C290.842 127.123 292.177 124.869 293.983 123.196L298.917 118.62C297.11 120.293 295.776 122.547 295.066 125.343C292.101 136.98 300.999 153.721 314.93 162.728C325.516 169.577 335.969 169.986 341.676 164.685Z" fill="#A66CFF" stroke="black" stroke-width="1.19911" stroke-linecap="round" stroke-linejoin="round"/>
<path d="M295.066 125.343C295.776 122.547 297.111 120.293 298.917 118.62L293.983 123.196C292.177 124.869 290.843 127.123 290.133 129.919C288.348 136.922 290.868 145.778 296.196 153.684L300.258 147.771C295.533 140.218 293.386 131.952 295.068 125.335L295.066 125.343Z" fill="black"/>
<path d="M325.671 120.571C339.61 129.579 348.5 146.319 345.533 157.963C342.568 169.6 328.875 171.738 314.936 162.73C301.005 153.722 292.107 136.981 295.072 125.344C298.039 113.7 311.738 111.571 325.67 120.578L325.671 120.571Z" fill="white" stroke="black" stroke-width="1.19911" stroke-linecap="round" stroke-linejoin="round"/>
<path d="M325.672 120.57C311.741 111.563 298.04 113.699 295.075 125.336C293.393 131.953 295.541 140.211 300.265 147.772L341.32 137.152C337.705 130.804 332.255 124.831 325.67 120.578L325.672 120.57Z" fill="black" stroke="black" stroke-width="1.19911" stroke-linecap="round" stroke-linejoin="round"/>
<path d="M147.055 145.486C139.724 143.731 135.494 148.144 137.608 155.343L165.662 250.785C167.777 257.983 175.429 265.232 182.769 266.988L279.991 290.255C287.322 292.01 291.552 287.597 289.438 280.399L261.384 184.957C259.269 177.758 251.609 170.508 244.277 168.753L147.055 145.486Z" fill="black" stroke="black" stroke-width="1.19911" stroke-linecap="round" stroke-linejoin="round"/>
<path d="M210.669 248.974C210.836 250.016 210.063 251.384 208.95 252.009L204.022 254.779L203.281 250.146C203.114 249.105 203.888 247.737 205.01 247.106L209.938 244.336L210.671 248.967L210.669 248.974Z" fill="#D0F500" stroke="#D0F500" stroke-width="1.19911" stroke-linecap="round" stroke-linejoin="round"/>
<path d="M214.79 256.753C215.902 256.128 216.676 254.76 216.509 253.719L215.776 249.088L209.937 244.344L210.67 248.975C210.837 250.016 210.063 251.384 208.95 252.009L204.022 254.779L209.861 259.523L214.79 256.753Z" fill="#A66CFF"/>
<path d="M230.795 232.606L209.937 244.344L209.205 239.713C209.039 238.664 209.813 237.296 210.926 236.671L227.744 227.213C228.857 226.588 229.905 226.928 230.068 227.985L230.801 232.616L230.795 232.606Z" fill="#D0F500" stroke="#D0F500" stroke-width="1.19911" stroke-linecap="round" stroke-linejoin="round"/>
<path d="M230.794 232.606L236.635 237.342L215.777 249.08L209.938 244.336L230.794 232.606Z" fill="#A66CFF"/>
<path d="M235.903 232.712C235.847 232.354 235.691 232.086 235.468 231.899L229.628 227.155C229.853 227.334 230.008 227.61 230.064 227.968L230.796 232.599L236.636 237.343L235.903 232.712Z" fill="#A66CFF"/>
<path d="M230.794 232.606L235.723 229.836C236.837 229.204 237.883 229.552 238.05 230.593L238.783 235.224L233.845 237.999C232.732 238.624 231.686 238.276 231.519 237.235L230.786 232.604L230.794 232.606Z" fill="#D0F500" stroke="#D0F500" stroke-width="1.19911" stroke-linecap="round" stroke-linejoin="round"/>
<path d="M238.784 235.224L244.623 239.968L239.926 243.031C239.445 243.348 238.681 243.313 238.232 242.955L232.189 238.189C232.189 238.189 232.748 238.628 233.852 238.009L238.782 235.232L238.784 235.224Z" fill="#A66CFF"/>
<path d="M243.892 235.329C243.835 234.979 243.68 234.703 243.455 234.524L237.616 229.78C237.84 229.959 237.995 230.235 238.053 230.585L238.786 235.216L244.625 239.96L243.892 235.329Z" fill="#A66CFF"/>
<path d="M248.537 249.017C248.702 250.066 247.928 251.434 246.816 252.059L241.888 254.829L238.783 235.223L243.712 232.453C244.824 231.828 245.87 232.176 246.036 233.226L248.535 249.024L248.537 249.017Z" fill="#D0F500" stroke="#D0F500" stroke-width="1.19911" stroke-linecap="round" stroke-linejoin="round"/>
<path d="M252.665 256.797C253.778 256.172 254.551 254.804 254.386 253.755L251.887 237.956C251.831 237.598 251.674 237.33 251.451 237.143L245.612 232.399C245.837 232.579 245.991 232.854 246.047 233.212L248.547 249.011C248.712 250.06 247.938 251.428 246.826 252.053L241.897 254.823L247.737 259.567L252.665 256.797Z" fill="#A66CFF"/>
<path d="M207.125 274.392L202.187 277.167C201.074 277.792 200.027 277.452 199.863 276.395L197.363 260.597C197.198 259.547 197.972 258.179 199.084 257.554L204.013 254.785L207.125 274.392Z" fill="#D0F500" stroke="#D0F500" stroke-width="1.19911" stroke-linecap="round" stroke-linejoin="round"/>
<path d="M212.965 279.128L207.126 274.384L202.188 277.159C201.453 277.572 200.747 277.566 200.307 277.202L206.146 281.946C206.588 282.302 207.292 282.316 208.027 281.903L212.965 279.128Z" fill="#A66CFF"/>
<path d="M204.013 254.784L209.852 259.528L212.966 279.128L207.125 274.391L204.013 254.784Z" fill="#A66CFF"/>
<path d="M242.629 259.462C242.796 260.503 242.022 261.871 240.9 262.502L235.972 265.272L235.239 260.642C235.072 259.6 235.846 258.232 236.958 257.607L241.896 254.831L242.629 259.462Z" fill="#D0F500" stroke="#D0F500" stroke-width="1.19911" stroke-linecap="round" stroke-linejoin="round"/>
<path d="M246.739 267.245C247.853 266.612 248.635 265.246 248.468 264.205L247.735 259.574L241.896 254.83L242.628 259.461C242.796 260.502 242.022 261.87 240.9 262.501L235.971 265.271L241.811 270.015L246.739 267.245Z" fill="#A66CFF"/>
<path d="M213.943 271.573L219.783 276.317C220.007 276.496 220.162 276.772 220.22 277.122L214.381 272.378C214.323 272.028 214.168 271.752 213.943 271.573Z" fill="#A66CFF"/>
<path d="M215.113 277.009L210.185 279.779C209.07 280.412 208.024 280.064 207.857 279.022L207.125 274.392L212.062 271.616C213.175 270.991 214.221 271.339 214.388 272.38L215.121 277.011L215.113 277.009Z" fill="#D0F500" stroke="#D0F500" stroke-width="1.19911" stroke-linecap="round" stroke-linejoin="round"/>
<path d="M220.953 281.753L215.114 277.009L210.185 279.778C209.44 280.197 208.737 280.183 208.295 279.827L214.134 284.571C214.576 284.927 215.287 284.943 216.024 284.522L220.953 281.753Z" fill="#A66CFF"/>
<path d="M214.38 272.378L220.219 277.122L220.952 281.752L215.112 277.008L214.38 272.378Z" fill="#A66CFF"/>
<path d="M236.702 269.91C236.869 270.951 236.095 272.319 234.983 272.944L218.164 282.402C217.051 283.027 216.003 282.687 215.838 281.638L215.105 277.007L235.963 265.27L236.696 269.9L236.702 269.91Z" fill="#D0F500" stroke="#D0F500" stroke-width="1.19911" stroke-linecap="round" stroke-linejoin="round"/>
<path d="M240.822 277.688C241.934 277.063 242.708 275.695 242.541 274.654L241.808 270.023L235.969 265.279L236.702 269.91C236.869 270.951 236.095 272.319 234.983 272.944L218.164 282.402C217.428 282.815 216.715 282.807 216.275 282.443L222.114 287.187C222.556 287.544 223.268 287.559 224.003 287.146L240.822 277.688Z" fill="#A66CFF"/>
<path d="M255.781 175.808C252.516 172.399 248.347 169.726 244.277 168.753L147.055 145.486C139.724 143.731 135.494 148.144 137.608 155.343L153.525 209.477L255.781 175.808Z" fill="#A66CFF"/>
<path d="M137.616 155.345L165.67 250.787C167.784 257.986 175.437 265.234 182.776 266.991L279.998 290.258C283.686 291.144 286.586 290.464 288.294 288.655L210.582 370.778C208.874 372.586 205.974 373.267 202.286 372.38L105.064 349.113C97.7328 347.359 90.0741 340.101 87.9581 332.91L59.9039 237.468C58.8539 233.89 59.3675 231.002 61.0458 229.219L138.758 147.096C137.078 148.887 136.556 151.773 137.616 155.345Z" fill="#D0F500"/>
<path d="M94.8102 343.287C91.5999 340.316 89.0527 336.61 87.964 332.919L59.9039 237.468C58.8539 233.89 59.3675 231.002 61.0458 229.219L138.758 147.096C137.078 148.887 136.556 151.773 137.616 155.345L165.67 250.787C166.761 254.503 169.33 258.221 172.57 261.199L94.8119 343.28L94.8102 343.287Z" fill="#FF4085"/>
<path d="M137.616 155.345L165.67 250.787C167.784 257.986 175.437 265.234 182.776 266.991L279.998 290.258C283.686 291.144 286.586 290.464 288.294 288.655L210.582 370.778C208.874 372.586 205.974 373.267 202.286 372.38L105.064 349.113C97.7328 347.359 90.0741 340.101 87.9581 332.91L59.9039 237.468C58.8539 233.89 59.3675 231.002 61.0458 229.219L138.758 147.096C137.078 148.887 136.556 151.773 137.616 155.345Z" stroke="black" stroke-width="1.19911" stroke-linecap="round" stroke-linejoin="round"/>
<path d="M289.446 280.401L261.392 184.959C259.277 177.76 251.617 170.51 244.285 168.755L147.063 145.488C139.732 143.734 135.502 148.147 137.624 155.347L165.678 250.789C167.792 257.987 175.445 265.236 182.784 266.992L280.006 290.259C287.338 292.014 291.568 287.601 289.453 280.403L289.446 280.401ZM275.923 280.674L181.414 258.058C178.548 257.373 175.525 254.5 174.698 251.679L147.438 158.953C146.603 156.131 148.267 154.377 151.133 155.063L245.642 177.679C248.508 178.364 251.531 181.237 252.358 184.058L279.618 276.783C280.453 279.606 278.789 281.36 275.923 280.674Z" fill="#EBE9E9" stroke="black" stroke-width="1.19911" stroke-linecap="round" stroke-linejoin="round"/>
<path d="M136.222 209.599C136.629 211 135.906 213.287 134.604 214.68L128.836 220.859L120.707 229.567L114.939 235.746C113.636 237.147 112.233 237.137 111.816 235.742L110.737 232.077C110.33 230.677 111.053 228.39 112.364 226.99L118.132 220.811L126.261 212.103L132.029 205.925C133.331 204.531 134.734 204.542 135.143 205.935L136.222 209.599Z" fill="black"/>
<path d="M143.944 235.873C144.357 237.284 143.626 239.569 142.332 240.964L136.564 247.143L128.435 255.851L122.667 262.03C121.364 263.431 119.961 263.42 119.546 262.018L118.473 258.363C118.06 256.952 118.791 254.667 120.094 253.266L125.862 247.087L133.991 238.379L139.759 232.2C141.061 230.807 142.464 230.817 142.871 232.218L143.944 235.873Z" fill="black"/>
<path d="M101.122 235.679C101.53 237.08 100.806 239.367 99.4954 240.766L93.7272 246.945L91.9043 240.736C91.4968 239.335 92.2204 237.049 93.5313 235.649L96.9281 232.012C98.2315 230.611 99.6346 230.622 100.051 232.017L101.13 235.681L101.122 235.679Z" fill="black"/>
<path d="M104.033 281.978L98.2648 288.157C96.9631 289.55 95.56 289.54 95.1449 288.137L93.3219 281.928L90.747 273.172L88.1739 264.409L86.3509 258.199C85.9434 256.798 86.667 254.512 87.9686 253.118L93.7368 246.939L96.3117 255.695L98.8849 264.458L101.46 273.214L104.033 281.978Z" fill="black"/>
<path d="M113.994 279.475C114.402 280.876 113.678 283.162 112.367 284.562L108.97 288.199C107.667 289.6 106.264 289.589 105.847 288.194L104.024 281.985L109.792 275.806C111.095 274.405 112.499 274.415 112.915 275.81L113.994 279.475Z" fill="black"/>
<path d="M137.789 111.046L223.275 131.502C229.723 133.042 240.089 132.267 246.435 129.768L330.608 96.6152C336.953 94.1161 336.872 90.837 330.432 89.2989L244.946 68.8424C238.498 67.3025 228.131 68.0772 221.786 70.5763L137.613 103.729C131.267 106.228 131.348 109.507 137.789 111.046Z" fill="#EBE9E9" stroke="black" stroke-width="1.19911" stroke-linecap="round" stroke-linejoin="round"/>
<path d="M150.54 109.378L225.563 127.327C230.281 128.453 237.877 127.89 242.522 126.06L317.09 96.6883C321.742 94.8603 321.68 92.4608 316.956 91.3251L241.933 73.3766C237.214 72.2503 229.618 72.8133 224.974 74.643L150.406 104.015C145.762 105.845 145.816 108.242 150.54 109.378Z" fill="#A66CFF" stroke="black" stroke-width="1.19911" stroke-linecap="round" stroke-linejoin="round"/>
<path d="M317.09 96.6874C321.742 94.8593 321.68 92.4599 316.956 91.3242L299.024 87.0306L233.379 109.343L234.068 127.795C237.14 127.562 240.206 126.967 242.524 126.052L317.092 96.6797L317.09 96.6874Z" fill="black"/>
<path d="M224.972 74.6507L154.67 102.341L225.501 119.289C230.219 120.415 237.815 119.853 242.462 118.015L312.763 90.3252L241.933 73.3766C237.214 72.2503 229.618 72.8133 224.972 74.6507Z" fill="#A66CFF" stroke="black" stroke-width="1.19911" stroke-linecap="round" stroke-linejoin="round"/>
<path d="M330.431 89.2977L244.945 68.8412C238.497 67.3013 228.131 68.076 221.785 70.5751L137.612 103.728C134.422 104.986 132.85 106.439 132.904 107.768L131.774 77.2508C131.72 75.9214 133.284 74.4664 136.482 73.2106L220.648 40.0558C226.993 37.5567 237.368 36.7838 243.808 38.322L329.294 58.7784C332.494 59.547 334.129 60.7422 334.179 62.0546L335.308 92.5721C335.258 91.2597 333.624 90.0646 330.424 89.296L330.431 89.2977Z" fill="white"/>
<path d="M230.524 68.5025L229.458 37.9512" stroke="#A66CFF" stroke-width="1.19911" stroke-linecap="round" stroke-linejoin="round"/>
<path d="M231.859 37.7046C236.162 37.3561 240.501 37.5295 243.808 38.3222L329.294 58.7787C332.494 59.5473 334.129 60.7425 334.179 62.0548L335.308 92.5724C335.258 91.26 333.624 90.0648 330.424 89.2962L244.938 68.8397C241.615 68.0436 237.245 67.871 232.924 68.2237L231.859 37.7046Z" fill="#A66CFF"/>
<path d="M330.431 89.2977L244.945 68.8412C238.497 67.3013 228.131 68.076 221.785 70.5751L137.612 103.728C134.422 104.986 132.85 106.439 132.904 107.768L131.774 77.2508C131.72 75.9214 133.284 74.4664 136.482 73.2106L220.648 40.0558C226.993 37.5567 237.368 36.7838 243.808 38.322L329.294 58.7784C332.494 59.547 334.129 60.7422 334.179 62.0546L335.308 92.5721C335.258 91.2597 333.624 90.0646 330.424 89.296L330.431 89.2977Z" stroke="black" stroke-width="1.19911" stroke-linecap="round" stroke-linejoin="round"/>
<path d="M262.214 185.682C277.63 186.133 285.636 189.814 280.088 193.906C274.543 197.991 257.544 200.935 242.128 200.485C226.704 200.033 218.698 196.351 224.246 192.259C229.793 188.167 246.792 185.223 262.214 185.682Z" fill="#EBE9E9" stroke="black" stroke-width="1.19911" stroke-linecap="round" stroke-linejoin="round"/>
<path d="M281.844 191.242L282.335 199.159C282.385 200.005 281.822 200.899 280.578 201.823C275.033 205.908 258.033 208.852 242.618 208.402C230.658 208.047 223.158 205.756 222.979 202.84L222.489 194.923C222.668 197.839 230.167 200.13 242.127 200.485C257.543 200.935 274.542 197.991 280.088 193.906C281.33 192.989 281.894 192.088 281.844 191.242Z" fill="#A66CFF" stroke="black" stroke-width="1.19911" stroke-linecap="round" stroke-linejoin="round"/>
<path d="M231.265 199.437C225.797 198.431 222.605 196.805 222.482 194.922L222.973 202.839C223.085 204.696 226.186 206.301 231.507 207.314L231.263 199.444L231.265 199.437Z" fill="black"/>
<path d="M316.042 233.875L306.833 237.928L310.886 247.136L320.095 243.084L316.042 233.875Z" fill="black"/>
<path d="M59.1182 101.089L49.9097 105.142L53.9622 114.35L63.1708 110.298L59.1182 101.089Z" fill="black"/>
<path d="M333.838 203.189L328.018 194.982L319.811 200.802L325.631 209.009L333.838 203.189Z" fill="#2100EC"/>
<path d="M211.024 192.824L205.204 184.617L196.997 190.437L202.817 198.644L211.024 192.824Z" fill="#D0F500"/>
<path d="M84.777 160.13L78.957 151.924L70.7504 157.744L76.5704 165.95L84.777 160.13Z" fill="#2100EC"/>
<path d="M234.509 144.378L226.413 138.405L220.44 146.502L228.536 152.474L234.509 144.378Z" fill="#FF4085"/>
<path d="M104.184 72.8994L96.0879 66.9268L90.1153 75.023L98.2115 80.9956L104.184 72.8994Z" fill="#A66CFF"/>
</svg>
