<svg width="378" height="104" viewBox="0 0 378 104" fill="none" xmlns="http://www.w3.org/2000/svg">
<g filter="url(#filter0_i_16_1951)">
<circle cx="55.8125" cy="39.5" r="32" fill="#D0F500"/>
</g>
<circle cx="55.8125" cy="39.5" r="31.25" stroke="black" stroke-width="1.5"/>
<path d="M57.9692 34.429V32.969C57.9692 31.936 57.0883 31 56.0002 31C54.9122 31 54.0312 31.881 54.0312 32.969V34.428" stroke="#323232" stroke-width="1.5" stroke-linecap="round" stroke-linejoin="round"/>
<path fill-rule="evenodd" clip-rule="evenodd" d="M58.3153 39.0002H53.6853C53.0703 39.0002 52.5723 38.5022 52.5723 37.8872V35.5422C52.5723 34.9272 53.0703 34.4292 53.6853 34.4292H58.3163C58.9313 34.4292 59.4293 34.9272 59.4293 35.5422V37.8872C59.4293 38.5022 58.9303 39.0002 58.3153 39.0002V39.0002Z" stroke="#323232" stroke-width="1.5" stroke-linecap="round" stroke-linejoin="round"/>
<path fill-rule="evenodd" clip-rule="evenodd" d="M62.5 49H49.5C47.567 49 46 47.433 46 45.5V45.5C46 43.567 47.567 42 49.5 42H62.5C64.433 42 66 43.567 66 45.5V45.5C66 47.433 64.433 49 62.5 49Z" stroke="#323232" stroke-width="1.5" stroke-linecap="round" stroke-linejoin="round"/>
<path d="M62.244 45.499C62.244 45.364 62.135 45.255 62 45.256C61.865 45.256 61.756 45.365 61.756 45.5C61.756 45.635 61.865 45.744 62 45.744C62.135 45.744 62.244 45.635 62.244 45.499" stroke="#323232" stroke-width="1.625" stroke-linecap="round" stroke-linejoin="round"/>
<path d="M58.244 45.499C58.244 45.364 58.135 45.255 58 45.256C57.865 45.256 57.756 45.365 57.756 45.5C57.756 45.635 57.865 45.744 58 45.744C58.134 45.744 58.244 45.635 58.244 45.499" stroke="#323232" stroke-width="1.625" stroke-linecap="round" stroke-linejoin="round"/>
<path d="M54.244 45.499C54.244 45.364 54.135 45.255 54 45.256C53.865 45.256 53.756 45.365 53.756 45.5C53.756 45.635 53.865 45.744 54 45.744C54.134 45.744 54.244 45.635 54.244 45.499" stroke="#323232" stroke-width="1.625" stroke-linecap="round" stroke-linejoin="round"/>
<path d="M50.244 45.499C50.244 45.364 50.135 45.255 50 45.256C49.865 45.256 49.756 45.365 49.756 45.5C49.756 45.635 49.865 45.744 50 45.744C50.134 45.744 50.244 45.635 50.244 45.499" stroke="#323232" stroke-width="1.625" stroke-linecap="round" stroke-linejoin="round"/>
<path d="M6.473 98.668C5.72633 98.668 5.03567 98.5327 4.401 98.262C3.77567 97.9913 3.225 97.6133 2.749 97.128C2.28233 96.6427 1.91833 96.0733 1.657 95.42C1.39567 94.7667 1.265 94.0527 1.265 93.278C1.265 92.5033 1.391 91.7893 1.643 91.136C1.90433 90.4733 2.26833 89.904 2.735 89.428C3.211 88.9427 3.76633 88.5693 4.401 88.308C5.03567 88.0373 5.72633 87.902 6.473 87.902C7.21967 87.902 7.887 88.028 8.475 88.28C9.07233 88.532 9.57633 88.868 9.987 89.288C10.3977 89.6987 10.6917 90.1513 10.869 90.646L9.161 91.444C8.965 90.9213 8.63367 90.492 8.167 90.156C7.70033 89.8107 7.13567 89.638 6.473 89.638C5.81967 89.638 5.241 89.792 4.737 90.1C4.24233 90.408 3.855 90.8327 3.575 91.374C3.30433 91.9153 3.169 92.55 3.169 93.278C3.169 94.006 3.30433 94.6453 3.575 95.196C3.855 95.7373 4.24233 96.162 4.737 96.47C5.241 96.778 5.81967 96.932 6.473 96.932C7.13567 96.932 7.70033 96.764 8.167 96.428C8.63367 96.0827 8.965 95.6487 9.161 95.126L10.869 95.924C10.6917 96.4187 10.3977 96.876 9.987 97.296C9.57633 97.7067 9.07233 98.038 8.475 98.29C7.887 98.542 7.21967 98.668 6.473 98.668ZM11.8408 98.5V90.884H13.5628V92.578L13.4228 92.326C13.6001 91.7567 13.8755 91.36 14.2488 91.136C14.6315 90.912 15.0888 90.8 15.6208 90.8H16.0688V92.424H15.4108C14.8881 92.424 14.4681 92.5873 14.1508 92.914C13.8335 93.2313 13.6748 93.6793 13.6748 94.258V98.5H11.8408ZM20.2691 98.668C19.4851 98.668 18.7991 98.4907 18.2111 98.136C17.6231 97.7813 17.1658 97.3007 16.8391 96.694C16.5125 96.0873 16.3491 95.4153 16.3491 94.678C16.3491 93.9127 16.5125 93.236 16.8391 92.648C17.1751 92.0507 17.6278 91.5793 18.1971 91.234C18.7758 90.8887 19.4198 90.716 20.1291 90.716C20.7265 90.716 21.2491 90.814 21.6971 91.01C22.1545 91.206 22.5418 91.4767 22.8591 91.822C23.1765 92.1673 23.4191 92.564 23.5871 93.012C23.7551 93.4507 23.8391 93.9267 23.8391 94.44C23.8391 94.5707 23.8298 94.706 23.8111 94.846C23.8018 94.986 23.7785 95.1073 23.7411 95.21H17.8611V93.81H22.7051L21.8371 94.468C21.9211 94.0387 21.8978 93.656 21.7671 93.32C21.6458 92.984 21.4405 92.718 21.1511 92.522C20.8711 92.326 20.5305 92.228 20.1291 92.228C19.7465 92.228 19.4058 92.326 19.1071 92.522C18.8085 92.7087 18.5798 92.9887 18.4211 93.362C18.2718 93.726 18.2158 94.1693 18.2531 94.692C18.2158 95.1587 18.2765 95.574 18.4351 95.938C18.6031 96.2927 18.8458 96.568 19.1631 96.764C19.4898 96.96 19.8631 97.058 20.2831 97.058C20.7031 97.058 21.0578 96.9693 21.3471 96.792C21.6458 96.6147 21.8791 96.3767 22.0471 96.078L23.5311 96.806C23.3818 97.17 23.1485 97.492 22.8311 97.772C22.5138 98.052 22.1358 98.2713 21.6971 98.43C21.2678 98.5887 20.7918 98.668 20.2691 98.668ZM27.092 98.668C26.56 98.668 26.098 98.5793 25.706 98.402C25.314 98.2247 25.0107 97.9727 24.796 97.646C24.5814 97.31 24.474 96.9227 24.474 96.484C24.474 96.064 24.5674 95.6907 24.754 95.364C24.9407 95.028 25.23 94.748 25.622 94.524C26.014 94.3 26.5087 94.1413 27.106 94.048L29.598 93.642V95.042L27.456 95.406C27.092 95.4713 26.8214 95.588 26.644 95.756C26.4667 95.924 26.378 96.1433 26.378 96.414C26.378 96.6753 26.476 96.8853 26.672 97.044C26.8774 97.1933 27.1294 97.268 27.428 97.268C27.8107 97.268 28.1467 97.1887 28.436 97.03C28.7347 96.862 28.9634 96.6333 29.122 96.344C29.29 96.0547 29.374 95.7373 29.374 95.392V93.432C29.374 93.1053 29.2434 92.8347 28.982 92.62C28.73 92.396 28.394 92.284 27.974 92.284C27.582 92.284 27.232 92.3913 26.924 92.606C26.6254 92.8113 26.406 93.0867 26.266 93.432L24.768 92.704C24.9174 92.3027 25.1507 91.9573 25.468 91.668C25.7947 91.3693 26.1774 91.136 26.616 90.968C27.0547 90.8 27.5307 90.716 28.044 90.716C28.6694 90.716 29.22 90.8327 29.696 91.066C30.172 91.29 30.5407 91.6073 30.802 92.018C31.0727 92.4193 31.208 92.8907 31.208 93.432V98.5H29.472V97.198L29.864 97.17C29.668 97.4967 29.4347 97.772 29.164 97.996C28.8934 98.2107 28.5854 98.3787 28.24 98.5C27.8947 98.612 27.512 98.668 27.092 98.668ZM35.8184 98.584C34.9598 98.584 34.2924 98.3507 33.8164 97.884C33.3498 97.408 33.1164 96.7407 33.1164 95.882V92.522H31.8004V90.884H31.9404C32.3138 90.884 32.6031 90.786 32.8084 90.59C33.0138 90.394 33.1164 90.1093 33.1164 89.736V89.148H34.9504V90.884H36.7004V92.522H34.9504V95.784C34.9504 96.036 34.9924 96.2507 35.0764 96.428C35.1698 96.6053 35.3098 96.7407 35.4964 96.834C35.6924 96.9273 35.9398 96.974 36.2384 96.974C36.3038 96.974 36.3784 96.9693 36.4624 96.96C36.5558 96.9507 36.6444 96.9413 36.7284 96.932V98.5C36.5978 98.5187 36.4484 98.5373 36.2804 98.556C36.1124 98.5747 35.9584 98.584 35.8184 98.584ZM41.2533 98.668C40.4693 98.668 39.7833 98.4907 39.1953 98.136C38.6073 97.7813 38.1499 97.3007 37.8233 96.694C37.4966 96.0873 37.3333 95.4153 37.3333 94.678C37.3333 93.9127 37.4966 93.236 37.8233 92.648C38.1593 92.0507 38.6119 91.5793 39.1813 91.234C39.7599 90.8887 40.4039 90.716 41.1133 90.716C41.7106 90.716 42.2333 90.814 42.6813 91.01C43.1386 91.206 43.5259 91.4767 43.8433 91.822C44.1606 92.1673 44.4033 92.564 44.5713 93.012C44.7393 93.4507 44.8233 93.9267 44.8233 94.44C44.8233 94.5707 44.8139 94.706 44.7953 94.846C44.7859 94.986 44.7626 95.1073 44.7253 95.21H38.8453V93.81H43.6893L42.8213 94.468C42.9053 94.0387 42.8819 93.656 42.7513 93.32C42.6299 92.984 42.4246 92.718 42.1353 92.522C41.8553 92.326 41.5146 92.228 41.1133 92.228C40.7306 92.228 40.3899 92.326 40.0913 92.522C39.7926 92.7087 39.5639 92.9887 39.4053 93.362C39.2559 93.726 39.1999 94.1693 39.2373 94.692C39.1999 95.1587 39.2606 95.574 39.4193 95.938C39.5873 96.2927 39.8299 96.568 40.1473 96.764C40.4739 96.96 40.8473 97.058 41.2673 97.058C41.6873 97.058 42.0419 96.9693 42.3313 96.792C42.6299 96.6147 42.8633 96.3767 43.0313 96.078L44.5153 96.806C44.3659 97.17 44.1326 97.492 43.8153 97.772C43.4979 98.052 43.1199 98.2713 42.6813 98.43C42.2519 98.5887 41.7759 98.668 41.2533 98.668ZM48.0158 98.5V88.07H51.9078C52.6171 88.07 53.2425 88.2007 53.7838 88.462C54.3345 88.714 54.7638 89.0873 55.0718 89.582C55.3798 90.0673 55.5338 90.66 55.5338 91.36C55.5338 92.0507 55.3751 92.6433 55.0578 93.138C54.7498 93.6233 54.3251 93.9967 53.7838 94.258C53.2425 94.5193 52.6171 94.65 51.9078 94.65H49.9198V98.5H48.0158ZM49.9198 92.97H51.9358C52.2811 92.97 52.5798 92.9047 52.8318 92.774C53.0838 92.634 53.2798 92.4427 53.4198 92.2C53.5598 91.9573 53.6298 91.6773 53.6298 91.36C53.6298 91.0333 53.5598 90.7533 53.4198 90.52C53.2798 90.2773 53.0838 90.0907 52.8318 89.96C52.5798 89.82 52.2811 89.75 51.9358 89.75H49.9198V92.97ZM58.3788 98.668C57.8468 98.668 57.3848 98.5793 56.9928 98.402C56.6008 98.2247 56.2974 97.9727 56.0828 97.646C55.8681 97.31 55.7608 96.9227 55.7608 96.484C55.7608 96.064 55.8541 95.6907 56.0408 95.364C56.2274 95.028 56.5168 94.748 56.9088 94.524C57.3008 94.3 57.7954 94.1413 58.3928 94.048L60.8848 93.642V95.042L58.7428 95.406C58.3788 95.4713 58.1081 95.588 57.9308 95.756C57.7534 95.924 57.6648 96.1433 57.6648 96.414C57.6648 96.6753 57.7628 96.8853 57.9588 97.044C58.1641 97.1933 58.4161 97.268 58.7148 97.268C59.0974 97.268 59.4334 97.1887 59.7228 97.03C60.0214 96.862 60.2501 96.6333 60.4088 96.344C60.5768 96.0547 60.6608 95.7373 60.6608 95.392V93.432C60.6608 93.1053 60.5301 92.8347 60.2688 92.62C60.0168 92.396 59.6808 92.284 59.2608 92.284C58.8688 92.284 58.5188 92.3913 58.2108 92.606C57.9121 92.8113 57.6928 93.0867 57.5528 93.432L56.0548 92.704C56.2041 92.3027 56.4374 91.9573 56.7548 91.668C57.0814 91.3693 57.4641 91.136 57.9028 90.968C58.3414 90.8 58.8174 90.716 59.3308 90.716C59.9561 90.716 60.5068 90.8327 60.9828 91.066C61.4588 91.29 61.8274 91.6073 62.0888 92.018C62.3594 92.4193 62.4948 92.8907 62.4948 93.432V98.5H60.7588V97.198L61.1508 97.17C60.9548 97.4967 60.7214 97.772 60.4508 97.996C60.1801 98.2107 59.8721 98.3787 59.5268 98.5C59.1814 98.612 58.7988 98.668 58.3788 98.668ZM66.6679 98.668C65.8559 98.668 65.1465 98.4767 64.5399 98.094C63.9425 97.702 63.5319 97.1747 63.3079 96.512L64.6799 95.854C64.8759 96.2833 65.1465 96.6193 65.4919 96.862C65.8465 97.1047 66.2385 97.226 66.6679 97.226C67.0039 97.226 67.2699 97.1513 67.4659 97.002C67.6619 96.8527 67.7599 96.6567 67.7599 96.414C67.7599 96.2647 67.7179 96.1433 67.6339 96.05C67.5592 95.9473 67.4519 95.8633 67.3119 95.798C67.1812 95.7233 67.0365 95.6627 66.8779 95.616L65.6319 95.266C64.9879 95.0793 64.4979 94.7947 64.1619 94.412C63.8352 94.0293 63.6719 93.5767 63.6719 93.054C63.6719 92.5873 63.7885 92.1813 64.0219 91.836C64.2645 91.4813 64.5959 91.206 65.0159 91.01C65.4452 90.814 65.9352 90.716 66.4859 90.716C67.2045 90.716 67.8392 90.8887 68.3899 91.234C68.9405 91.5793 69.3325 92.0647 69.5659 92.69L68.1659 93.348C68.0352 93.0027 67.8159 92.7273 67.5079 92.522C67.1999 92.3167 66.8545 92.214 66.4719 92.214C66.1639 92.214 65.9212 92.284 65.7439 92.424C65.5665 92.564 65.4779 92.746 65.4779 92.97C65.4779 93.11 65.5152 93.2313 65.5899 93.334C65.6645 93.4367 65.7672 93.5207 65.8979 93.586C66.0379 93.6513 66.1965 93.712 66.3739 93.768L67.5919 94.132C68.2172 94.3187 68.6979 94.5987 69.0339 94.972C69.3792 95.3453 69.5519 95.8027 69.5519 96.344C69.5519 96.8013 69.4305 97.2073 69.1879 97.562C68.9452 97.9073 68.6092 98.178 68.1799 98.374C67.7505 98.57 67.2465 98.668 66.6679 98.668ZM73.4393 98.668C72.6273 98.668 71.9179 98.4767 71.3113 98.094C70.7139 97.702 70.3033 97.1747 70.0793 96.512L71.4513 95.854C71.6473 96.2833 71.9179 96.6193 72.2633 96.862C72.6179 97.1047 73.0099 97.226 73.4393 97.226C73.7753 97.226 74.0413 97.1513 74.2373 97.002C74.4333 96.8527 74.5313 96.6567 74.5313 96.414C74.5313 96.2647 74.4893 96.1433 74.4053 96.05C74.3306 95.9473 74.2233 95.8633 74.0833 95.798C73.9526 95.7233 73.8079 95.6627 73.6493 95.616L72.4033 95.266C71.7593 95.0793 71.2693 94.7947 70.9333 94.412C70.6066 94.0293 70.4433 93.5767 70.4433 93.054C70.4433 92.5873 70.5599 92.1813 70.7933 91.836C71.0359 91.4813 71.3673 91.206 71.7873 91.01C72.2166 90.814 72.7066 90.716 73.2573 90.716C73.9759 90.716 74.6106 90.8887 75.1613 91.234C75.7119 91.5793 76.1039 92.0647 76.3373 92.69L74.9373 93.348C74.8066 93.0027 74.5873 92.7273 74.2793 92.522C73.9713 92.3167 73.6259 92.214 73.2433 92.214C72.9353 92.214 72.6926 92.284 72.5153 92.424C72.3379 92.564 72.2493 92.746 72.2493 92.97C72.2493 93.11 72.2866 93.2313 72.3613 93.334C72.4359 93.4367 72.5386 93.5207 72.6693 93.586C72.8093 93.6513 72.9679 93.712 73.1453 93.768L74.3633 94.132C74.9886 94.3187 75.4693 94.5987 75.8053 94.972C76.1506 95.3453 76.3233 95.8027 76.3233 96.344C76.3233 96.8013 76.2019 97.2073 75.9593 97.562C75.7166 97.9073 75.3806 98.178 74.9513 98.374C74.5219 98.57 74.0179 98.668 73.4393 98.668ZM79.0939 98.5L76.4759 90.884H78.4079L80.3259 96.666L79.6539 96.652L81.6979 90.884H83.3219L85.3519 96.652L84.6799 96.666L86.5979 90.884H88.5299L85.9119 98.5H84.2739L82.2019 92.466H82.8179L80.7179 98.5H79.0939ZM92.7026 98.668C91.9559 98.668 91.2746 98.4953 90.6586 98.15C90.0519 97.8047 89.5666 97.3333 89.2026 96.736C88.8479 96.1387 88.6706 95.4573 88.6706 94.692C88.6706 93.9267 88.8479 93.2453 89.2026 92.648C89.5666 92.0507 90.0519 91.5793 90.6586 91.234C91.2653 90.8887 91.9466 90.716 92.7026 90.716C93.4493 90.716 94.1259 90.8887 94.7326 91.234C95.3393 91.5793 95.8199 92.0507 96.1746 92.648C96.5386 93.236 96.7206 93.9173 96.7206 94.692C96.7206 95.4573 96.5386 96.1387 96.1746 96.736C95.8106 97.3333 95.3253 97.8047 94.7186 98.15C94.1119 98.4953 93.4399 98.668 92.7026 98.668ZM92.7026 96.988C93.1133 96.988 93.4726 96.89 93.7806 96.694C94.0979 96.498 94.3453 96.2273 94.5226 95.882C94.7093 95.5273 94.8026 95.1307 94.8026 94.692C94.8026 94.244 94.7093 93.852 94.5226 93.516C94.3453 93.1707 94.0979 92.9 93.7806 92.704C93.4726 92.4987 93.1133 92.396 92.7026 92.396C92.2826 92.396 91.9139 92.4987 91.5966 92.704C91.2793 92.9 91.0273 93.1707 90.8406 93.516C90.6633 93.852 90.5746 94.244 90.5746 94.692C90.5746 95.1307 90.6633 95.5273 90.8406 95.882C91.0273 96.2273 91.2793 96.498 91.5966 96.694C91.9139 96.89 92.2826 96.988 92.7026 96.988ZM97.6914 98.5V90.884H99.4134V92.578L99.2734 92.326C99.4508 91.7567 99.7261 91.36 100.099 91.136C100.482 90.912 100.939 90.8 101.471 90.8H101.919V92.424H101.261C100.739 92.424 100.319 92.5873 100.001 92.914C99.6841 93.2313 99.5254 93.6793 99.5254 94.258V98.5H97.6914ZM106.05 98.668C105.312 98.668 104.654 98.4953 104.076 98.15C103.497 97.7953 103.04 97.3147 102.704 96.708C102.368 96.1013 102.2 95.4293 102.2 94.692C102.2 93.9453 102.368 93.2733 102.704 92.676C103.04 92.0787 103.497 91.6027 104.076 91.248C104.664 90.8933 105.317 90.716 106.036 90.716C106.614 90.716 107.128 90.8327 107.576 91.066C108.033 91.29 108.392 91.6073 108.654 92.018L108.374 92.396V87.902H110.208V98.5H108.472V97.03L108.668 97.394C108.406 97.8047 108.042 98.122 107.576 98.346C107.109 98.5607 106.6 98.668 106.05 98.668ZM106.246 96.988C106.666 96.988 107.034 96.89 107.352 96.694C107.669 96.498 107.916 96.2273 108.094 95.882C108.28 95.5367 108.374 95.14 108.374 94.692C108.374 94.2533 108.28 93.8613 108.094 93.516C107.916 93.1613 107.669 92.886 107.352 92.69C107.034 92.494 106.666 92.396 106.246 92.396C105.835 92.396 105.466 92.4987 105.14 92.704C104.813 92.9 104.556 93.1707 104.37 93.516C104.192 93.852 104.104 94.244 104.104 94.692C104.104 95.14 104.192 95.5367 104.37 95.882C104.556 96.2273 104.813 96.498 105.14 96.694C105.466 96.89 105.835 96.988 106.246 96.988Z" fill="black"/>
<circle cx="193.938" cy="39.5" r="32" fill="white"/>
<circle cx="193.938" cy="39.5" r="31.5" stroke="black" stroke-opacity="0.1"/>
<g opacity="0.4">
<path d="M190.211 37.2188V35.0028C190.211 32.9508 191.748 31.1118 193.797 31.0048C195.982 30.8908 197.79 32.6288 197.79 34.7888V37.2188" stroke="#323232" stroke-width="1.5" stroke-linecap="round" stroke-linejoin="round"/>
<path d="M198.596 37.9038C201.135 40.4422 201.135 44.5578 198.596 47.0962C196.058 49.6346 191.942 49.6346 189.404 47.0962C186.865 44.5578 186.865 40.4422 189.404 37.9038C191.942 35.3654 196.058 35.3654 198.596 37.9038" stroke="#323232" stroke-width="1.5" stroke-linecap="round" stroke-linejoin="round"/>
<path d="M194 44.5002V41.9502" stroke="#323232" stroke-width="1.5" stroke-linecap="round" stroke-linejoin="round"/>
<path d="M193.997 40.4312C193.583 40.4312 193.247 40.7672 193.25 41.1812C193.25 41.5952 193.586 41.9312 194 41.9312C194.414 41.9312 194.75 41.5952 194.75 41.1812C194.75 40.7672 194.414 40.4312 193.997 40.4312" stroke="#323232" stroke-width="1.5" stroke-linecap="round" stroke-linejoin="round"/>
</g>
<g opacity="0.4">
<path d="M154.582 98.668C153.929 98.668 153.322 98.5467 152.762 98.304C152.202 98.052 151.726 97.7113 151.334 97.282C150.942 96.8527 150.653 96.358 150.466 95.798L151.866 95.21C152.118 95.854 152.487 96.3487 152.972 96.694C153.457 97.0393 154.017 97.212 154.652 97.212C155.025 97.212 155.352 97.156 155.632 97.044C155.912 96.9227 156.127 96.7547 156.276 96.54C156.435 96.3253 156.514 96.078 156.514 95.798C156.514 95.4153 156.407 95.112 156.192 94.888C155.977 94.664 155.66 94.4867 155.24 94.356L153.28 93.74C152.496 93.4973 151.899 93.1287 151.488 92.634C151.077 92.13 150.872 91.542 150.872 90.87C150.872 90.282 151.017 89.7687 151.306 89.33C151.595 88.882 151.992 88.532 152.496 88.28C153.009 88.028 153.593 87.902 154.246 87.902C154.871 87.902 155.441 88.014 155.954 88.238C156.467 88.4527 156.906 88.7513 157.27 89.134C157.643 89.5167 157.914 89.96 158.082 90.464L156.71 91.066C156.505 90.5153 156.183 90.0907 155.744 89.792C155.315 89.4933 154.815 89.344 154.246 89.344C153.901 89.344 153.597 89.4047 153.336 89.526C153.075 89.638 152.869 89.806 152.72 90.03C152.58 90.2447 152.51 90.4967 152.51 90.786C152.51 91.122 152.617 91.4207 152.832 91.682C153.047 91.9433 153.373 92.1393 153.812 92.27L155.632 92.844C156.463 93.096 157.088 93.46 157.508 93.936C157.928 94.4027 158.138 94.986 158.138 95.686C158.138 96.2647 157.984 96.778 157.676 97.226C157.377 97.674 156.962 98.0287 156.43 98.29C155.898 98.542 155.282 98.668 154.582 98.668ZM162.975 98.668C162.219 98.668 161.547 98.4953 160.959 98.15C160.38 97.7953 159.927 97.3193 159.601 96.722C159.274 96.1153 159.111 95.4387 159.111 94.692C159.111 93.9267 159.274 93.25 159.601 92.662C159.937 92.074 160.385 91.612 160.945 91.276C161.505 90.9307 162.139 90.758 162.849 90.758C163.418 90.758 163.927 90.856 164.375 91.052C164.823 91.248 165.201 91.5187 165.509 91.864C165.817 92.2 166.05 92.5873 166.209 93.026C166.377 93.4647 166.461 93.9313 166.461 94.426C166.461 94.5473 166.456 94.6733 166.447 94.804C166.437 94.9347 166.419 95.056 166.391 95.168H160.357V93.908H165.495L164.739 94.482C164.832 94.0247 164.799 93.6187 164.641 93.264C164.491 92.9 164.258 92.6153 163.941 92.41C163.633 92.1953 163.269 92.088 162.849 92.088C162.429 92.088 162.055 92.1953 161.729 92.41C161.402 92.6153 161.15 92.914 160.973 93.306C160.795 93.6887 160.725 94.1553 160.763 94.706C160.716 95.2193 160.786 95.6673 160.973 96.05C161.169 96.4327 161.439 96.7313 161.785 96.946C162.139 97.1607 162.541 97.268 162.989 97.268C163.446 97.268 163.833 97.1653 164.151 96.96C164.477 96.7547 164.734 96.4887 164.921 96.162L166.209 96.792C166.059 97.1467 165.826 97.4687 165.509 97.758C165.201 98.038 164.827 98.262 164.389 98.43C163.959 98.5887 163.488 98.668 162.975 98.668ZM171.182 98.668C170.426 98.668 169.754 98.4953 169.166 98.15C168.588 97.7953 168.126 97.3193 167.78 96.722C167.444 96.1247 167.276 95.448 167.276 94.692C167.276 93.9453 167.444 93.2733 167.78 92.676C168.116 92.0787 168.578 91.612 169.166 91.276C169.754 90.9307 170.426 90.758 171.182 90.758C171.696 90.758 172.176 90.8513 172.624 91.038C173.072 91.2153 173.46 91.4627 173.786 91.78C174.122 92.0973 174.37 92.466 174.528 92.886L173.142 93.53C172.984 93.138 172.727 92.8253 172.372 92.592C172.027 92.3493 171.63 92.228 171.182 92.228C170.753 92.228 170.366 92.3353 170.02 92.55C169.684 92.7553 169.418 93.0493 169.222 93.432C169.026 93.8053 168.928 94.23 168.928 94.706C168.928 95.182 169.026 95.6113 169.222 95.994C169.418 96.3673 169.684 96.6613 170.02 96.876C170.366 97.0907 170.753 97.198 171.182 97.198C171.64 97.198 172.036 97.0813 172.372 96.848C172.718 96.6053 172.974 96.2833 173.142 95.882L174.528 96.54C174.379 96.9413 174.136 97.3053 173.8 97.632C173.474 97.9493 173.086 98.2013 172.638 98.388C172.19 98.5747 171.705 98.668 171.182 98.668ZM178.357 98.668C177.787 98.668 177.288 98.542 176.859 98.29C176.429 98.0287 176.093 97.6693 175.851 97.212C175.617 96.7453 175.501 96.2087 175.501 95.602V90.926H177.083V95.462C177.083 95.8073 177.153 96.1107 177.293 96.372C177.433 96.6333 177.629 96.8387 177.881 96.988C178.133 97.128 178.422 97.198 178.749 97.198C179.085 97.198 179.379 97.1233 179.631 96.974C179.883 96.8247 180.079 96.6147 180.219 96.344C180.368 96.0733 180.443 95.756 180.443 95.392V90.926H182.011V98.5H180.513V97.016L180.681 97.212C180.503 97.6787 180.209 98.038 179.799 98.29C179.388 98.542 178.907 98.668 178.357 98.668ZM183.438 98.5V90.926H184.95V92.452L184.81 92.228C184.978 91.7333 185.248 91.3787 185.622 91.164C185.995 90.94 186.443 90.828 186.966 90.828H187.428V92.27H186.77C186.247 92.27 185.822 92.4333 185.496 92.76C185.178 93.0773 185.02 93.5347 185.02 94.132V98.5H183.438ZM191.646 98.668C190.89 98.668 190.218 98.4953 189.63 98.15C189.051 97.7953 188.599 97.3193 188.272 96.722C187.945 96.1153 187.782 95.4387 187.782 94.692C187.782 93.9267 187.945 93.25 188.272 92.662C188.608 92.074 189.056 91.612 189.616 91.276C190.176 90.9307 190.811 90.758 191.52 90.758C192.089 90.758 192.598 90.856 193.046 91.052C193.494 91.248 193.872 91.5187 194.18 91.864C194.488 92.2 194.721 92.5873 194.88 93.026C195.048 93.4647 195.132 93.9313 195.132 94.426C195.132 94.5473 195.127 94.6733 195.118 94.804C195.109 94.9347 195.09 95.056 195.062 95.168H189.028V93.908H194.166L193.41 94.482C193.503 94.0247 193.471 93.6187 193.312 93.264C193.163 92.9 192.929 92.6153 192.612 92.41C192.304 92.1953 191.94 92.088 191.52 92.088C191.1 92.088 190.727 92.1953 190.4 92.41C190.073 92.6153 189.821 92.914 189.644 93.306C189.467 93.6887 189.397 94.1553 189.434 94.706C189.387 95.2193 189.457 95.6673 189.644 96.05C189.84 96.4327 190.111 96.7313 190.456 96.946C190.811 97.1607 191.212 97.268 191.66 97.268C192.117 97.268 192.505 97.1653 192.822 96.96C193.149 96.7547 193.405 96.4887 193.592 96.162L194.88 96.792C194.731 97.1467 194.497 97.4687 194.18 97.758C193.872 98.038 193.499 98.262 193.06 98.43C192.631 98.5887 192.159 98.668 191.646 98.668ZM200.383 98.5L197.513 88.07H199.263L201.587 97.1H201.153L203.561 88.07H205.283L207.691 97.1H207.243L209.581 88.07H211.317L208.461 98.5H206.599L204.177 89.61H204.667L202.231 98.5H200.383ZM213.68 98.668C213.167 98.668 212.714 98.5793 212.322 98.402C211.939 98.2153 211.641 97.9633 211.426 97.646C211.211 97.3193 211.104 96.9367 211.104 96.498C211.104 96.0873 211.193 95.7187 211.37 95.392C211.557 95.0653 211.841 94.79 212.224 94.566C212.607 94.342 213.087 94.1833 213.666 94.09L216.298 93.656V94.902L213.974 95.308C213.554 95.3827 213.246 95.518 213.05 95.714C212.854 95.9007 212.756 96.1433 212.756 96.442C212.756 96.7313 212.863 96.9693 213.078 97.156C213.302 97.3333 213.587 97.422 213.932 97.422C214.361 97.422 214.735 97.3287 215.052 97.142C215.379 96.9553 215.631 96.708 215.808 96.4C215.985 96.0827 216.074 95.7327 216.074 95.35V93.404C216.074 93.0307 215.934 92.7273 215.654 92.494C215.383 92.2513 215.019 92.13 214.562 92.13C214.142 92.13 213.773 92.242 213.456 92.466C213.148 92.6807 212.919 92.9607 212.77 93.306L211.454 92.648C211.594 92.2747 211.823 91.948 212.14 91.668C212.457 91.3787 212.826 91.1547 213.246 90.996C213.675 90.8373 214.128 90.758 214.604 90.758C215.201 90.758 215.729 90.87 216.186 91.094C216.653 91.318 217.012 91.6307 217.264 92.032C217.525 92.424 217.656 92.8813 217.656 93.404V98.5H216.144V97.128L216.466 97.17C216.289 97.478 216.06 97.744 215.78 97.968C215.509 98.192 215.197 98.3647 214.842 98.486C214.497 98.6073 214.109 98.668 213.68 98.668ZM219.086 98.5V87.902H220.668V98.5H219.086ZM222.098 98.5V87.902H223.68V98.5H222.098ZM228.665 98.668C227.909 98.668 227.237 98.4953 226.649 98.15C226.07 97.7953 225.618 97.3193 225.291 96.722C224.964 96.1153 224.801 95.4387 224.801 94.692C224.801 93.9267 224.964 93.25 225.291 92.662C225.627 92.074 226.075 91.612 226.635 91.276C227.195 90.9307 227.83 90.758 228.539 90.758C229.108 90.758 229.617 90.856 230.065 91.052C230.513 91.248 230.891 91.5187 231.199 91.864C231.507 92.2 231.74 92.5873 231.899 93.026C232.067 93.4647 232.151 93.9313 232.151 94.426C232.151 94.5473 232.146 94.6733 232.137 94.804C232.128 94.9347 232.109 95.056 232.081 95.168H226.047V93.908H231.185L230.429 94.482C230.522 94.0247 230.49 93.6187 230.331 93.264C230.182 92.9 229.948 92.6153 229.631 92.41C229.323 92.1953 228.959 92.088 228.539 92.088C228.119 92.088 227.746 92.1953 227.419 92.41C227.092 92.6153 226.84 92.914 226.663 93.306C226.486 93.6887 226.416 94.1553 226.453 94.706C226.406 95.2193 226.476 95.6673 226.663 96.05C226.859 96.4327 227.13 96.7313 227.475 96.946C227.83 97.1607 228.231 97.268 228.679 97.268C229.136 97.268 229.524 97.1653 229.841 96.96C230.168 96.7547 230.424 96.4887 230.611 96.162L231.899 96.792C231.75 97.1467 231.516 97.4687 231.199 97.758C230.891 98.038 230.518 98.262 230.079 98.43C229.65 98.5887 229.178 98.668 228.665 98.668ZM236.551 98.584C235.758 98.584 235.142 98.36 234.703 97.912C234.264 97.464 234.045 96.834 234.045 96.022V92.354H232.715V90.926H232.925C233.28 90.926 233.555 90.8233 233.751 90.618C233.947 90.4127 234.045 90.1327 234.045 89.778V89.19H235.627V90.926H237.349V92.354H235.627V95.952C235.627 96.2133 235.669 96.4373 235.753 96.624C235.837 96.8013 235.972 96.9413 236.159 97.044C236.346 97.1373 236.588 97.184 236.887 97.184C236.962 97.184 237.046 97.1793 237.139 97.17C237.232 97.1607 237.321 97.1513 237.405 97.142V98.5C237.274 98.5187 237.13 98.5373 236.971 98.556C236.812 98.5747 236.672 98.584 236.551 98.584Z" fill="black"/>
</g>
<circle cx="332.062" cy="39.5" r="32" fill="white"/>
<circle cx="332.062" cy="39.5" r="31.5" stroke="black" stroke-opacity="0.1"/>
<g opacity="0.4">
<path fill-rule="evenodd" clip-rule="evenodd" d="M330.856 41.1439C329.686 39.9739 328.804 38.6639 328.218 37.3349C328.094 37.0539 328.167 36.7249 328.384 36.5079L329.203 35.6899C329.874 35.0189 329.874 34.0699 329.288 33.4839L328.114 32.3099C327.333 31.5289 326.067 31.5289 325.286 32.3099L324.634 32.9619C323.893 33.7029 323.584 34.7719 323.784 35.8319C324.278 38.4449 325.796 41.3059 328.245 43.7549C330.694 46.2039 333.555 47.7219 336.168 48.2159C337.228 48.4159 338.297 48.1069 339.038 47.3659L339.689 46.7149C340.47 45.9339 340.47 44.6679 339.689 43.8869L338.516 42.7139C337.93 42.1279 336.98 42.1279 336.395 42.7139L335.492 43.6179C335.275 43.8349 334.946 43.9079 334.665 43.7839C333.336 43.1969 332.026 42.3139 330.856 41.1439Z" stroke="#323232" stroke-width="1.5" stroke-linecap="round" stroke-linejoin="round"/>
</g>
<g opacity="0.4">
<path d="M292.657 98.668C291.92 98.668 291.234 98.5327 290.599 98.262C289.974 97.9913 289.428 97.618 288.961 97.142C288.504 96.6567 288.144 96.0873 287.883 95.434C287.622 94.7807 287.491 94.062 287.491 93.278C287.491 92.5033 287.617 91.7893 287.869 91.136C288.13 90.4733 288.494 89.904 288.961 89.428C289.428 88.9427 289.974 88.5693 290.599 88.308C291.224 88.0373 291.91 87.902 292.657 87.902C293.394 87.902 294.052 88.028 294.631 88.28C295.219 88.532 295.714 88.8633 296.115 89.274C296.516 89.6753 296.806 90.114 296.983 90.59L295.499 91.29C295.275 90.73 294.916 90.2773 294.421 89.932C293.936 89.5773 293.348 89.4 292.657 89.4C291.966 89.4 291.355 89.5633 290.823 89.89C290.291 90.2167 289.876 90.6693 289.577 91.248C289.288 91.8267 289.143 92.5033 289.143 93.278C289.143 94.0527 289.288 94.734 289.577 95.322C289.876 95.9007 290.291 96.3533 290.823 96.68C291.355 96.9973 291.966 97.156 292.657 97.156C293.348 97.156 293.936 96.9833 294.421 96.638C294.916 96.2927 295.275 95.84 295.499 95.28L296.983 95.98C296.806 96.4467 296.516 96.8853 296.115 97.296C295.714 97.7067 295.219 98.038 294.631 98.29C294.052 98.542 293.394 98.668 292.657 98.668ZM301.625 98.668C300.897 98.668 300.23 98.4953 299.623 98.15C299.026 97.8047 298.55 97.3333 298.195 96.736C297.841 96.1387 297.663 95.462 297.663 94.706C297.663 93.9407 297.841 93.264 298.195 92.676C298.55 92.0787 299.026 91.612 299.623 91.276C300.221 90.9307 300.888 90.758 301.625 90.758C302.372 90.758 303.039 90.9307 303.627 91.276C304.225 91.612 304.696 92.0787 305.041 92.676C305.396 93.264 305.573 93.9407 305.573 94.706C305.573 95.4713 305.396 96.1527 305.041 96.75C304.687 97.3473 304.211 97.8187 303.613 98.164C303.016 98.5 302.353 98.668 301.625 98.668ZM301.625 97.198C302.073 97.198 302.47 97.0907 302.815 96.876C303.161 96.6613 303.431 96.3673 303.627 95.994C303.833 95.6113 303.935 95.182 303.935 94.706C303.935 94.23 303.833 93.8053 303.627 93.432C303.431 93.0587 303.161 92.7647 302.815 92.55C302.47 92.3353 302.073 92.228 301.625 92.228C301.187 92.228 300.79 92.3353 300.435 92.55C300.09 92.7647 299.815 93.0587 299.609 93.432C299.413 93.8053 299.315 94.23 299.315 94.706C299.315 95.182 299.413 95.6113 299.609 95.994C299.815 96.3673 300.09 96.6613 300.435 96.876C300.79 97.0907 301.187 97.198 301.625 97.198ZM306.698 98.5V90.926H308.21V92.41L308.028 92.214C308.214 91.738 308.513 91.3787 308.924 91.136C309.334 90.884 309.81 90.758 310.352 90.758C310.912 90.758 311.406 90.8793 311.836 91.122C312.265 91.3647 312.601 91.7007 312.844 92.13C313.086 92.5593 313.208 93.054 313.208 93.614V98.5H311.64V94.034C311.64 93.6513 311.57 93.3293 311.43 93.068C311.29 92.7973 311.089 92.592 310.828 92.452C310.576 92.3027 310.286 92.228 309.96 92.228C309.633 92.228 309.339 92.3027 309.078 92.452C308.826 92.592 308.63 92.7973 308.49 93.068C308.35 93.3387 308.28 93.6607 308.28 94.034V98.5H306.698ZM315.335 98.5V92.354H313.935V90.926H315.335V90.534C315.335 89.9647 315.451 89.4887 315.685 89.106C315.918 88.714 316.24 88.4153 316.651 88.21C317.071 88.0047 317.551 87.902 318.093 87.902C318.195 87.902 318.312 87.9113 318.443 87.93C318.573 87.9393 318.681 87.9533 318.765 87.972V89.344C318.69 89.3253 318.606 89.316 318.513 89.316C318.419 89.3067 318.345 89.302 318.289 89.302C317.869 89.302 317.533 89.4 317.281 89.596C317.029 89.7827 316.903 90.0953 316.903 90.534V90.926H320.529V92.354H316.903V98.5H315.335ZM319.787 98.5V90.926H321.355V98.5H319.787ZM322.606 98.5V90.926H324.118V92.452L323.978 92.228C324.146 91.7333 324.416 91.3787 324.79 91.164C325.163 90.94 325.611 90.828 326.134 90.828H326.596V92.27H325.938C325.415 92.27 324.99 92.4333 324.664 92.76C324.346 93.0773 324.188 93.5347 324.188 94.132V98.5H322.606ZM327.258 98.5V90.926H328.77V92.564L328.574 92.312C328.733 91.7987 329.022 91.4113 329.442 91.15C329.862 90.8887 330.343 90.758 330.884 90.758C331.491 90.758 332.027 90.9213 332.494 91.248C332.97 91.5653 333.287 91.99 333.446 92.522L332.998 92.564C333.222 91.9573 333.563 91.5047 334.02 91.206C334.487 90.9073 335.019 90.758 335.616 90.758C336.139 90.758 336.61 90.8793 337.03 91.122C337.459 91.3647 337.8 91.7007 338.052 92.13C338.304 92.5593 338.43 93.0493 338.43 93.6V98.5H336.848V94.034C336.848 93.6513 336.778 93.3293 336.638 93.068C336.507 92.7973 336.321 92.592 336.078 92.452C335.845 92.3027 335.569 92.228 335.252 92.228C334.935 92.228 334.655 92.3027 334.412 92.452C334.169 92.592 333.978 92.7973 333.838 93.068C333.698 93.3387 333.628 93.6607 333.628 94.034V98.5H332.06V94.034C332.06 93.6513 331.99 93.3293 331.85 93.068C331.719 92.7973 331.533 92.592 331.29 92.452C331.057 92.3027 330.777 92.228 330.45 92.228C330.133 92.228 329.853 92.3027 329.61 92.452C329.367 92.592 329.176 92.7973 329.036 93.068C328.905 93.3387 328.84 93.6607 328.84 94.034V98.5H327.258ZM346.742 98.668C346.005 98.668 345.319 98.5327 344.684 98.262C344.059 97.9913 343.513 97.618 343.046 97.142C342.589 96.6567 342.23 96.0873 341.968 95.434C341.707 94.7807 341.576 94.062 341.576 93.278C341.576 92.5033 341.702 91.7893 341.954 91.136C342.216 90.4733 342.58 89.904 343.046 89.428C343.513 88.9427 344.059 88.5693 344.684 88.308C345.31 88.0373 345.996 87.902 346.742 87.902C347.48 87.902 348.138 88.028 348.716 88.28C349.304 88.532 349.799 88.8633 350.2 89.274C350.602 89.6753 350.891 90.114 351.068 90.59L349.584 91.29C349.36 90.73 349.001 90.2773 348.506 89.932C348.021 89.5773 347.433 89.4 346.742 89.4C346.052 89.4 345.44 89.5633 344.908 89.89C344.376 90.2167 343.961 90.6693 343.662 91.248C343.373 91.8267 343.228 92.5033 343.228 93.278C343.228 94.0527 343.373 94.734 343.662 95.322C343.961 95.9007 344.376 96.3533 344.908 96.68C345.44 96.9973 346.052 97.156 346.742 97.156C347.433 97.156 348.021 96.9833 348.506 96.638C349.001 96.2927 349.36 95.84 349.584 95.28L351.068 95.98C350.891 96.4467 350.602 96.8853 350.2 97.296C349.799 97.7067 349.304 98.038 348.716 98.29C348.138 98.542 347.48 98.668 346.742 98.668ZM355.711 98.668C354.983 98.668 354.315 98.4953 353.709 98.15C353.111 97.8047 352.635 97.3333 352.281 96.736C351.926 96.1387 351.749 95.462 351.749 94.706C351.749 93.9407 351.926 93.264 352.281 92.676C352.635 92.0787 353.111 91.612 353.709 91.276C354.306 90.9307 354.973 90.758 355.711 90.758C356.457 90.758 357.125 90.9307 357.713 91.276C358.31 91.612 358.781 92.0787 359.127 92.676C359.481 93.264 359.659 93.9407 359.659 94.706C359.659 95.4713 359.481 96.1527 359.127 96.75C358.772 97.3473 358.296 97.8187 357.699 98.164C357.101 98.5 356.439 98.668 355.711 98.668ZM355.711 97.198C356.159 97.198 356.555 97.0907 356.901 96.876C357.246 96.6613 357.517 96.3673 357.713 95.994C357.918 95.6113 358.021 95.182 358.021 94.706C358.021 94.23 357.918 93.8053 357.713 93.432C357.517 93.0587 357.246 92.7647 356.901 92.55C356.555 92.3353 356.159 92.228 355.711 92.228C355.272 92.228 354.875 92.3353 354.521 92.55C354.175 92.7647 353.9 93.0587 353.695 93.432C353.499 93.8053 353.401 94.23 353.401 94.706C353.401 95.182 353.499 95.6113 353.695 95.994C353.9 96.3673 354.175 96.6613 354.521 96.876C354.875 97.0907 355.272 97.198 355.711 97.198ZM364.283 98.668C363.555 98.668 362.902 98.4953 362.323 98.15C361.754 97.7953 361.301 97.3193 360.965 96.722C360.638 96.1247 360.475 95.4527 360.475 94.706C360.475 93.9593 360.643 93.2873 360.979 92.69C361.315 92.0927 361.768 91.6213 362.337 91.276C362.906 90.9307 363.55 90.758 364.269 90.758C364.876 90.758 365.412 90.8793 365.879 91.122C366.346 91.3647 366.714 91.7007 366.985 92.13L366.747 92.494V87.902H368.315V98.5H366.817V96.96L366.999 97.254C366.738 97.7113 366.364 98.0613 365.879 98.304C365.394 98.5467 364.862 98.668 364.283 98.668ZM364.437 97.198C364.876 97.198 365.268 97.0907 365.613 96.876C365.968 96.6613 366.243 96.3673 366.439 95.994C366.644 95.6113 366.747 95.182 366.747 94.706C366.747 94.23 366.644 93.8053 366.439 93.432C366.243 93.0587 365.968 92.7647 365.613 92.55C365.268 92.3353 364.876 92.228 364.437 92.228C363.998 92.228 363.602 92.3353 363.247 92.55C362.892 92.7647 362.617 93.0587 362.421 93.432C362.225 93.8053 362.127 94.23 362.127 94.706C362.127 95.182 362.225 95.6113 362.421 95.994C362.617 96.3673 362.888 96.6613 363.233 96.876C363.588 97.0907 363.989 97.198 364.437 97.198ZM373.298 98.668C372.542 98.668 371.87 98.4953 371.282 98.15C370.703 97.7953 370.251 97.3193 369.924 96.722C369.597 96.1153 369.434 95.4387 369.434 94.692C369.434 93.9267 369.597 93.25 369.924 92.662C370.26 92.074 370.708 91.612 371.268 91.276C371.828 90.9307 372.463 90.758 373.172 90.758C373.741 90.758 374.25 90.856 374.698 91.052C375.146 91.248 375.524 91.5187 375.832 91.864C376.14 92.2 376.373 92.5873 376.532 93.026C376.7 93.4647 376.784 93.9313 376.784 94.426C376.784 94.5473 376.779 94.6733 376.77 94.804C376.761 94.9347 376.742 95.056 376.714 95.168H370.68V93.908H375.818L375.062 94.482C375.155 94.0247 375.123 93.6187 374.964 93.264C374.815 92.9 374.581 92.6153 374.264 92.41C373.956 92.1953 373.592 92.088 373.172 92.088C372.752 92.088 372.379 92.1953 372.052 92.41C371.725 92.6153 371.473 92.914 371.296 93.306C371.119 93.6887 371.049 94.1553 371.086 94.706C371.039 95.2193 371.109 95.6673 371.296 96.05C371.492 96.4327 371.763 96.7313 372.108 96.946C372.463 97.1607 372.864 97.268 373.312 97.268C373.769 97.268 374.157 97.1653 374.474 96.96C374.801 96.7547 375.057 96.4887 375.244 96.162L376.532 96.792C376.383 97.1467 376.149 97.4687 375.832 97.758C375.524 98.038 375.151 98.262 374.712 98.43C374.283 98.5887 373.811 98.668 373.298 98.668Z" fill="black"/>
</g>
<line x1="88" y1="40.5" x2="162" y2="40.5" stroke="black"/>
<line opacity="0.1" x1="226" y1="40.5" x2="300" y2="40.5" stroke="black"/>
<defs>
<filter id="filter0_i_16_1951" x="23.8125" y="7.5" width="64" height="64" filterUnits="userSpaceOnUse" color-interpolation-filters="sRGB">
<feFlood flood-opacity="0" result="BackgroundImageFix"/>
<feBlend mode="normal" in="SourceGraphic" in2="BackgroundImageFix" result="shape"/>
<feColorMatrix in="SourceAlpha" type="matrix" values="0 0 0 0 0 0 0 0 0 0 0 0 0 0 0 0 0 0 127 0" result="hardAlpha"/>
<feOffset dy="4"/>
<feComposite in2="hardAlpha" operator="arithmetic" k2="-1" k3="1"/>
<feColorMatrix type="matrix" values="0 0 0 0 1 0 0 0 0 1 0 0 0 0 1 0 0 0 1 0"/>
<feBlend mode="normal" in2="shape" result="effect1_innerShadow_16_1951"/>
</filter>
</defs>
</svg>
