<svg width="144" height="40" viewBox="0 0 144 40" fill="none" xmlns="http://www.w3.org/2000/svg">
<path d="M19.559 0C8.75572 0 0 8.7578 0 19.559C0 30.3623 8.75572 39.1181 19.559 39.1181C30.3603 39.1181 39.1181 30.3623 39.1181 19.559C39.1181 8.7578 30.3603 0 19.559 0ZM25.5443 25.6809H13.5738C11.9883 25.6809 10.9973 23.9651 11.789 22.5923L17.7764 12.225C18.5681 10.8544 20.5489 10.8544 21.3406 12.225L27.3259 22.5923C28.1186 23.9651 27.1288 25.6809 25.5443 25.6809Z" fill="black"/>
<path d="M45.8237 19.582C45.8237 13.3172 49.6352 8.97998 55.8562 8.97998C61.2886 8.97998 64.7934 11.9591 65.2753 16.4715H61.4639C60.9381 13.7991 59.0105 12.3971 55.8124 12.3971C51.9571 12.3971 49.5914 15.0696 49.5914 19.582C49.5914 24.0506 51.9571 26.7668 55.8124 26.7668C59.0105 26.7668 60.9381 25.3649 61.4639 22.8239H65.2753C64.7934 27.2487 61.2886 30.184 55.8562 30.184C49.6352 30.184 45.8237 25.8468 45.8237 19.582Z" fill="black"/>
<path d="M69.1904 29.6578V9.46145H73.0019V14.0615C73.7905 10.6443 76.3753 9.15479 78.9162 9.15479C79.6172 9.15479 80.2743 9.19859 80.7562 9.33002V12.8348C80.0991 12.7034 79.5734 12.7034 78.8724 12.7034C74.8857 12.7034 73.0019 16.3396 73.0019 20.852V29.6578H69.1904Z" fill="black"/>
<path d="M101.563 20.6751H85.9229C86.0105 24.5742 88.4201 26.8523 92.2754 26.8523C94.9478 26.8523 96.7878 25.8009 97.6202 23.8733H101.432C100.731 27.5971 97.0068 30.1819 92.2754 30.1819C86.0544 30.1819 82.1553 26.0637 82.1553 19.5361C82.1553 13.1398 86.0982 8.93408 92.1001 8.93408C97.7954 8.93408 101.651 12.877 101.651 18.4408C101.651 19.1856 101.651 19.7551 101.563 20.6751ZM97.9268 17.7399C97.9268 14.1913 95.7363 12.0008 92.0563 12.0008C88.3763 12.0008 86.0982 14.3227 85.9229 17.7399H97.9268Z" fill="black"/>
<path d="M104.198 23.6104H107.966C107.966 25.5818 109.806 27.1152 112.785 27.1152C115.019 27.1152 116.509 26.0199 116.509 24.2237C116.509 22.8656 115.895 21.9456 113.486 21.3323L109.368 20.2808C106.389 19.4485 104.812 17.5208 104.812 14.717C104.812 11.2998 107.966 8.93408 112.347 8.93408C117.166 8.93408 120.101 11.256 120.101 15.0237H116.377C116.377 13.096 114.844 11.8693 112.215 11.8693C110.113 11.8693 108.579 12.877 108.579 14.5417C108.579 15.8122 109.324 16.7322 111.514 17.3456L115.676 18.4846C118.655 19.317 120.364 21.2885 120.364 24.0923C120.364 27.9476 117.341 30.1819 112.566 30.1819C107.615 30.1819 104.198 27.3342 104.198 23.6104Z" fill="black"/>
<path d="M122.972 19.5799C122.972 13.6656 126.915 8.93408 133.486 8.93408C140.014 8.93408 144 13.6656 144 19.5799C144 25.4504 140.014 30.1819 133.486 30.1819C126.915 30.1819 122.972 25.4504 122.972 19.5799ZM140.189 19.5799C140.189 15.5056 137.736 12.3513 133.486 12.3513C129.236 12.3513 126.739 15.5056 126.739 19.5799C126.739 23.6104 129.236 26.7647 133.486 26.7647C137.736 26.7647 140.189 23.6104 140.189 19.5799Z" fill="black"/>
</svg>
