<svg width="520" height="104" viewBox="0 0 520 104" fill="none" xmlns="http://www.w3.org/2000/svg">
<g filter="url(#filter0_i_1_17697)">
<circle cx="52.8125" cy="39.5" r="32" fill="black"/>
</g>
<circle cx="52.8125" cy="39.5" r="31.25" stroke="black" stroke-width="1.5"/>
<path d="M56.8125 39.4999C56.8125 40.2911 56.5779 41.0644 56.1383 41.7222C55.6988 42.38 55.0741 42.8927 54.3432 43.1955C53.6123 43.4982 52.808 43.5774 52.0321 43.4231C51.2562 43.2687 50.5434 42.8878 49.984 42.3284C49.4246 41.769 49.0437 41.0562 48.8893 40.2803C48.735 39.5044 48.8142 38.7001 49.1169 37.9692C49.4197 37.2383 49.9324 36.6136 50.5902 36.1741C51.248 35.7345 52.0213 35.4999 52.8125 35.4999C53.8733 35.4999 54.8907 35.9214 55.6409 36.6715C56.391 37.4217 56.8125 38.4391 56.8125 39.4999ZM56.8125 39.4999V40.9999C56.8125 41.663 57.0759 42.2989 57.5447 42.7677C58.0135 43.2365 58.6494 43.4999 59.3125 43.4999C59.9755 43.4999 60.6114 43.2365 61.0802 42.7677C61.5491 42.2989 61.8125 41.663 61.8125 40.9999V39.4999C61.8195 37.4737 61.1461 35.5038 59.9002 33.9059C58.6544 32.308 56.9081 31.1745 54.9414 30.6872C52.9746 30.1999 50.9012 30.3869 49.0534 31.2183C47.2056 32.0497 45.6904 33.4773 44.7506 35.2723C43.8107 37.0674 43.5007 39.126 43.8702 41.1183C44.2397 43.1105 45.2672 44.9211 46.7882 46.2598C48.3092 47.5985 50.2356 48.3879 52.2586 48.5014C54.2816 48.615 56.2842 48.0461 57.9455 46.8859" stroke="white" stroke-width="1.5" stroke-linecap="round" stroke-linejoin="round"/>
<path d="M36.4427 98.5V88.07H43.3727V89.75H38.3467V92.424H43.0927V94.104H38.3467V96.82H43.3727V98.5H36.4427ZM44.1949 98.5V90.884H45.9169V92.648L45.7209 92.354C45.8609 91.8033 46.1409 91.3927 46.5609 91.122C46.9809 90.8513 47.4756 90.716 48.0449 90.716C48.6702 90.716 49.2209 90.8793 49.6969 91.206C50.1729 91.5327 50.4809 91.962 50.6209 92.494L50.1029 92.536C50.3362 91.9293 50.6862 91.4767 51.1529 91.178C51.6196 90.87 52.1562 90.716 52.7629 90.716C53.3042 90.716 53.7849 90.8373 54.2049 91.08C54.6342 91.3227 54.9702 91.6633 55.2129 92.102C55.4556 92.5313 55.5769 93.0307 55.5769 93.6V98.5H53.7429V94.034C53.7429 93.698 53.6822 93.4087 53.5609 93.166C53.4396 92.9233 53.2716 92.7367 53.0569 92.606C52.8422 92.466 52.5809 92.396 52.2729 92.396C51.9836 92.396 51.7269 92.466 51.5029 92.606C51.2789 92.7367 51.1062 92.9233 50.9849 93.166C50.8636 93.4087 50.8029 93.698 50.8029 94.034V98.5H48.9689V94.034C48.9689 93.698 48.9082 93.4087 48.7869 93.166C48.6656 92.9233 48.4929 92.7367 48.2689 92.606C48.0542 92.466 47.7976 92.396 47.4989 92.396C47.2096 92.396 46.9529 92.466 46.7289 92.606C46.5049 92.7367 46.3322 92.9233 46.2109 93.166C46.0896 93.4087 46.0289 93.698 46.0289 94.034V98.5H44.1949ZM59.0185 98.668C58.4865 98.668 58.0245 98.5793 57.6325 98.402C57.2405 98.2247 56.9372 97.9727 56.7225 97.646C56.5078 97.31 56.4005 96.9227 56.4005 96.484C56.4005 96.064 56.4938 95.6907 56.6805 95.364C56.8672 95.028 57.1565 94.748 57.5485 94.524C57.9405 94.3 58.4352 94.1413 59.0325 94.048L61.5245 93.642V95.042L59.3825 95.406C59.0185 95.4713 58.7478 95.588 58.5705 95.756C58.3932 95.924 58.3045 96.1433 58.3045 96.414C58.3045 96.6753 58.4025 96.8853 58.5985 97.044C58.8038 97.1933 59.0558 97.268 59.3545 97.268C59.7372 97.268 60.0732 97.1887 60.3625 97.03C60.6612 96.862 60.8898 96.6333 61.0485 96.344C61.2165 96.0547 61.3005 95.7373 61.3005 95.392V93.432C61.3005 93.1053 61.1698 92.8347 60.9085 92.62C60.6565 92.396 60.3205 92.284 59.9005 92.284C59.5085 92.284 59.1585 92.3913 58.8505 92.606C58.5518 92.8113 58.3325 93.0867 58.1925 93.432L56.6945 92.704C56.8438 92.3027 57.0772 91.9573 57.3945 91.668C57.7212 91.3693 58.1038 91.136 58.5425 90.968C58.9812 90.8 59.4572 90.716 59.9705 90.716C60.5958 90.716 61.1465 90.8327 61.6225 91.066C62.0985 91.29 62.4672 91.6073 62.7285 92.018C62.9992 92.4193 63.1345 92.8907 63.1345 93.432V98.5H61.3985V97.198L61.7905 97.17C61.5945 97.4967 61.3612 97.772 61.0905 97.996C60.8198 98.2107 60.5118 98.3787 60.1665 98.5C59.8212 98.612 59.4385 98.668 59.0185 98.668ZM64.4096 98.5V90.884H66.2436V98.5H64.4096ZM64.4096 90.03V88.07H66.2436V90.03H64.4096ZM67.5169 98.5V87.902H69.3509V98.5H67.5169Z" fill="black"/>
<g filter="url(#filter1_i_1_17697)">
<circle cx="190.938" cy="39.5" r="32" fill="black"/>
</g>
<circle cx="190.938" cy="39.5" r="31.25" stroke="black" stroke-width="1.5"/>
<path d="M186.438 36.5801V38.0801" stroke="white" stroke-width="1.5" stroke-linecap="round" stroke-linejoin="round"/>
<path d="M195.438 36.5801V38.0801" stroke="white" stroke-width="1.5" stroke-linecap="round" stroke-linejoin="round"/>
<path d="M189.938 41.1001H190.438C190.703 41.1001 190.957 40.9947 191.145 40.8072C191.332 40.6197 191.438 40.3653 191.438 40.1001V36.6001" stroke="white" stroke-width="1.5" stroke-linecap="round" stroke-linejoin="round"/>
<path d="M194.18 43.657C193.32 44.5165 192.154 44.9993 190.938 44.9993C189.722 44.9993 188.556 44.5165 187.697 43.657" stroke="white" stroke-width="1.5" stroke-linecap="round" stroke-linejoin="round"/>
<path d="M186.525 30.5H183.938C183.407 30.5 182.898 30.7107 182.523 31.0858C182.148 31.4609 181.938 31.9696 181.938 32.5V35.088" stroke="white" stroke-width="1.5" stroke-linecap="round" stroke-linejoin="round"/>
<path d="M195.35 48.5001H197.938C198.468 48.5001 198.977 48.2894 199.352 47.9143C199.727 47.5392 199.938 47.0305 199.938 46.5001V43.9121" stroke="white" stroke-width="1.5" stroke-linecap="round" stroke-linejoin="round"/>
<path d="M181.938 43.9121V46.5001C181.938 47.0305 182.148 47.5392 182.523 47.9143C182.898 48.2894 183.407 48.5001 183.938 48.5001H186.525" stroke="white" stroke-width="1.5" stroke-linecap="round" stroke-linejoin="round"/>
<path d="M199.938 35.088V32.5C199.938 31.9696 199.727 31.4609 199.352 31.0858C198.977 30.7107 198.468 30.5 197.938 30.5H195.35" stroke="white" stroke-width="1.5" stroke-linecap="round" stroke-linejoin="round"/>
<path d="M161.926 98.5V88.07H168.716V89.54H163.578V92.676H168.156V94.146H163.578V98.5H161.926ZM171.44 98.668C170.927 98.668 170.474 98.5793 170.082 98.402C169.7 98.2153 169.401 97.9633 169.186 97.646C168.972 97.3193 168.864 96.9367 168.864 96.498C168.864 96.0873 168.953 95.7187 169.13 95.392C169.317 95.0653 169.602 94.79 169.984 94.566C170.367 94.342 170.848 94.1833 171.426 94.09L174.058 93.656V94.902L171.734 95.308C171.314 95.3827 171.006 95.518 170.81 95.714C170.614 95.9007 170.516 96.1433 170.516 96.442C170.516 96.7313 170.624 96.9693 170.838 97.156C171.062 97.3333 171.347 97.422 171.692 97.422C172.122 97.422 172.495 97.3287 172.812 97.142C173.139 96.9553 173.391 96.708 173.568 96.4C173.746 96.0827 173.834 95.7327 173.834 95.35V93.404C173.834 93.0307 173.694 92.7273 173.414 92.494C173.144 92.2513 172.78 92.13 172.322 92.13C171.902 92.13 171.534 92.242 171.216 92.466C170.908 92.6807 170.68 92.9607 170.53 93.306L169.214 92.648C169.354 92.2747 169.583 91.948 169.9 91.668C170.218 91.3787 170.586 91.1547 171.006 90.996C171.436 90.8373 171.888 90.758 172.364 90.758C172.962 90.758 173.489 90.87 173.946 91.094C174.413 91.318 174.772 91.6307 175.024 92.032C175.286 92.424 175.416 92.8813 175.416 93.404V98.5H173.904V97.128L174.226 97.17C174.049 97.478 173.82 97.744 173.54 97.968C173.27 98.192 172.957 98.3647 172.602 98.486C172.257 98.6073 171.87 98.668 171.44 98.668ZM180.444 98.668C179.688 98.668 179.016 98.4953 178.428 98.15C177.849 97.7953 177.387 97.3193 177.042 96.722C176.706 96.1247 176.538 95.448 176.538 94.692C176.538 93.9453 176.706 93.2733 177.042 92.676C177.378 92.0787 177.84 91.612 178.428 91.276C179.016 90.9307 179.688 90.758 180.444 90.758C180.957 90.758 181.438 90.8513 181.886 91.038C182.334 91.2153 182.721 91.4627 183.048 91.78C183.384 92.0973 183.631 92.466 183.79 92.886L182.404 93.53C182.245 93.138 181.989 92.8253 181.634 92.592C181.289 92.3493 180.892 92.228 180.444 92.228C180.015 92.228 179.627 92.3353 179.282 92.55C178.946 92.7553 178.68 93.0493 178.484 93.432C178.288 93.8053 178.19 94.23 178.19 94.706C178.19 95.182 178.288 95.6113 178.484 95.994C178.68 96.3673 178.946 96.6613 179.282 96.876C179.627 97.0907 180.015 97.198 180.444 97.198C180.901 97.198 181.298 97.0813 181.634 96.848C181.979 96.6053 182.236 96.2833 182.404 95.882L183.79 96.54C183.641 96.9413 183.398 97.3053 183.062 97.632C182.735 97.9493 182.348 98.2013 181.9 98.388C181.452 98.5747 180.967 98.668 180.444 98.668ZM188.472 98.668C187.716 98.668 187.044 98.4953 186.456 98.15C185.878 97.7953 185.425 97.3193 185.098 96.722C184.772 96.1153 184.608 95.4387 184.608 94.692C184.608 93.9267 184.772 93.25 185.098 92.662C185.434 92.074 185.882 91.612 186.442 91.276C187.002 90.9307 187.637 90.758 188.346 90.758C188.916 90.758 189.424 90.856 189.872 91.052C190.32 91.248 190.698 91.5187 191.006 91.864C191.314 92.2 191.548 92.5873 191.706 93.026C191.874 93.4647 191.958 93.9313 191.958 94.426C191.958 94.5473 191.954 94.6733 191.944 94.804C191.935 94.9347 191.916 95.056 191.888 95.168H185.854V93.908H190.992L190.236 94.482C190.33 94.0247 190.297 93.6187 190.138 93.264C189.989 92.9 189.756 92.6153 189.438 92.41C189.13 92.1953 188.766 92.088 188.346 92.088C187.926 92.088 187.553 92.1953 187.226 92.41C186.9 92.6153 186.648 92.914 186.47 93.306C186.293 93.6887 186.223 94.1553 186.26 94.706C186.214 95.2193 186.284 95.6673 186.47 96.05C186.666 96.4327 186.937 96.7313 187.282 96.946C187.637 97.1607 188.038 97.268 188.486 97.268C188.944 97.268 189.331 97.1653 189.648 96.96C189.975 96.7547 190.232 96.4887 190.418 96.162L191.706 96.792C191.557 97.1467 191.324 97.4687 191.006 97.758C190.698 98.038 190.325 98.262 189.886 98.43C189.457 98.5887 188.986 98.668 188.472 98.668ZM193.236 98.5V88.07H194.776L198.696 93.502H197.926L201.776 88.07H203.316V98.5H201.678V90.016L202.294 90.184L198.36 95.56H198.192L194.342 90.184L194.888 90.016V98.5H193.236ZM207.166 98.668C206.653 98.668 206.2 98.5793 205.808 98.402C205.426 98.2153 205.127 97.9633 204.912 97.646C204.698 97.3193 204.59 96.9367 204.59 96.498C204.59 96.0873 204.679 95.7187 204.856 95.392C205.043 95.0653 205.328 94.79 205.71 94.566C206.093 94.342 206.574 94.1833 207.152 94.09L209.784 93.656V94.902L207.46 95.308C207.04 95.3827 206.732 95.518 206.536 95.714C206.34 95.9007 206.242 96.1433 206.242 96.442C206.242 96.7313 206.35 96.9693 206.564 97.156C206.788 97.3333 207.073 97.422 207.418 97.422C207.848 97.422 208.221 97.3287 208.538 97.142C208.865 96.9553 209.117 96.708 209.294 96.4C209.472 96.0827 209.56 95.7327 209.56 95.35V93.404C209.56 93.0307 209.42 92.7273 209.14 92.494C208.87 92.2513 208.506 92.13 208.048 92.13C207.628 92.13 207.26 92.242 206.942 92.466C206.634 92.6807 206.406 92.9607 206.256 93.306L204.94 92.648C205.08 92.2747 205.309 91.948 205.626 91.668C205.944 91.3787 206.312 91.1547 206.732 90.996C207.162 90.8373 207.614 90.758 208.09 90.758C208.688 90.758 209.215 90.87 209.672 91.094C210.139 91.318 210.498 91.6307 210.75 92.032C211.012 92.424 211.142 92.8813 211.142 93.404V98.5H209.63V97.128L209.952 97.17C209.775 97.478 209.546 97.744 209.266 97.968C208.996 98.192 208.683 98.3647 208.328 98.486C207.983 98.6073 207.596 98.668 207.166 98.668ZM212.572 101.3V90.926H214.084V92.494L213.902 92.13C214.182 91.7007 214.556 91.3647 215.022 91.122C215.489 90.8793 216.021 90.758 216.618 90.758C217.337 90.758 217.981 90.9307 218.55 91.276C219.129 91.6213 219.582 92.0927 219.908 92.69C220.244 93.2873 220.412 93.9593 220.412 94.706C220.412 95.4527 220.244 96.1247 219.908 96.722C219.582 97.3193 219.134 97.7953 218.564 98.15C217.995 98.4953 217.346 98.668 216.618 98.668C216.03 98.668 215.494 98.5467 215.008 98.304C214.532 98.0613 214.164 97.7113 213.902 97.254L214.154 96.96V101.3H212.572ZM216.464 97.198C216.912 97.198 217.309 97.0907 217.654 96.876C218 96.6613 218.27 96.3673 218.466 95.994C218.672 95.6113 218.774 95.182 218.774 94.706C218.774 94.23 218.672 93.8053 218.466 93.432C218.27 93.0587 218 92.7647 217.654 92.55C217.309 92.3353 216.912 92.228 216.464 92.228C216.026 92.228 215.629 92.3353 215.274 92.55C214.929 92.7647 214.654 93.0587 214.448 93.432C214.252 93.8053 214.154 94.23 214.154 94.706C214.154 95.182 214.252 95.6113 214.448 95.994C214.654 96.3673 214.929 96.6613 215.274 96.876C215.629 97.0907 216.026 97.198 216.464 97.198Z" fill="black"/>
<g filter="url(#filter2_i_1_17697)">
<circle cx="329.062" cy="39.5" r="32" fill="black"/>
</g>
<circle cx="329.062" cy="39.5" r="31.25" stroke="black" stroke-width="1.5"/>
<path d="M332.094 36.842C332.093 36.7679 332.071 36.6955 332.03 36.634C331.988 36.5724 331.93 36.5245 331.861 36.4963C331.793 36.468 331.717 36.4608 331.645 36.4753C331.572 36.4899 331.505 36.5257 331.453 36.5782C331.401 36.6307 331.365 36.6975 331.351 36.7702C331.336 36.8429 331.344 36.9183 331.372 36.9868C331.401 37.0552 331.449 37.1137 331.51 37.1549C331.572 37.196 331.644 37.218 331.719 37.218C331.768 37.2182 331.817 37.2085 331.862 37.1896C331.908 37.1708 331.949 37.1431 331.984 37.1081C332.019 37.0732 332.047 37.0317 332.066 36.986C332.084 36.9403 332.094 36.8914 332.094 36.842" stroke="white" stroke-width="1.5" stroke-linecap="round" stroke-linejoin="round"/>
<path d="M320.562 44.6951L326.285 38.9591C325.807 37.7096 325.774 36.3337 326.191 35.0625C326.608 33.7914 327.45 32.7024 328.575 31.9787C329.7 31.255 331.04 30.9406 332.369 31.0884C333.699 31.2362 334.937 31.8371 335.876 32.7901C336.815 33.7432 337.397 34.9904 337.524 36.3221C337.652 37.6537 337.317 38.9888 336.577 40.1028C335.836 41.2168 334.734 42.042 333.457 42.4395C332.18 42.8371 330.805 42.7829 329.562 42.2861L323.863 48.0001H320.562V44.6951Z" stroke="white" stroke-width="1.5" stroke-linecap="round" stroke-linejoin="round"/>
<path d="M286.383 98.5V88.07H290.177C290.877 88.07 291.493 88.2007 292.025 88.462C292.557 88.714 292.972 89.0873 293.271 89.582C293.579 90.0673 293.733 90.6507 293.733 91.332C293.733 92.0507 293.551 92.6667 293.187 93.18C292.832 93.6933 292.352 94.0667 291.745 94.3L294.153 98.5H292.277L289.715 93.95L290.793 94.58H288.035V98.5H286.383ZM288.035 93.11H290.205C290.588 93.11 290.919 93.0353 291.199 92.886C291.479 92.7367 291.694 92.5313 291.843 92.27C292.002 91.9993 292.081 91.682 292.081 91.318C292.081 90.954 292.002 90.6413 291.843 90.38C291.694 90.1093 291.479 89.904 291.199 89.764C290.919 89.6147 290.588 89.54 290.205 89.54H288.035V93.11ZM298.101 98.668C297.345 98.668 296.673 98.4953 296.085 98.15C295.507 97.7953 295.054 97.3193 294.727 96.722C294.401 96.1153 294.237 95.4387 294.237 94.692C294.237 93.9267 294.401 93.25 294.727 92.662C295.063 92.074 295.511 91.612 296.071 91.276C296.631 90.9307 297.266 90.758 297.975 90.758C298.545 90.758 299.053 90.856 299.501 91.052C299.949 91.248 300.327 91.5187 300.635 91.864C300.943 92.2 301.177 92.5873 301.335 93.026C301.503 93.4647 301.587 93.9313 301.587 94.426C301.587 94.5473 301.583 94.6733 301.573 94.804C301.564 94.9347 301.545 95.056 301.517 95.168H295.483V93.908H300.621L299.865 94.482C299.959 94.0247 299.926 93.6187 299.767 93.264C299.618 92.9 299.385 92.6153 299.067 92.41C298.759 92.1953 298.395 92.088 297.975 92.088C297.555 92.088 297.182 92.1953 296.855 92.41C296.529 92.6153 296.277 92.914 296.099 93.306C295.922 93.6887 295.852 94.1553 295.889 94.706C295.843 95.2193 295.913 95.6673 296.099 96.05C296.295 96.4327 296.566 96.7313 296.911 96.946C297.266 97.1607 297.667 97.268 298.115 97.268C298.573 97.268 298.96 97.1653 299.277 96.96C299.604 96.7547 299.861 96.4887 300.047 96.162L301.335 96.792C301.186 97.1467 300.953 97.4687 300.635 97.758C300.327 98.038 299.954 98.262 299.515 98.43C299.086 98.5887 298.615 98.668 298.101 98.668ZM306.309 98.668C305.553 98.668 304.881 98.4953 304.293 98.15C303.715 97.7953 303.253 97.3193 302.907 96.722C302.571 96.1247 302.403 95.448 302.403 94.692C302.403 93.9453 302.571 93.2733 302.907 92.676C303.243 92.0787 303.705 91.612 304.293 91.276C304.881 90.9307 305.553 90.758 306.309 90.758C306.823 90.758 307.303 90.8513 307.751 91.038C308.199 91.2153 308.587 91.4627 308.913 91.78C309.249 92.0973 309.497 92.466 309.655 92.886L308.269 93.53C308.111 93.138 307.854 92.8253 307.499 92.592C307.154 92.3493 306.757 92.228 306.309 92.228C305.88 92.228 305.493 92.3353 305.147 92.55C304.811 92.7553 304.545 93.0493 304.349 93.432C304.153 93.8053 304.055 94.23 304.055 94.706C304.055 95.182 304.153 95.6113 304.349 95.994C304.545 96.3673 304.811 96.6613 305.147 96.876C305.493 97.0907 305.88 97.198 306.309 97.198C306.767 97.198 307.163 97.0813 307.499 96.848C307.845 96.6053 308.101 96.2833 308.269 95.882L309.655 96.54C309.506 96.9413 309.263 97.3053 308.927 97.632C308.601 97.9493 308.213 98.2013 307.765 98.388C307.317 98.5747 306.832 98.668 306.309 98.668ZM314.436 98.668C313.708 98.668 313.04 98.4953 312.434 98.15C311.836 97.8047 311.36 97.3333 311.006 96.736C310.651 96.1387 310.474 95.462 310.474 94.706C310.474 93.9407 310.651 93.264 311.006 92.676C311.36 92.0787 311.836 91.612 312.434 91.276C313.031 90.9307 313.698 90.758 314.436 90.758C315.182 90.758 315.85 90.9307 316.438 91.276C317.035 91.612 317.506 92.0787 317.852 92.676C318.206 93.264 318.384 93.9407 318.384 94.706C318.384 95.4713 318.206 96.1527 317.852 96.75C317.497 97.3473 317.021 97.8187 316.424 98.164C315.826 98.5 315.164 98.668 314.436 98.668ZM314.436 97.198C314.884 97.198 315.28 97.0907 315.626 96.876C315.971 96.6613 316.242 96.3673 316.438 95.994C316.643 95.6113 316.746 95.182 316.746 94.706C316.746 94.23 316.643 93.8053 316.438 93.432C316.242 93.0587 315.971 92.7647 315.626 92.55C315.28 92.3353 314.884 92.228 314.436 92.228C313.997 92.228 313.6 92.3353 313.246 92.55C312.9 92.7647 312.625 93.0587 312.42 93.432C312.224 93.8053 312.126 94.23 312.126 94.706C312.126 95.182 312.224 95.6113 312.42 95.994C312.625 96.3673 312.9 96.6613 313.246 96.876C313.6 97.0907 313.997 97.198 314.436 97.198ZM321.569 98.5L318.601 90.926H320.323L322.605 97.1H321.975L324.257 90.926H325.993L323.011 98.5H321.569ZM330.068 98.668C329.312 98.668 328.64 98.4953 328.052 98.15C327.473 97.7953 327.021 97.3193 326.694 96.722C326.367 96.1153 326.204 95.4387 326.204 94.692C326.204 93.9267 326.367 93.25 326.694 92.662C327.03 92.074 327.478 91.612 328.038 91.276C328.598 90.9307 329.233 90.758 329.942 90.758C330.511 90.758 331.02 90.856 331.468 91.052C331.916 91.248 332.294 91.5187 332.602 91.864C332.91 92.2 333.143 92.5873 333.302 93.026C333.47 93.4647 333.554 93.9313 333.554 94.426C333.554 94.5473 333.549 94.6733 333.54 94.804C333.531 94.9347 333.512 95.056 333.484 95.168H327.45V93.908H332.588L331.832 94.482C331.925 94.0247 331.893 93.6187 331.734 93.264C331.585 92.9 331.351 92.6153 331.034 92.41C330.726 92.1953 330.362 92.088 329.942 92.088C329.522 92.088 329.149 92.1953 328.822 92.41C328.495 92.6153 328.243 92.914 328.066 93.306C327.889 93.6887 327.819 94.1553 327.856 94.706C327.809 95.2193 327.879 95.6673 328.066 96.05C328.262 96.4327 328.533 96.7313 328.878 96.946C329.233 97.1607 329.634 97.268 330.082 97.268C330.539 97.268 330.927 97.1653 331.244 96.96C331.571 96.7547 331.827 96.4887 332.014 96.162L333.302 96.792C333.153 97.1467 332.919 97.4687 332.602 97.758C332.294 98.038 331.921 98.262 331.482 98.43C331.053 98.5887 330.581 98.668 330.068 98.668ZM334.678 98.5V90.926H336.19V92.452L336.05 92.228C336.218 91.7333 336.489 91.3787 336.862 91.164C337.235 90.94 337.683 90.828 338.206 90.828H338.668V92.27H338.01C337.487 92.27 337.063 92.4333 336.736 92.76C336.419 93.0773 336.26 93.5347 336.26 94.132V98.5H334.678ZM340.002 101.594C339.815 101.594 339.629 101.575 339.442 101.538C339.265 101.51 339.101 101.463 338.952 101.398V100.04C339.064 100.068 339.199 100.091 339.358 100.11C339.517 100.138 339.671 100.152 339.82 100.152C340.259 100.152 340.581 100.054 340.786 99.858C341.001 99.6713 341.192 99.3773 341.36 98.976L341.864 97.828L341.836 99.158L338.56 90.926H340.254L342.676 97.24H342.102L344.51 90.926H346.218L342.872 99.326C342.695 99.774 342.471 100.166 342.2 100.502C341.939 100.847 341.626 101.113 341.262 101.3C340.907 101.496 340.487 101.594 340.002 101.594ZM349.062 98.5V88.07H350.714V93.726L350.28 93.558L354.998 88.07H357.056L352.884 92.956L352.968 91.78L357.224 98.5H355.278L352.226 93.726L350.714 95.49V98.5H349.062ZM361.163 98.668C360.407 98.668 359.735 98.4953 359.147 98.15C358.569 97.7953 358.116 97.3193 357.789 96.722C357.463 96.1153 357.299 95.4387 357.299 94.692C357.299 93.9267 357.463 93.25 357.789 92.662C358.125 92.074 358.573 91.612 359.133 91.276C359.693 90.9307 360.328 90.758 361.037 90.758C361.607 90.758 362.115 90.856 362.563 91.052C363.011 91.248 363.389 91.5187 363.697 91.864C364.005 92.2 364.239 92.5873 364.397 93.026C364.565 93.4647 364.649 93.9313 364.649 94.426C364.649 94.5473 364.645 94.6733 364.635 94.804C364.626 94.9347 364.607 95.056 364.579 95.168H358.545V93.908H363.683L362.927 94.482C363.021 94.0247 362.988 93.6187 362.829 93.264C362.68 92.9 362.447 92.6153 362.129 92.41C361.821 92.1953 361.457 92.088 361.037 92.088C360.617 92.088 360.244 92.1953 359.917 92.41C359.591 92.6153 359.339 92.914 359.161 93.306C358.984 93.6887 358.914 94.1553 358.951 94.706C358.905 95.2193 358.975 95.6673 359.161 96.05C359.357 96.4327 359.628 96.7313 359.973 96.946C360.328 97.1607 360.729 97.268 361.177 97.268C361.635 97.268 362.022 97.1653 362.339 96.96C362.666 96.7547 362.923 96.4887 363.109 96.162L364.397 96.792C364.248 97.1467 364.015 97.4687 363.697 97.758C363.389 98.038 363.016 98.262 362.577 98.43C362.148 98.5887 361.677 98.668 361.163 98.668ZM366.445 101.594C366.259 101.594 366.072 101.575 365.885 101.538C365.708 101.51 365.545 101.463 365.395 101.398V100.04C365.507 100.068 365.643 100.091 365.801 100.11C365.96 100.138 366.114 100.152 366.263 100.152C366.702 100.152 367.024 100.054 367.229 99.858C367.444 99.6713 367.635 99.3773 367.803 98.976L368.307 97.828L368.279 99.158L365.003 90.926H366.697L369.119 97.24H368.545L370.953 90.926H372.661L369.315 99.326C369.138 99.774 368.914 100.166 368.643 100.502C368.382 100.847 368.069 101.113 367.705 101.3C367.351 101.496 366.931 101.594 366.445 101.594Z" fill="black"/>
<g filter="url(#filter3_i_1_17697)">
<circle cx="467.188" cy="39.5" r="32" fill="#D0F500"/>
</g>
<circle cx="467.188" cy="39.5" r="31.25" stroke="black" stroke-width="1.5"/>
<path d="M471.782 40.625C471.708 40.6252 471.636 40.6474 471.574 40.6887C471.513 40.73 471.465 40.7886 471.437 40.8572C471.408 40.9257 471.401 41.0011 471.416 41.0738C471.43 41.1464 471.466 41.2132 471.519 41.2655C471.571 41.3179 471.638 41.3535 471.711 41.3679C471.783 41.3823 471.859 41.3748 471.927 41.3464C471.996 41.3179 472.054 41.2699 472.095 41.2082C472.136 41.1466 472.158 41.0741 472.158 41C472.158 40.9005 472.118 40.8051 472.048 40.7348C471.977 40.6645 471.882 40.625 471.782 40.625Z" stroke="black" stroke-width="1.5" stroke-linecap="round" stroke-linejoin="round"/>
<path d="M458.188 32.5V46C458.188 46.5304 458.398 47.0391 458.773 47.4142C459.148 47.7893 459.657 48 460.188 48H474.188C474.718 48 475.227 47.7893 475.602 47.4142C475.977 47.0391 476.188 46.5304 476.188 46V36C476.188 35.4696 475.977 34.9609 475.602 34.5858C475.227 34.2107 474.718 34 474.188 34H459.688C459.29 34 458.908 33.842 458.627 33.5607C458.346 33.2794 458.188 32.8978 458.188 32.5ZM458.188 32.5C458.188 32.1022 458.346 31.7206 458.627 31.4393C458.908 31.158 459.29 31 459.688 31H472.188" stroke="black" stroke-width="1.5" stroke-linecap="round" stroke-linejoin="round"/>
<path d="M443.414 98.5V88.07H447.81C448.463 88.07 449.028 88.1867 449.504 88.42C449.98 88.644 450.344 88.9707 450.596 89.4C450.848 89.82 450.974 90.3193 450.974 90.898C450.974 91.402 450.843 91.864 450.582 92.284C450.33 92.6947 449.933 93.0213 449.392 93.264V92.564C449.868 92.7507 450.255 92.9887 450.554 93.278C450.853 93.558 451.067 93.8753 451.198 94.23C451.338 94.5847 451.408 94.958 451.408 95.35C451.408 96.33 451.086 97.1 450.442 97.66C449.807 98.22 448.935 98.5 447.824 98.5H443.414ZM445.066 97.03H447.95C448.501 97.03 448.939 96.8807 449.266 96.582C449.593 96.274 449.756 95.868 449.756 95.364C449.756 94.8507 449.593 94.4447 449.266 94.146C448.939 93.838 448.501 93.684 447.95 93.684H445.066V97.03ZM445.066 92.228H447.852C448.3 92.228 448.659 92.102 448.93 91.85C449.201 91.5887 449.336 91.248 449.336 90.828C449.336 90.408 449.201 90.0813 448.93 89.848C448.659 89.6147 448.3 89.498 447.852 89.498H445.066V92.228ZM454.801 98.668C454.288 98.668 453.835 98.5793 453.443 98.402C453.061 98.2153 452.762 97.9633 452.547 97.646C452.333 97.3193 452.225 96.9367 452.225 96.498C452.225 96.0873 452.314 95.7187 452.491 95.392C452.678 95.0653 452.963 94.79 453.345 94.566C453.728 94.342 454.209 94.1833 454.787 94.09L457.419 93.656V94.902L455.095 95.308C454.675 95.3827 454.367 95.518 454.171 95.714C453.975 95.9007 453.877 96.1433 453.877 96.442C453.877 96.7313 453.985 96.9693 454.199 97.156C454.423 97.3333 454.708 97.422 455.053 97.422C455.483 97.422 455.856 97.3287 456.173 97.142C456.5 96.9553 456.752 96.708 456.929 96.4C457.107 96.0827 457.195 95.7327 457.195 95.35V93.404C457.195 93.0307 457.055 92.7273 456.775 92.494C456.505 92.2513 456.141 92.13 455.683 92.13C455.263 92.13 454.895 92.242 454.577 92.466C454.269 92.6807 454.041 92.9607 453.891 93.306L452.575 92.648C452.715 92.2747 452.944 91.948 453.261 91.668C453.579 91.3787 453.947 91.1547 454.367 90.996C454.797 90.8373 455.249 90.758 455.725 90.758C456.323 90.758 456.85 90.87 457.307 91.094C457.774 91.318 458.133 91.6307 458.385 92.032C458.647 92.424 458.777 92.8813 458.777 93.404V98.5H457.265V97.128L457.587 97.17C457.41 97.478 457.181 97.744 456.901 97.968C456.631 98.192 456.318 98.3647 455.963 98.486C455.618 98.6073 455.231 98.668 454.801 98.668ZM463.805 98.668C463.049 98.668 462.377 98.4953 461.789 98.15C461.211 97.7953 460.749 97.3193 460.403 96.722C460.067 96.1247 459.899 95.448 459.899 94.692C459.899 93.9453 460.067 93.2733 460.403 92.676C460.739 92.0787 461.201 91.612 461.789 91.276C462.377 90.9307 463.049 90.758 463.805 90.758C464.319 90.758 464.799 90.8513 465.247 91.038C465.695 91.2153 466.083 91.4627 466.409 91.78C466.745 92.0973 466.993 92.466 467.151 92.886L465.765 93.53C465.607 93.138 465.35 92.8253 464.995 92.592C464.65 92.3493 464.253 92.228 463.805 92.228C463.376 92.228 462.989 92.3353 462.643 92.55C462.307 92.7553 462.041 93.0493 461.845 93.432C461.649 93.8053 461.551 94.23 461.551 94.706C461.551 95.182 461.649 95.6113 461.845 95.994C462.041 96.3673 462.307 96.6613 462.643 96.876C462.989 97.0907 463.376 97.198 463.805 97.198C464.263 97.198 464.659 97.0813 464.995 96.848C465.341 96.6053 465.597 96.2833 465.765 95.882L467.151 96.54C467.002 96.9413 466.759 97.3053 466.423 97.632C466.097 97.9493 465.709 98.2013 465.261 98.388C464.813 98.5747 464.328 98.668 463.805 98.668ZM468.277 98.5V87.902H469.859V95L469.243 94.846L473.037 90.926H475.011L472.155 93.964L475.137 98.5H473.317L470.657 94.482L471.595 94.356L469.355 96.736L469.859 95.686V98.5H468.277ZM478.503 98.668C477.934 98.668 477.434 98.542 477.005 98.29C476.576 98.0287 476.24 97.6693 475.997 97.212C475.764 96.7453 475.647 96.2087 475.647 95.602V90.926H477.229V95.462C477.229 95.8073 477.299 96.1107 477.439 96.372C477.579 96.6333 477.775 96.8387 478.027 96.988C478.279 97.128 478.568 97.198 478.895 97.198C479.231 97.198 479.525 97.1233 479.777 96.974C480.029 96.8247 480.225 96.6147 480.365 96.344C480.514 96.0733 480.589 95.756 480.589 95.392V90.926H482.157V98.5H480.659V97.016L480.827 97.212C480.65 97.6787 480.356 98.038 479.945 98.29C479.534 98.542 479.054 98.668 478.503 98.668ZM483.584 101.3V90.926H485.096V92.494L484.914 92.13C485.194 91.7007 485.567 91.3647 486.034 91.122C486.501 90.8793 487.033 90.758 487.63 90.758C488.349 90.758 488.993 90.9307 489.562 91.276C490.141 91.6213 490.593 92.0927 490.92 92.69C491.256 93.2873 491.424 93.9593 491.424 94.706C491.424 95.4527 491.256 96.1247 490.92 96.722C490.593 97.3193 490.145 97.7953 489.576 98.15C489.007 98.4953 488.358 98.668 487.63 98.668C487.042 98.668 486.505 98.5467 486.02 98.304C485.544 98.0613 485.175 97.7113 484.914 97.254L485.166 96.96V101.3H483.584ZM487.476 97.198C487.924 97.198 488.321 97.0907 488.666 96.876C489.011 96.6613 489.282 96.3673 489.478 95.994C489.683 95.6113 489.786 95.182 489.786 94.706C489.786 94.23 489.683 93.8053 489.478 93.432C489.282 93.0587 489.011 92.7647 488.666 92.55C488.321 92.3353 487.924 92.228 487.476 92.228C487.037 92.228 486.641 92.3353 486.286 92.55C485.941 92.7647 485.665 93.0587 485.46 93.432C485.264 93.8053 485.166 94.23 485.166 94.706C485.166 95.182 485.264 95.6113 485.46 95.994C485.665 96.3673 485.941 96.6613 486.286 96.876C486.641 97.0907 487.037 97.198 487.476 97.198Z" fill="black"/>
<line x1="85" y1="40.5" x2="159" y2="40.5" stroke="black"/>
<line x1="223" y1="40.5" x2="297" y2="40.5" stroke="black"/>
<line opacity="0.1" x1="361" y1="40.5" x2="435" y2="40.5" stroke="black"/>
<defs>
<filter id="filter0_i_1_17697" x="20.8125" y="7.5" width="64" height="64" filterUnits="userSpaceOnUse" color-interpolation-filters="sRGB">
<feFlood flood-opacity="0" result="BackgroundImageFix"/>
<feBlend mode="normal" in="SourceGraphic" in2="BackgroundImageFix" result="shape"/>
<feColorMatrix in="SourceAlpha" type="matrix" values="0 0 0 0 0 0 0 0 0 0 0 0 0 0 0 0 0 0 127 0" result="hardAlpha"/>
<feOffset dy="4"/>
<feComposite in2="hardAlpha" operator="arithmetic" k2="-1" k3="1"/>
<feColorMatrix type="matrix" values="0 0 0 0 1 0 0 0 0 1 0 0 0 0 1 0 0 0 1 0"/>
<feBlend mode="normal" in2="shape" result="effect1_innerShadow_1_17697"/>
</filter>
<filter id="filter1_i_1_17697" x="158.938" y="7.5" width="64" height="64" filterUnits="userSpaceOnUse" color-interpolation-filters="sRGB">
<feFlood flood-opacity="0" result="BackgroundImageFix"/>
<feBlend mode="normal" in="SourceGraphic" in2="BackgroundImageFix" result="shape"/>
<feColorMatrix in="SourceAlpha" type="matrix" values="0 0 0 0 0 0 0 0 0 0 0 0 0 0 0 0 0 0 127 0" result="hardAlpha"/>
<feOffset dy="4"/>
<feComposite in2="hardAlpha" operator="arithmetic" k2="-1" k3="1"/>
<feColorMatrix type="matrix" values="0 0 0 0 1 0 0 0 0 1 0 0 0 0 1 0 0 0 1 0"/>
<feBlend mode="normal" in2="shape" result="effect1_innerShadow_1_17697"/>
</filter>
<filter id="filter2_i_1_17697" x="297.062" y="7.5" width="64" height="64" filterUnits="userSpaceOnUse" color-interpolation-filters="sRGB">
<feFlood flood-opacity="0" result="BackgroundImageFix"/>
<feBlend mode="normal" in="SourceGraphic" in2="BackgroundImageFix" result="shape"/>
<feColorMatrix in="SourceAlpha" type="matrix" values="0 0 0 0 0 0 0 0 0 0 0 0 0 0 0 0 0 0 127 0" result="hardAlpha"/>
<feOffset dy="4"/>
<feComposite in2="hardAlpha" operator="arithmetic" k2="-1" k3="1"/>
<feColorMatrix type="matrix" values="0 0 0 0 1 0 0 0 0 1 0 0 0 0 1 0 0 0 1 0"/>
<feBlend mode="normal" in2="shape" result="effect1_innerShadow_1_17697"/>
</filter>
<filter id="filter3_i_1_17697" x="435.188" y="7.5" width="64" height="64" filterUnits="userSpaceOnUse" color-interpolation-filters="sRGB">
<feFlood flood-opacity="0" result="BackgroundImageFix"/>
<feBlend mode="normal" in="SourceGraphic" in2="BackgroundImageFix" result="shape"/>
<feColorMatrix in="SourceAlpha" type="matrix" values="0 0 0 0 0 0 0 0 0 0 0 0 0 0 0 0 0 0 127 0" result="hardAlpha"/>
<feOffset dy="4"/>
<feComposite in2="hardAlpha" operator="arithmetic" k2="-1" k3="1"/>
<feColorMatrix type="matrix" values="0 0 0 0 1 0 0 0 0 1 0 0 0 0 1 0 0 0 1 0"/>
<feBlend mode="normal" in2="shape" result="effect1_innerShadow_1_17697"/>
</filter>
</defs>
</svg>
